<svg width="179" height="212" viewBox="0 0 179 212" fill="none" xmlns="http://www.w3.org/2000/svg">
<g clip-path="url(#clip0_3192_13182)">
<path d="M106.31 31.61C118.31 40.02 152.14 45.44 164.91 45.36V45.85C164.91 45.85 160.38 57.76 163.27 65.02C166.45 73.02 171.38 74.02 173.83 83.71C178.07 100.49 155.83 175.46 148.74 198.56C148.072 200.771 146.852 202.776 145.195 204.385C143.538 205.995 141.499 207.156 139.27 207.76C106.43 216.47 74.5597 199.03 60.8897 189.94C58.7699 188.526 57.0858 186.55 56.026 184.232C54.9663 181.915 54.5728 179.348 54.8897 176.82C65.7297 90.31 78.9897 61.39 92.2797 53.33C105.97 45.03 106.28 31.63 106.28 31.63L106.31 31.61Z" fill="#AEFFE2"/>
<path d="M149.35 196.58C99.9503 208.24 49.0703 150.19 92.3503 160.26C137.76 170.83 152.93 131.7 125.11 135.2C97.2903 138.7 85.9303 109.7 101.59 104.91C117.25 100.12 148.93 104.7 142.59 89.02C136.25 73.34 110.97 79.7 108.59 66.49C106.21 53.28 118.82 48.41 118.82 48.41C137.74 54.96 153.54 54.49 162.94 53.15C163.414 50.6743 164.083 48.2401 164.94 45.87V45.41C152.17 45.49 118.36 40.07 106.34 31.66C106.34 31.66 106.05 45.06 92.3403 53.36C79.0503 61.42 65.7903 90.36 54.9503 176.85C54.6334 179.378 55.0268 181.945 56.0866 184.262C57.1463 186.58 58.8305 188.556 60.9503 189.97C74.6203 199.06 106.49 216.5 139.33 207.79C141.56 207.186 143.599 206.025 145.256 204.415C146.912 202.806 148.132 200.801 148.8 198.59L149.35 196.58Z" fill="#83FFD6"/>
<path d="M177.3 25.31C177.3 25.31 176.52 42.62 169.06 44.95C167.701 45.2679 166.306 45.4058 164.91 45.36C152.14 45.44 118.33 40.02 106.31 31.61C104.18 30.12 102.73 28.54 102.21 26.87C99.8702 19.42 105.21 5.31 105.21 5.31H105.43C105.09 6.85 105.68 9.36 110.05 12.83C117.91 19.08 164.71 31.38 174.05 27.9C175.89 27.22 176.87 26.3 177.14 25.23L177.3 25.31Z" fill="#3B45FF"/>
<path d="M154.909 9.67C167.459 13.93 178.259 20.9 177.159 25.28C176.889 26.35 175.909 27.28 174.069 27.95C164.689 31.43 117.889 19.13 110.069 12.88C105.699 9.41001 105.069 6.88001 105.449 5.36001C105.604 4.62748 106.007 3.97069 106.589 3.50001C115.329 -2.73999 139.299 4.41 154.909 9.67Z" fill="#6170FF"/>
<path d="M178.12 25.55C178.58 23.45 177.3 21.55 175.94 20.09C173.676 17.8223 171.084 15.9076 168.25 14.41C161.44 10.57 153.96 8.14001 146.52 5.85001C139.467 3.5644 132.245 1.83576 124.92 0.680012C119.41 -0.0999879 113.04 -0.749991 107.8 1.63001C105.8 2.54001 104.21 4.03001 104.37 6.40001C104.57 9.31001 107.05 11.7 109.17 13.4C111.82 15.53 115.17 16.8 118.32 18.01C128.581 21.85 139.14 24.8401 149.89 26.95C154.887 28.0729 159.946 28.8944 165.04 29.41C168.24 29.68 171.96 30.02 174.98 28.7C175.701 28.4476 176.356 28.0386 176.899 27.5026C177.442 26.9665 177.859 26.3167 178.12 25.6C178.171 25.3527 178.125 25.0955 177.994 24.8801C177.862 24.6648 177.654 24.5071 177.411 24.4388C177.168 24.3704 176.908 24.3965 176.684 24.5117C176.459 24.6269 176.287 24.8228 176.2 25.06C175.67 26.77 173.3 27.32 171.7 27.49C170.111 27.6417 168.512 27.6584 166.92 27.54C162.523 27.2475 158.15 26.6629 153.83 25.79C143.6 23.8846 133.518 21.2547 123.66 17.92C120.033 16.7708 116.499 15.3433 113.09 13.65C111.548 12.8709 110.135 11.8591 108.9 10.65C107.56 9.33001 105.31 6.76001 106.79 4.76001C107.12 4.32001 107.03 4.45001 107.5 4.15001C107.969 3.8606 108.461 3.60978 108.97 3.40001C110.008 2.98508 111.088 2.68659 112.19 2.51001C114.904 2.09515 117.659 2.02459 120.39 2.30001C127.037 2.94473 133.605 4.23754 140 6.16001C146.799 7.93401 153.479 10.135 160 12.75C163.456 14.1635 166.776 15.8872 169.92 17.9C172.03 19.27 174.4 20.9 175.71 23.14C176.12 23.7211 176.295 24.4354 176.2 25.14C175.92 26.27 177.85 26.8 178.12 25.55Z" fill="black"/>
<path d="M104.249 5.04C103.306 7.60187 102.525 10.2203 101.909 12.88C100.909 17.15 100.049 21.88 101.029 26.25C102.009 30.62 106.319 33.09 110.029 34.9C113.97 36.7417 118.057 38.2504 122.249 39.41C131.587 42.0998 141.124 44.0426 150.769 45.22C154.609 45.72 158.479 46.12 162.359 46.22C166.059 46.37 170.019 46.57 172.729 43.63C175.439 40.69 176.649 36.38 177.409 32.52C177.907 30.1139 178.221 27.6736 178.349 25.22C178.409 23.93 176.409 23.94 176.349 25.22C176.119 30.28 175.209 35.99 172.619 40.41C171.918 41.7446 170.854 42.8539 169.549 43.61C167.849 44.47 165.669 44.29 163.809 44.26C160.335 44.1783 156.867 43.9213 153.419 43.49C144.347 42.4762 135.36 40.8051 126.529 38.49C122.355 37.4184 118.254 36.0823 114.249 34.49C110.789 33.08 106.719 31.31 104.249 28.36C102.669 26.44 102.559 23.8 102.639 21.42C102.742 18.9408 103.077 16.4767 103.639 14.06C104.274 11.1459 105.11 8.27915 106.139 5.48001C106.599 4.27001 104.659 3.75 104.219 4.94L104.249 5.04Z" fill="black"/>
<path d="M105.299 31.63C105.199 35.9 103.199 40.54 100.779 44.1C98.3121 47.5591 95.156 50.4701 91.5092 52.65C90.451 53.334 89.448 54.0997 88.5092 54.94C83.3092 59.48 79.7891 65.82 76.9591 72.02C71.9591 83.02 68.6791 94.78 65.8891 106.5C61.4091 125.34 58.3291 144.5 55.6891 163.68C55.2891 166.6 54.9091 169.51 54.5291 172.43C54.1791 175.12 53.6391 177.83 54.0091 180.55C54.3379 182.741 55.142 184.832 56.3651 186.679C57.5882 188.526 59.2006 190.083 61.0891 191.24C67.4903 195.443 74.2341 199.099 81.2491 202.17C90.2671 206.211 99.8008 208.984 109.579 210.41C114.936 211.15 120.353 211.351 125.749 211.01C128.462 210.827 131.163 210.493 133.839 210.01C136.45 209.654 139.013 209.007 141.479 208.08C143.468 207.205 145.241 205.906 146.675 204.274C148.109 202.641 149.168 200.715 149.779 198.63C150.479 196.39 151.149 194.14 151.829 191.9C153.622 185.9 155.379 179.9 157.099 173.9C161.389 158.9 165.479 143.9 168.999 128.68C170.639 121.62 172.169 114.53 173.389 107.39C174.45 101.861 175.118 96.2635 175.389 90.64C175.711 85.0257 174.149 79.4647 170.949 74.84C168.639 71.58 165.949 68.74 164.379 64.99C162.769 61.08 163.269 56.56 164.109 52.53C164.55 50.3508 165.155 48.2081 165.919 46.12C166.379 44.91 164.449 44.39 163.999 45.58C163.194 47.7661 162.565 50.0133 162.119 52.3C161.329 56.21 160.859 60.53 162.049 64.42C163.239 68.31 165.669 71.27 168.049 74.32C170.512 77.3177 172.226 80.8586 173.049 84.65C173.849 88.76 173.319 93.29 172.859 97.44C172.149 103.74 170.989 109.99 169.719 116.19C166.629 131.27 162.719 146.19 158.669 161.01C155.336 173.01 151.856 184.977 148.229 196.91C147.029 200.85 144.989 204.2 141.129 206.03C138.63 207.041 136.007 207.714 133.329 208.03C130.542 208.533 127.727 208.867 124.899 209.03C114.519 209.477 104.143 208.082 94.2491 204.91C85.7461 202.246 77.5554 198.672 69.8191 194.25C66.9791 192.65 64.1691 190.96 61.4691 189.14C59.5 187.795 57.9389 185.934 56.9565 183.761C55.9741 181.588 55.6083 179.187 55.8991 176.82C57.1491 165.41 58.8991 154.01 60.7691 142.68C62.2491 133.68 63.8891 124.6 65.7691 115.68C68.4991 102.91 71.6792 90.1 76.5092 77.94C79.2392 71.06 82.5791 63.94 87.6591 58.5C89.9791 56 92.3491 54.7 95.1091 52.68C100.946 48.4847 105.067 42.318 106.709 35.32C106.997 34.1258 107.171 32.907 107.229 31.68C107.229 31.4148 107.124 31.1604 106.936 30.9729C106.749 30.7854 106.494 30.68 106.229 30.68C105.964 30.68 105.71 30.7854 105.522 30.9729C105.334 31.1604 105.229 31.4148 105.229 31.68L105.299 31.63Z" fill="black"/>
<path d="M111.68 14C111.68 14 107.68 25 108.23 32.83" stroke="black" stroke-miterlimit="10"/>
<path d="M121.2 18.06L116.9 36.68" stroke="black" stroke-miterlimit="10"/>
<path d="M132.75 21.74L128.42 40.1" stroke="black" stroke-miterlimit="10"/>
<path d="M144.84 24.87C144.84 24.87 140.96 39.69 140.32 42.97" stroke="black" stroke-miterlimit="10"/>
<path d="M156.539 27.24C156.539 27.24 153.619 41.04 152.359 44.94" stroke="black" stroke-miterlimit="10"/>
<path d="M166.651 28.41C166.651 28.41 163.731 42.22 162.471 46.12" stroke="black" stroke-miterlimit="10"/>
<path d="M131.251 14.07C132.246 13.7302 133.326 13.7302 134.321 14.07C138.211 15.34 149.931 19.07 154.741 19.46C160.551 19.96 164.161 20.1 166.001 22.66C167.841 25.22 153.911 25.45 141.371 20.9C129.991 16.76 128.901 14.95 131.251 14.07Z" fill="white"/>
<path d="M168.31 20.7C168.31 20.7 167.58 21.4 168.72 23.32C169.86 25.24 173.17 23.81 172.03 21.88C170.89 19.95 169.58 19.17 168.31 20.7Z" fill="white"/>
<path d="M133.85 200.8C136.61 199.013 139.277 197.107 141.85 195.08C142.014 194.889 142.099 194.643 142.09 194.391C142.08 194.139 141.976 193.901 141.797 193.722C141.619 193.544 141.381 193.44 141.129 193.43C140.877 193.421 140.631 193.506 140.44 193.67C137.98 195.58 135.44 197.38 132.81 199.07C132.69 199.133 132.585 199.219 132.499 199.323C132.414 199.427 132.351 199.548 132.313 199.677C132.275 199.807 132.264 199.943 132.281 200.077C132.297 200.211 132.34 200.34 132.408 200.457C132.475 200.573 132.566 200.675 132.673 200.756C132.781 200.837 132.905 200.895 133.036 200.927C133.167 200.959 133.303 200.965 133.436 200.943C133.569 200.921 133.696 200.872 133.81 200.8H133.85Z" fill="black"/>
<path d="M137.251 203.3L139.061 201.84C139.155 201.747 139.23 201.637 139.282 201.515C139.333 201.393 139.36 201.262 139.361 201.13C139.36 200.998 139.333 200.867 139.282 200.745C139.23 200.623 139.155 200.513 139.061 200.42C138.875 200.235 138.623 200.131 138.361 200.13H138.091C137.925 200.174 137.774 200.26 137.651 200.38L135.841 201.85C135.656 202.036 135.552 202.288 135.551 202.55C135.55 202.682 135.575 202.812 135.625 202.934C135.675 203.056 135.748 203.167 135.841 203.26C135.934 203.353 136.045 203.426 136.167 203.476C136.289 203.526 136.419 203.551 136.551 203.55H136.811C136.978 203.503 137.129 203.413 137.251 203.29V203.3Z" fill="black"/>
<path d="M91.7098 67.35C92.4915 66.8717 93.2995 66.4376 94.1299 66.05L94.7698 65.76H94.8698L95.2199 65.62C95.6499 65.45 96.0898 65.3 96.5298 65.15C96.6566 65.1152 96.7752 65.0558 96.879 64.9751C96.9827 64.8945 97.0696 64.7942 97.1346 64.68C97.1996 64.5658 97.2415 64.4399 97.2578 64.3095C97.2742 64.1791 97.2647 64.0467 97.2299 63.92C97.1951 63.7933 97.1356 63.6746 97.055 63.5709C96.9743 63.4671 96.874 63.3803 96.7598 63.3153C96.6456 63.2503 96.5197 63.2084 96.3893 63.192C96.2589 63.1757 96.1266 63.1852 95.9999 63.22C94.1447 63.8254 92.3661 64.6442 90.6999 65.66C90.4822 65.7984 90.3264 66.0155 90.265 66.266C90.2037 66.5165 90.2415 66.7811 90.3705 67.0044C90.4996 67.2277 90.71 67.3925 90.9577 67.4643C91.2054 67.5362 91.4713 67.5096 91.6999 67.39L91.7098 67.35Z" fill="black"/>
<path d="M91.2502 63.53L93.6902 62.53C93.9162 62.3979 94.0813 62.1825 94.1502 61.93C94.2135 61.6698 94.1779 61.3954 94.0502 61.16C93.9181 60.9341 93.7027 60.7689 93.4503 60.7H93.1802C93.0051 60.6988 92.8326 60.7436 92.6802 60.83L90.2402 61.83C90.0143 61.9621 89.8492 62.1775 89.7802 62.43C89.7447 62.5585 89.7353 62.6929 89.7525 62.8251C89.7696 62.9573 89.8131 63.0848 89.8802 63.2C90.01 63.4239 90.2215 63.5888 90.4702 63.66H90.7402C90.9197 63.6599 91.0959 63.6116 91.2502 63.52V63.53Z" fill="black"/>
<path d="M84.8391 54.28C84.9991 54.03 85.1591 53.78 85.3291 53.53C85.4991 53.28 85.5191 53.26 85.6191 53.13L85.7491 52.95C85.8591 52.8 85.7491 52.95 85.7491 52.9C86.1291 52.42 86.5291 51.96 86.9591 51.51C87.3713 51.0778 87.8088 50.6705 88.2691 50.29L88.6091 50L88.8191 49.83C89.0691 49.64 89.3291 49.46 89.5891 49.28C89.8162 49.1464 89.9813 48.9287 90.0487 48.674C90.1161 48.4194 90.0804 48.1484 89.9491 47.92C89.883 47.8063 89.795 47.7067 89.6903 47.627C89.5856 47.5473 89.4661 47.4891 89.3389 47.4556C89.2116 47.4222 89.079 47.4142 88.9486 47.4321C88.8182 47.45 88.6927 47.4935 88.5791 47.56C86.3434 49.0586 84.4517 51.0152 83.0291 53.3C82.9568 53.4138 82.9082 53.5411 82.8863 53.6742C82.8644 53.8073 82.8697 53.9434 82.9018 54.0744C82.9338 54.2054 82.9921 54.3285 83.073 54.4364C83.1539 54.5443 83.2558 54.6347 83.3726 54.7022C83.4894 54.7697 83.6186 54.8129 83.7525 54.8292C83.8863 54.8455 84.0221 54.8345 84.1517 54.7969C84.2812 54.7593 84.4018 54.6959 84.5062 54.6105C84.6106 54.5251 84.6966 54.4195 84.7591 54.3L84.8391 54.28Z" fill="black"/>
<path d="M81.4791 51.54C82.2622 50.5416 83.1143 49.5993 84.0291 48.72C84.4691 48.3 84.9391 47.88 85.4091 47.49C85.6591 47.28 85.9091 47.07 86.1691 46.87L86.3591 46.72L86.7991 46.41C86.9128 46.3438 87.0124 46.2559 87.0921 46.1512C87.1718 46.0464 87.23 45.927 87.2635 45.7997C87.2969 45.6725 87.3049 45.5398 87.287 45.4095C87.2691 45.2791 87.2256 45.1535 87.1591 45.04C87.0929 44.9263 87.005 44.8267 86.9002 44.747C86.7955 44.6673 86.6761 44.6091 86.5488 44.5756C86.4216 44.5422 86.2889 44.5342 86.1585 44.5521C86.0282 44.57 85.9026 44.6135 85.7891 44.68C83.6228 46.2251 81.6839 48.0664 80.0291 50.15C79.8428 50.3374 79.7383 50.5908 79.7383 50.855C79.7383 51.1192 79.8428 51.3726 80.0291 51.56C80.122 51.6537 80.2327 51.7281 80.3545 51.7789C80.4764 51.8297 80.6071 51.8558 80.7391 51.8558C80.8711 51.8558 81.0018 51.8297 81.1237 51.7789C81.2455 51.7281 81.3561 51.6537 81.4491 51.56L81.4791 51.54Z" fill="black"/>
<path d="M165.08 58.41C165.248 59.8834 165.583 61.3328 166.08 62.73C166.115 62.8568 166.174 62.9755 166.255 63.0793C166.335 63.1831 166.436 63.27 166.55 63.335C166.664 63.4 166.79 63.4418 166.921 63.4581C167.051 63.4744 167.183 63.4649 167.31 63.43C167.564 63.3577 167.78 63.1878 167.909 62.9574C168.038 62.7269 168.071 62.4546 168 62.2C167.774 61.5441 167.584 60.8764 167.43 60.2C167.35 59.88 167.28 59.55 167.22 59.2C167.22 59.04 167.17 58.87 167.14 58.7C167.145 58.6501 167.145 58.5999 167.14 58.55V58.66C167.14 58.56 167.14 58.46 167.14 58.36C167.134 58.0958 167.03 57.8432 166.85 57.65C166.757 57.5573 166.646 57.484 166.524 57.4342C166.402 57.3845 166.272 57.3592 166.14 57.36C165.875 57.36 165.621 57.4653 165.433 57.6529C165.245 57.8404 165.14 58.0948 165.14 58.36L165.08 58.41Z" fill="black"/>
<path d="M168.51 55.41C168.778 57.8253 169.35 60.1972 170.21 62.47C170.244 62.5968 170.304 62.7155 170.384 62.8193C170.465 62.9231 170.565 63.01 170.68 63.075C170.794 63.14 170.92 63.1819 171.05 63.1982C171.181 63.2145 171.313 63.2049 171.44 63.17C171.567 63.1353 171.685 63.0759 171.789 62.9953C171.893 62.9147 171.98 62.8144 172.045 62.7001C172.11 62.5859 172.152 62.46 172.168 62.3295C172.184 62.1991 172.175 62.0667 172.14 61.94C171.323 59.8408 170.776 57.6467 170.51 55.41C170.51 55.1448 170.404 54.8904 170.217 54.7029C170.029 54.5154 169.775 54.41 169.51 54.41C169.245 54.41 168.99 54.5154 168.803 54.7029C168.615 54.8904 168.51 55.1448 168.51 55.41Z" fill="black"/>
<path d="M162.251 87.09C161.601 90.99 147.621 174.33 138.631 188.29C129.431 202.58 75.7209 191.78 71.6309 176.03C67.5409 160.28 87.9809 74.81 87.9809 74.81L88.4609 74.66C88.6589 74.9892 88.9422 75.2587 89.2809 75.44C100.577 81.2708 112.768 85.1713 125.351 86.98C145.841 90.09 156.111 88.64 160.781 87.26C161.009 87.1914 161.225 87.0868 161.421 86.95L162.251 87.09Z" fill="#CB4BEA"/>
<path d="M161.419 86.95C161.224 87.0868 161.008 87.1914 160.779 87.26C156.109 88.64 145.839 90.09 125.349 86.98C112.755 85.1651 100.553 81.2544 89.2492 75.41C88.9106 75.2287 88.6272 74.9592 88.4292 74.63L87.9492 74.78C87.9492 74.78 67.3892 160.26 71.5292 176C74.3892 186.92 101.109 195.46 120.279 194.9C96.6592 188.9 82.3692 168.41 103.569 170.51C132.249 173.41 150.959 144.7 125.249 149.19C99.5392 153.68 69.9792 119.7 100.899 127.98C131.819 136.26 142.979 109.7 131.069 111.98C119.159 114.26 98.9792 108.66 96.9092 99.87C94.8392 91.08 101.639 91.87 101.639 91.87C125.169 102.5 148.709 98.17 160.939 94.67C161.669 90.45 162.129 87.67 162.239 87.06L161.419 86.95Z" fill="#A12FBC"/>
<path d="M161.419 83.61C161.681 83.8023 161.895 84.0536 162.042 84.3438C162.189 84.6339 162.266 84.9547 162.266 85.28C162.266 85.6053 162.189 85.9261 162.042 86.2163C161.895 86.5064 161.681 86.7578 161.419 86.95C161.224 87.0868 161.007 87.1914 160.779 87.26C156.109 88.64 145.839 90.09 125.349 86.98C112.754 85.1651 100.552 81.2544 89.249 75.41C88.9103 75.2287 88.627 74.9592 88.429 74.63C88.2913 74.3848 88.2043 74.1144 88.1731 73.8349C88.1419 73.5555 88.1672 73.2725 88.2474 73.003C88.3276 72.7335 88.4611 72.4828 88.6401 72.2658C88.819 72.0489 89.0397 71.8701 89.289 71.74C99.969 66.11 118.219 67.74 125.029 68.92C143.989 72.15 156.249 79.81 161.419 83.61Z" fill="#E476FF"/>
<path d="M87.0194 74.54C85.8694 79.29 84.7894 84.05 83.7194 88.81C81.306 99.4767 79.036 110.2 76.9094 120.98C74.6594 132.47 72.5494 143.98 71.1194 155.64C70.5278 160.022 70.1607 164.431 70.0194 168.85C69.9594 171.85 69.9194 175.15 71.1894 177.93C72.9494 181.76 76.7394 184.49 80.2794 186.53C85.228 189.277 90.5074 191.381 95.9894 192.79C101.931 194.407 108.023 195.412 114.169 195.79C119.48 196.24 124.829 195.852 130.019 194.64C133.779 193.64 137.589 191.85 139.679 188.41C141.309 185.455 142.606 182.33 143.549 179.09C146.824 168.617 149.557 157.983 151.739 147.23C154.329 135.41 156.659 123.53 158.869 111.63C160.269 104.077 161.603 96.52 162.869 88.96C162.969 88.37 163.079 87.77 163.159 87.18C163.339 85.92 161.419 85.37 161.239 86.64C160.439 92.22 159.329 97.77 158.329 103.3C156.329 114.43 154.209 125.54 151.919 136.61C149.559 148.03 147.069 159.44 143.919 170.67C142.824 174.808 141.516 178.887 139.999 182.89C138.919 185.65 137.719 188.48 135.199 190.21C131.529 192.74 126.769 193.5 122.419 193.79C116.676 194.13 110.913 193.791 105.249 192.78C99.3827 191.809 93.6344 190.223 88.0994 188.05C83.6994 186.29 79.1594 184.05 75.7394 180.7C74.4225 179.512 73.3961 178.037 72.7394 176.39C72.354 175.22 72.1418 174.001 72.1094 172.77C71.9392 168.996 72.0696 165.214 72.4994 161.46C73.4994 150.52 75.4394 139.65 77.4494 128.86C79.5494 117.66 81.8694 106.51 84.3194 95.38C85.7494 88.91 87.2094 82.45 88.7394 76.01C88.8194 75.7 88.8894 75.39 88.9594 75.08C89.2694 73.82 87.3394 73.29 87.0394 74.54H87.0194Z" fill="black"/>
<path d="M162.129 87.66C162.605 87.2652 162.954 86.7385 163.132 86.1461C163.31 85.5536 163.309 84.9219 163.129 84.33C162.723 83.4037 162.019 82.6398 161.129 82.16C159.659 81.11 158.129 80.16 156.589 79.21C151.957 76.4911 147.079 74.2144 142.019 72.41C130.886 68.3488 119.072 66.4811 107.229 66.91C101.369 67.14 95.3192 67.91 89.9592 70.39C88.7392 70.96 87.5992 71.6 87.2692 73C87.1292 73.6465 87.2004 74.3208 87.4722 74.9239C87.744 75.5269 88.2021 76.0268 88.7792 76.35C90.3011 77.2234 91.8739 78.0048 93.4892 78.69C105.489 84.2 118.339 87.29 131.419 88.86C140.649 89.97 150.659 90.86 159.819 88.6C160.554 88.4653 161.263 88.2156 161.919 87.86C162.119 87.7144 162.259 87.4997 162.31 87.2575C162.361 87.0152 162.32 86.7627 162.196 86.5487C162.071 86.3346 161.872 86.1744 161.636 86.0989C161.4 86.0234 161.145 86.0381 160.919 86.14C159.785 86.6482 158.576 86.969 157.339 87.09C155.829 87.36 154.339 87.54 152.779 87.66C147.99 87.9901 143.182 87.95 138.399 87.54C125.406 86.7109 112.604 83.9854 100.399 79.45C98.3592 78.67 96.3592 77.8234 94.3992 76.91C92.8647 76.2743 91.3746 75.536 89.9392 74.7C88.2092 73.61 89.8792 72.62 90.9392 72.12C92.1679 71.5699 93.4345 71.1087 94.7293 70.74C97.4616 69.9642 100.26 69.4452 103.089 69.19C113.574 68.2436 124.143 69.2162 134.279 72.06C140.38 73.711 146.285 76.0177 151.889 78.94C153.889 79.94 155.769 81.08 157.629 82.28C158.359 82.75 159.079 83.28 159.789 83.74C160.699 84.37 161.929 85.23 160.679 86.29C159.729 87.08 161.149 88.49 162.129 87.66Z" fill="black"/>
<path d="M90.8807 91.54C90.8807 91.54 89.5507 94.97 91.3907 96.98C93.2307 98.99 102.041 99.98 101.391 93.59C100.741 87.2 91.6707 88.48 90.8807 91.54Z" fill="#EDA4FF"/>
<path d="M144.251 103.87C144.251 103.87 142.081 107.24 145.901 108.6C147.831 109.3 152.061 106.53 151.461 103.76C150.861 100.99 146.371 100.51 144.251 103.87Z" fill="#EDA4FF"/>
<path d="M117.871 101.67C117.316 101.615 116.756 101.683 116.231 101.869C115.705 102.055 115.227 102.354 114.83 102.745C114.433 103.136 114.127 103.61 113.933 104.133C113.74 104.656 113.664 105.215 113.711 105.77C113.742 106.106 113.793 106.44 113.861 106.77C114.331 109.12 124.621 108.67 121.481 103.38C121.054 102.833 120.505 102.394 119.878 102.097C119.252 101.8 118.564 101.654 117.871 101.67Z" fill="#EDA4FF"/>
<path d="M130.339 91.9C130.339 91.9 127.259 92.03 128.089 95.04C128.509 96.57 132.089 98.04 133.609 96.4C135.129 94.76 133.419 91.78 130.339 91.9Z" fill="#EDA4FF"/>
<path d="M120.789 73.22C123.698 73.6076 126.542 74.3776 129.249 75.51C129.376 75.5449 129.508 75.5545 129.639 75.5382C129.769 75.5219 129.895 75.48 130.009 75.415C130.124 75.35 130.224 75.2631 130.305 75.1593C130.385 75.0555 130.445 74.9368 130.479 74.81C130.514 74.6833 130.524 74.5509 130.507 74.4205C130.491 74.29 130.449 74.1641 130.384 74.0499C130.319 73.9356 130.232 73.8353 130.129 73.7547C130.025 73.6741 129.906 73.6147 129.779 73.58C126.897 72.3981 123.871 71.6045 120.779 71.22C120.514 71.22 120.26 71.3254 120.072 71.5129C119.885 71.7004 119.779 71.9548 119.779 72.22C119.779 72.4852 119.885 72.7396 120.072 72.9271C120.26 73.1147 120.514 73.22 120.779 73.22H120.789Z" fill="black"/>
<path d="M133.001 75.85C133.408 75.9417 133.806 76.0689 134.191 76.23L133.951 76.13L134.621 76.45C134.735 76.5188 134.862 76.564 134.995 76.5829C135.127 76.6018 135.262 76.594 135.391 76.56C135.64 76.4848 135.854 76.3212 135.991 76.1C136.058 75.9848 136.102 75.8573 136.119 75.7251C136.136 75.5928 136.126 75.4585 136.091 75.33C136.022 75.0775 135.857 74.8621 135.631 74.73C134.97 74.3668 134.264 74.0943 133.531 73.92C133.271 73.8567 132.996 73.8923 132.761 74.02C132.647 74.0861 132.548 74.1741 132.468 74.2788C132.388 74.3835 132.33 74.503 132.297 74.6303C132.263 74.7575 132.255 74.8902 132.273 75.0205C132.291 75.1509 132.334 75.2765 132.401 75.39C132.533 75.6159 132.748 75.7811 133.001 75.85Z" fill="black"/>
<path d="M106.54 160.5C105.752 161.783 105.369 163.273 105.44 164.777C105.511 166.28 106.034 167.728 106.94 168.93C110.07 173.48 121.07 167.48 119.88 161.93C118.69 156.38 108.41 155.76 106.54 160.5Z" fill="#EDA4FF"/>
<path d="M80.6509 154.53C80.6509 154.53 76.8009 156.81 78.7809 159.28C80.7609 161.75 85.6409 159.28 85.3409 155.34C85.0409 151.4 80.6509 154.53 80.6509 154.53Z" fill="#EDA4FF"/>
<path d="M84.8894 177.49C84.8894 177.49 83.5594 180.03 87.1994 182.49C90.8394 184.95 92.5594 179.01 90.9194 176.7C89.2794 174.39 85.1394 175.26 84.8894 177.49Z" fill="#EDA4FF"/>
<path d="M119.809 181.79C119.809 181.79 115.469 184.36 118.649 187.79C121.829 191.22 132.079 185.7 136.349 179.06C140.619 172.42 143.779 162.41 138.649 160.41C133.519 158.41 133.649 166.57 131.549 171.92C129.449 177.27 119.809 181.79 119.809 181.79Z" fill="white"/>
<path d="M105.73 183.76C105.096 184.425 104.721 185.294 104.673 186.212C104.625 187.129 104.908 188.033 105.47 188.76C107.42 191.58 113.61 188.22 112.31 185.02C111.01 181.82 107.9 182.47 105.73 183.76Z" fill="white"/>
<path d="M69.3803 96.69C69.3803 96.69 128.38 121.59 170.38 118.02C170.38 118.02 162.73 150.2 161.15 155.77C161.15 155.77 120.52 162.05 61.0003 135.77C60.9603 135.76 65.6303 110.29 69.3803 96.69Z" fill="#3048F9"/>
<path d="M161.111 155.77C161.691 153.77 163.111 148.17 164.601 141.91C109.961 149.02 84.8909 128.3 82.7709 116.7C81.9309 112.06 84.7709 107.59 88.6509 103.84C76.9809 99.89 69.3809 96.69 69.3809 96.69C65.6309 110.29 60.9609 135.76 60.9609 135.76C120.481 162.05 161.111 155.77 161.111 155.77Z" fill="#2B37CC"/>
<path d="M69.1199 97.65C76.5099 100.77 84.1199 103.43 91.7499 105.92C107.75 111.17 124.22 115.5 140.95 117.81C150.673 119.287 160.528 119.693 170.34 119.02L169.34 117.75C166.9 128.02 164.45 138.29 161.91 148.54C161.33 150.86 160.77 153.2 160.12 155.54L160.82 154.84C160.62 154.84 160.51 154.84 160.77 154.84C160.475 154.859 160.181 154.892 159.89 154.94C158.77 155.07 157.65 155.16 156.52 155.23C152.3 155.5 148.06 155.51 143.83 155.36C128.148 154.669 112.599 152.152 97.4999 147.86C85.1771 144.432 73.1215 140.107 61.4299 134.92L61.8899 136.05C63.6599 126.45 65.5799 116.86 67.7499 107.34C68.5499 103.88 69.3699 100.41 70.3199 96.98C70.3547 96.8533 70.3642 96.721 70.3479 96.5906C70.3315 96.4602 70.2897 96.3343 70.2247 96.22C70.1597 96.1058 70.0728 96.0055 69.969 95.9249C69.8653 95.8442 69.7466 95.7848 69.6199 95.75C69.4932 95.7152 69.3609 95.7057 69.2305 95.7221C69.1001 95.7384 68.9742 95.7803 68.8599 95.8453C68.7457 95.9103 68.6454 95.9971 68.5648 96.1009C68.4841 96.2047 68.4247 96.3233 68.3899 96.45C65.1599 108.2 62.8599 120.22 60.5899 132.19L59.9599 135.52C59.9012 135.733 59.9144 135.959 59.9976 136.163C60.0808 136.368 60.2293 136.539 60.4199 136.65C79.6107 145.279 99.8187 151.438 120.56 154.98C132.084 156.993 143.791 157.767 155.48 157.29C157.444 157.214 159.404 157.037 161.35 156.76C161.517 156.714 161.67 156.625 161.793 156.503C161.915 156.38 162.004 156.227 162.05 156.06C165.19 144.96 167.62 133.62 170.3 122.4C170.62 121.04 170.95 119.67 171.3 118.31C171.341 118.159 171.345 118 171.314 117.847C171.282 117.694 171.215 117.55 171.118 117.428C171.02 117.305 170.896 117.207 170.754 117.142C170.612 117.076 170.456 117.045 170.3 117.05C152.74 118.51 134.92 115.48 117.9 111.36C104.104 107.984 90.5279 103.763 77.2499 98.72C74.6899 97.72 72.1399 96.79 69.6199 95.72C68.4699 95.22 67.9499 97.16 69.1199 97.65Z" fill="black"/>
<path d="M83.3797 113.9C83.1467 113.63 82.8735 113.397 82.5697 113.21C82.2545 113.012 81.9193 112.848 81.5697 112.72C81.2097 112.59 80.9197 112.5 80.6997 112.44C80.313 112.34 79.783 112.24 79.1096 112.14C78.4481 112.039 77.7783 112.002 77.1096 112.03C76.4716 112.042 75.8412 112.171 75.2497 112.41C75.0028 112.507 74.783 112.662 74.6089 112.863C74.4349 113.063 74.3116 113.302 74.2497 113.56C74.1761 113.798 74.1939 114.055 74.2996 114.28C74.4096 114.499 74.5587 114.695 74.7396 114.86C74.9334 115.038 75.1524 115.186 75.3897 115.3C75.6106 115.407 75.8418 115.49 76.0796 115.55L76.3497 115.61H76.6597L75.8797 118.23C75.6197 119.1 75.3497 119.98 75.0897 120.87C74.8297 121.76 74.5296 122.6 74.2096 123.44C73.8896 124.28 73.5696 125.11 73.2096 125.95C72.9013 125.939 72.5927 125.962 72.2897 126.02C71.9843 126.068 71.6899 126.17 71.4197 126.32C71.1472 126.461 70.9031 126.651 70.6997 126.88C70.4887 127.116 70.3408 127.402 70.2697 127.71C70.2328 127.828 70.2218 127.952 70.2373 128.075C70.2528 128.197 70.2946 128.315 70.3597 128.42C70.4956 128.634 70.6808 128.812 70.8996 128.94C71.1312 129.086 71.3797 129.204 71.6397 129.29C71.8659 129.369 72.0962 129.436 72.3296 129.49C72.5896 129.56 72.9196 129.63 73.3296 129.71C73.7396 129.79 74.1997 129.84 74.6697 129.89C75.1548 129.939 75.6421 129.962 76.1297 129.96C76.5867 129.953 77.0421 129.903 77.4896 129.81C77.8735 129.725 78.2392 129.573 78.5697 129.36C78.8662 129.156 79.0765 128.85 79.1597 128.5C79.2344 128.249 79.2344 127.981 79.1597 127.73C79.097 127.499 78.9805 127.287 78.8197 127.11C78.6551 126.919 78.4546 126.763 78.2297 126.65C78.0001 126.532 77.7588 126.438 77.5097 126.37H77.3697C78.0363 124.65 78.643 122.983 79.1897 121.37C79.7363 119.757 80.253 118.053 80.7396 116.26C81.0222 116.289 81.3071 116.289 81.5897 116.26C81.8784 116.22 82.1608 116.143 82.4296 116.03C82.6893 115.927 82.9243 115.77 83.1197 115.57C83.321 115.361 83.4626 115.102 83.5297 114.82C83.5812 114.666 83.5945 114.502 83.5684 114.341C83.5423 114.181 83.4775 114.03 83.3797 113.9Z" fill="white"/>
<path d="M96.6901 121.71C96.7701 121.143 96.8301 120.553 96.8701 119.94C96.921 119.381 96.921 118.819 96.8701 118.26C96.8152 117.794 96.6727 117.343 96.4501 116.93C96.3593 116.753 96.2321 116.598 96.077 116.474C95.9219 116.35 95.7423 116.26 95.5501 116.21C95.3938 116.168 95.2305 116.158 95.0704 116.182C94.9103 116.207 94.757 116.264 94.6201 116.35C94.3051 116.551 94.0304 116.808 93.8101 117.11C93.5485 117.473 93.324 117.862 93.1401 118.27C92.9501 118.7 92.7701 119.14 92.6101 119.58C92.4501 120.02 92.3201 120.44 92.2101 120.83C92.1001 121.22 92.0101 121.53 91.9601 121.75C91.8201 122.26 91.6901 122.75 91.5701 123.29C91.4501 123.83 91.3101 124.34 91.1901 124.87C91.1301 125.1 91.0901 125.28 91.0601 125.39L90.9901 125.66C90.9666 125.738 90.9499 125.819 90.9401 125.9C90.9401 125.99 90.9401 126.14 90.8301 126.34C90.8301 126.08 90.7801 125.85 90.7601 125.64C90.7401 125.43 90.7601 125.28 90.7601 125.12C90.7671 125.027 90.7671 124.933 90.7601 124.84C90.7601 124.02 90.7101 123.21 90.6101 122.41C90.5501 121.61 90.4901 120.8 90.4101 119.99L90.1501 118.41C90.0905 117.792 89.9801 117.18 89.8201 116.58C89.6714 116.011 89.4424 115.465 89.1401 114.96C89.0176 114.738 88.8518 114.544 88.6525 114.387C88.4532 114.231 88.2246 114.116 87.9801 114.05C87.7186 113.986 87.4457 113.984 87.1834 114.045C86.9212 114.106 86.6768 114.228 86.4701 114.4C85.9074 114.833 85.4208 115.357 85.0301 115.95C84.5355 116.673 84.1007 117.436 83.7301 118.23C83.3301 119.08 82.9701 119.93 82.6401 120.75C82.3101 121.57 82.0501 122.34 81.8301 123.03C81.6101 123.72 81.4601 124.26 81.3701 124.62C81.2801 124.98 81.2301 125.17 81.1401 125.57C81.0501 125.97 80.9801 126.41 80.9101 126.89C80.8401 127.37 80.8001 127.89 80.7801 128.38C80.757 128.851 80.7804 129.323 80.8501 129.79C80.9144 130.181 81.0499 130.558 81.2501 130.9C81.3389 131.051 81.4573 131.183 81.5981 131.288C81.739 131.393 81.8995 131.468 82.0701 131.51H82.1501C82.2832 131.499 82.417 131.499 82.5501 131.51C82.6925 131.533 82.8377 131.533 82.9801 131.51C83.2847 131.421 83.5561 131.243 83.7601 131C83.9961 130.733 84.1977 130.437 84.3601 130.12C84.5318 129.797 84.6821 129.463 84.8101 129.12L85.1601 128.22C85.4269 127.568 85.6539 126.9 85.8401 126.22L86.3801 124.22L86.5501 123.56C86.6401 124.44 86.7501 125.32 86.8801 126.19C87.0101 127.06 87.1301 127.94 87.2501 128.83C87.3101 129.25 87.4001 129.72 87.5101 130.24C87.6314 130.757 87.7987 131.263 88.0101 131.75C88.2096 132.218 88.4793 132.653 88.8101 133.04C89.1186 133.41 89.5344 133.676 90.0001 133.8C90.2513 133.864 90.5135 133.87 90.7677 133.82C91.0219 133.77 91.2618 133.664 91.4701 133.51C91.9914 133.137 92.4447 132.677 92.8101 132.15C93.2623 131.52 93.6572 130.851 93.9901 130.15C94.3601 129.39 94.6801 128.64 94.9901 127.9C95.3001 127.16 95.5201 126.47 95.7201 125.84C95.9201 125.21 96.0601 124.71 96.1501 124.37C96.2401 124.03 96.3101 123.73 96.4201 123.25C96.5301 122.77 96.6001 122.28 96.6901 121.71Z" fill="white"/>
<path d="M105.601 117.99C104.852 117.811 104.069 117.832 103.331 118.05C102.51 118.284 101.728 118.637 101.011 119.1C100.286 119.571 99.6323 120.143 99.0706 120.8C98.5561 121.374 98.1798 122.058 97.9706 122.8C97.8212 123.38 97.842 123.991 98.0306 124.56C98.2149 125.192 98.4353 125.813 98.6906 126.42C98.9506 127.04 99.1806 127.63 99.3806 128.19C99.5751 128.679 99.6169 129.216 99.5006 129.73C99.4107 130.06 99.2347 130.36 98.9906 130.6C98.7297 130.855 98.4412 131.079 98.1306 131.27C97.8106 131.47 97.4606 131.67 97.0806 131.86C96.7149 132.035 96.3638 132.239 96.0306 132.47C95.7096 132.674 95.4141 132.916 95.1506 133.19C94.8995 133.453 94.7204 133.777 94.6306 134.13C94.5538 134.358 94.5365 134.601 94.5802 134.837C94.624 135.074 94.7274 135.295 94.8806 135.48C95.1914 135.85 95.6115 136.113 96.0806 136.23C96.561 136.34 97.0602 136.34 97.5406 136.23C98.095 136.12 98.6328 135.938 99.1406 135.69C99.6887 135.403 100.211 135.068 100.701 134.69C101.201 134.335 101.667 133.933 102.091 133.49C102.489 133.082 102.847 132.636 103.161 132.16C103.729 131.331 103.993 130.332 103.911 129.33C103.873 128.887 103.779 128.45 103.631 128.03C103.495 127.642 103.325 127.267 103.121 126.91C102.911 126.56 102.731 126.22 102.571 125.91C102.415 125.61 102.291 125.295 102.201 124.97C102.108 124.643 102.108 124.297 102.201 123.97C102.282 123.598 102.458 123.254 102.711 122.97C102.948 122.705 103.229 122.482 103.541 122.31C103.861 122.135 104.195 121.988 104.541 121.87L105.541 121.54C105.899 121.453 106.238 121.3 106.541 121.09C106.839 120.889 107.05 120.581 107.131 120.23C107.21 119.979 107.229 119.712 107.187 119.452C107.146 119.191 107.044 118.944 106.891 118.73C106.562 118.338 106.105 118.075 105.601 117.99Z" fill="white"/>
<path d="M118.93 129.87C119.01 129.266 119.056 128.659 119.071 128.05C119.071 127.4 119.071 126.75 119.071 126.05C119.036 125.427 118.949 124.808 118.81 124.2C118.693 123.686 118.491 123.196 118.21 122.75C117.988 122.379 117.629 122.11 117.21 122C117.003 121.936 116.784 121.922 116.57 121.958C116.357 121.995 116.155 122.081 115.981 122.21C115.632 122.473 115.385 122.847 115.28 123.27C115.21 123.541 115.17 123.82 115.161 124.1C115.145 124.383 115.145 124.667 115.161 124.95C115.179 126.028 115.142 127.106 115.05 128.18C114.956 129.247 114.772 130.304 114.5 131.34C114.41 131.7 114.271 132.13 114.101 132.62C113.937 133.103 113.719 133.566 113.451 134C113.196 134.404 112.854 134.745 112.451 135C112.255 135.117 112.038 135.194 111.813 135.226C111.587 135.258 111.357 135.244 111.137 135.185C110.917 135.126 110.711 135.024 110.531 134.884C110.351 134.744 110.201 134.569 110.09 134.37C109.873 133.931 109.75 133.45 109.731 132.96C109.699 132.431 109.733 131.901 109.83 131.38C109.93 130.85 110.02 130.38 110.12 130.04C110.295 129.343 110.516 128.658 110.78 127.99C111.04 127.33 111.32 126.67 111.62 125.99C111.81 125.58 112.01 125.17 112.21 124.76C112.405 124.36 112.559 123.941 112.671 123.51C112.757 123.183 112.807 122.848 112.821 122.51C112.851 122.156 112.831 121.799 112.761 121.45C112.696 121.121 112.567 120.808 112.381 120.53C112.19 120.257 111.905 120.064 111.58 119.99C111.351 119.928 111.11 119.914 110.875 119.949C110.639 119.983 110.413 120.065 110.21 120.19C109.738 120.48 109.321 120.853 108.981 121.29C108.565 121.807 108.206 122.366 107.911 122.96C107.581 123.6 107.29 124.23 107.02 124.85C106.75 125.47 106.531 126.06 106.351 126.62C106.171 127.18 106.011 127.62 105.911 127.95C105.869 128.029 105.838 128.113 105.821 128.2L105.74 128.51C105.464 129.581 105.329 130.684 105.34 131.79C105.338 132.89 105.524 133.983 105.891 135.02C106.242 136.02 106.797 136.936 107.52 137.71C108.303 138.521 109.303 139.087 110.4 139.34C111.117 139.549 111.869 139.61 112.61 139.52C113.245 139.427 113.856 139.214 114.411 138.89C114.96 138.561 115.45 138.142 115.86 137.65C116.297 137.134 116.679 136.574 117 135.98C117.33 135.365 117.614 134.726 117.851 134.07C118.091 133.4 118.3 132.74 118.47 132.07C118.47 131.9 118.56 131.73 118.59 131.58C118.634 131.429 118.668 131.275 118.69 131.12C118.79 130.9 118.86 130.41 118.93 129.87Z" fill="white"/>
<path d="M130.039 139.77C129.958 139.54 129.817 139.336 129.629 139.18C129.429 139.009 129.198 138.877 128.949 138.79C128.687 138.69 128.42 138.603 128.149 138.53C127.342 138.323 126.513 138.213 125.679 138.2C124.789 138.2 123.959 138.2 123.189 138.2L123.429 137.28C123.759 136.05 124.099 134.83 124.429 133.64C124.759 132.45 125.149 131.23 125.429 130C125.489 129.8 125.559 129.52 125.649 129.17C125.739 128.82 125.819 128.44 125.899 128.02C125.979 127.6 126.029 127.18 126.069 126.74C126.11 126.334 126.11 125.926 126.069 125.52C126.037 125.167 125.928 124.826 125.749 124.52C125.67 124.388 125.566 124.274 125.442 124.183C125.319 124.092 125.178 124.026 125.029 123.99C124.801 123.932 124.561 123.934 124.334 123.996C124.106 124.057 123.898 124.176 123.729 124.34C123.423 124.635 123.161 124.972 122.949 125.34C122.654 125.824 122.387 126.325 122.149 126.84C121.899 127.41 121.639 128.01 121.389 128.65C121.139 129.29 120.899 129.93 120.689 130.56C120.479 131.19 120.279 131.78 120.109 132.33C119.939 132.88 119.799 133.33 119.699 133.76C119.639 133.99 119.559 134.33 119.479 134.76C119.399 135.19 119.299 135.67 119.209 136.18C119.119 136.69 119.029 137.23 118.959 137.77C118.889 138.31 118.829 138.83 118.789 139.31C118.749 139.79 118.789 140.21 118.789 140.57C118.765 140.821 118.821 141.073 118.949 141.29C119.137 141.555 119.397 141.76 119.699 141.88C119.999 142.021 120.31 142.135 120.629 142.22C121.067 142.319 121.512 142.39 121.959 142.43C122.519 142.5 123.129 142.53 123.789 142.55C124.449 142.57 125.109 142.55 125.789 142.49C126.434 142.448 127.073 142.347 127.699 142.19C128.233 142.066 128.743 141.857 129.209 141.57C129.588 141.352 129.865 140.992 129.979 140.57C130.074 140.314 130.095 140.037 130.039 139.77Z" fill="white"/>
<path d="M141.98 129.21C141.753 128.937 141.483 128.704 141.18 128.52C140.865 128.321 140.53 128.156 140.18 128.03C139.83 127.9 139.54 127.81 139.32 127.75C138.92 127.65 138.39 127.55 137.73 127.45C137.068 127.349 136.398 127.312 135.73 127.34C135.105 127.36 134.488 127.492 133.91 127.73C133.662 127.826 133.442 127.981 133.268 128.182C133.094 128.382 132.971 128.622 132.91 128.88C132.82 129.112 132.82 129.368 132.91 129.6C133.02 129.819 133.169 130.015 133.35 130.18C133.543 130.358 133.762 130.506 134 130.62C134.222 130.722 134.453 130.806 134.69 130.87L134.95 130.93H135.27C135.01 131.81 134.74 132.68 134.48 133.55C134.22 134.42 133.96 135.3 133.69 136.19C133.42 137.08 133.14 137.92 132.82 138.76C132.5 139.6 132.17 140.43 131.82 141.27C131.515 141.259 131.209 141.282 130.91 141.34C130.602 141.39 130.304 141.491 130.03 141.64C129.762 141.784 129.522 141.973 129.32 142.2C129.109 142.438 128.958 142.722 128.88 143.03C128.844 143.149 128.835 143.273 128.852 143.396C128.869 143.518 128.913 143.636 128.98 143.74C129.115 143.951 129.296 144.129 129.51 144.26C129.745 144.406 129.997 144.524 130.26 144.61C130.53 144.7 130.76 144.76 130.95 144.81C131.14 144.86 131.54 144.95 131.95 145.03C132.36 145.11 132.81 145.16 133.29 145.21C133.771 145.259 134.255 145.282 134.74 145.28C135.2 145.274 135.659 145.223 136.11 145.13C136.496 145.046 136.862 144.89 137.19 144.67C137.44 144.491 137.631 144.241 137.738 143.952C137.845 143.663 137.863 143.349 137.79 143.05C137.723 142.821 137.607 142.609 137.45 142.43C137.284 142.241 137.084 142.085 136.86 141.97C136.627 141.85 136.383 141.756 136.13 141.69H135.99C136.656 139.983 137.266 138.317 137.82 136.69C138.36 135.06 138.87 133.36 139.37 131.58C139.649 131.61 139.93 131.61 140.21 131.58C140.502 131.54 140.787 131.463 141.06 131.35C141.319 131.247 141.554 131.09 141.75 130.89C141.948 130.679 142.089 130.421 142.16 130.14C142.209 129.982 142.218 129.815 142.187 129.652C142.155 129.49 142.084 129.338 141.98 129.21Z" fill="white"/>
<path d="M155.01 138.59C155.12 138.11 155.21 137.59 155.29 137.02C155.37 136.45 155.43 135.86 155.47 135.25C155.526 134.691 155.526 134.129 155.47 133.57C155.418 133.105 155.279 132.653 155.06 132.24C154.968 132.064 154.841 131.909 154.686 131.785C154.531 131.661 154.352 131.571 154.16 131.52C154.004 131.478 153.84 131.468 153.68 131.492C153.52 131.517 153.367 131.574 153.23 131.66C152.911 131.856 152.635 132.114 152.42 132.42C152.155 132.781 151.93 133.17 151.75 133.58C151.55 134.007 151.373 134.444 151.22 134.89C151.06 135.33 150.93 135.75 150.81 136.14C150.69 136.53 150.62 136.84 150.56 137.06L150.17 138.6C150.04 139.13 149.92 139.65 149.8 140.18L149.66 140.7L149.59 140.97C149.59 141.04 149.59 141.12 149.54 141.21C149.514 141.358 149.481 141.505 149.44 141.65C149.44 141.39 149.38 141.16 149.37 140.95C149.36 140.74 149.37 140.59 149.37 140.43C149.377 140.337 149.377 140.243 149.37 140.15C149.33 139.33 149.28 138.52 149.22 137.72C149.16 136.92 149.09 136.11 149.02 135.3C148.973 134.88 148.923 134.36 148.87 133.74C148.81 133.122 148.7 132.51 148.54 131.91C148.387 131.342 148.158 130.797 147.86 130.29C147.737 130.067 147.57 129.871 147.369 129.714C147.168 129.558 146.937 129.444 146.69 129.38C146.429 129.314 146.155 129.312 145.893 129.373C145.63 129.434 145.386 129.556 145.18 129.73C144.617 130.163 144.131 130.687 143.74 131.28C143.245 132.001 142.813 132.764 142.45 133.56C142.05 134.41 141.69 135.26 141.36 136.08C141.03 136.9 140.76 137.67 140.55 138.36C140.34 139.05 140.18 139.59 140.08 139.95C139.98 140.31 139.95 140.5 139.86 140.9C139.77 141.3 139.7 141.74 139.63 142.22C139.561 142.711 139.518 143.205 139.5 143.7C139.472 144.174 139.495 144.651 139.57 145.12C139.625 145.512 139.758 145.889 139.96 146.23C140.146 146.534 140.444 146.753 140.79 146.84H140.86C140.996 146.829 141.134 146.829 141.27 146.84C141.412 146.863 141.558 146.863 141.7 146.84C142.005 146.751 142.276 146.573 142.48 146.33C142.709 146.06 142.907 145.765 143.07 145.45C143.24 145.12 143.39 144.79 143.53 144.45L143.88 143.55C144.145 142.898 144.368 142.23 144.55 141.55C144.74 140.88 144.92 140.21 145.09 139.55L145.27 138.89C145.36 139.77 145.47 140.65 145.59 141.52C145.71 142.39 145.85 143.27 145.97 144.16C146.03 144.58 146.11 145.05 146.23 145.57C146.348 146.087 146.512 146.592 146.72 147.08C146.923 147.546 147.193 147.981 147.52 148.37C147.832 148.741 148.251 149.006 148.72 149.13C148.97 149.193 149.23 149.2 149.483 149.15C149.735 149.1 149.974 148.994 150.18 148.84C150.704 148.467 151.161 148.007 151.53 147.48C151.978 146.847 152.373 146.178 152.71 145.48C153.07 144.72 153.4 143.97 153.71 143.23C154.02 142.49 154.24 141.8 154.44 141.16C154.64 140.52 154.78 140.04 154.87 139.7C154.96 139.36 154.9 139.06 155.01 138.59Z" fill="white"/>
<path d="M46.5505 92.87C48.0364 89.9543 48.3926 86.5923 47.5505 83.43C46.5505 80.06 43.3705 75.87 39.4805 75.91C37.0205 75.91 34.4805 78.96 35.9905 81.32C37.2805 83.32 40.5805 82.99 42.5005 82.27C43.8844 81.8162 45.0824 80.9232 45.9126 79.7266C46.7429 78.53 47.1599 77.0952 47.1005 75.64C47.0052 71.8431 45.5909 68.1978 43.1005 65.33C41.0205 62.94 37.1705 60.74 33.9505 62.17C31.2905 63.35 32.3105 66.48 34.0705 67.97C36.8905 70.36 40.5505 69.3 42.6705 66.56C45.6105 62.75 44.5605 57.95 41.3905 54.66C40.5005 53.73 39.0805 55.15 39.9805 56.07C42.1505 58.33 43.2805 61.46 41.7105 64.39C40.7105 66.17 38.7105 67.94 36.5905 67.17C35.7705 66.88 33.3105 65.02 34.5905 64.06C35.4405 63.43 37.1405 63.82 38.0305 64.12C39.2174 64.553 40.2861 65.2586 41.1505 66.18C43.0907 68.2117 44.3942 70.7666 44.9005 73.53C45.3305 75.71 45.3505 78.09 43.4205 79.53C42.7239 80.0794 41.9142 80.4675 41.0496 80.6664C40.185 80.8652 39.2871 80.8699 38.4205 80.68C36.8205 80.16 37.9205 78.15 39.1905 77.92C39.8387 77.899 40.4839 78.0156 41.0837 78.262C41.6836 78.5085 42.2244 78.8793 42.6705 79.35C44.1707 80.6722 45.2401 82.4139 45.7405 84.35C46.2957 86.8839 45.9639 89.5315 44.8005 91.85C44.2105 92.99 45.9405 94.01 46.5305 92.85L46.5505 92.87Z" fill="black"/>
<path d="M17.1497 170.69C17.1497 170.69 4.79973 164.46 1.50973 152.15C-1.78027 139.84 12.1197 137.63 17.1497 149.21C17.1497 149.21 24.5297 134.05 32.1497 145.68C37.1397 153.3 17.1497 170.69 17.1497 170.69Z" fill="#FF4D88"/>
<path d="M17.6505 169.83C12.8634 167.313 8.78529 163.634 5.79046 159.13C3.58046 155.79 1.33047 151.13 2.16047 147.04C2.37033 145.758 3.04529 144.599 4.05627 143.783C5.06725 142.968 6.34331 142.554 7.64046 142.62C11.7405 142.73 14.7405 146.24 16.2805 149.71C16.3684 149.862 16.4945 149.987 16.6464 150.075C16.7982 150.162 16.9703 150.208 17.1455 150.208C17.3207 150.208 17.4928 150.162 17.6446 150.075C17.7964 149.987 17.9226 149.862 18.0105 149.71C19.0569 147.518 20.5248 145.554 22.3305 143.93C22.8918 143.37 23.5676 142.938 24.3115 142.663C25.0554 142.389 25.8499 142.279 26.6405 142.34C28.7405 142.68 30.6405 144.8 31.5405 146.62C32.9505 149.49 30.7605 153.23 29.2705 155.62C27.0776 158.981 24.5406 162.105 21.7005 164.94C20.0105 166.69 18.2705 168.4 16.4405 170C15.4405 170.84 16.8905 172.25 17.8505 171.41C23.0654 167.052 27.5842 161.923 31.2505 156.2C33.0405 153.2 34.9705 149.2 33.3305 145.77C31.3305 141.69 26.8105 138.82 22.5705 141.3C19.8168 143.126 17.6334 145.69 16.2705 148.7H18.0005C16.3805 145.07 13.4105 141.7 9.38047 140.84C7.85743 140.44 6.24724 140.529 4.77755 141.094C3.30786 141.66 2.05303 142.673 1.19047 143.99C-1.09953 147.75 0.290467 152.62 1.94047 156.32C3.90819 160.513 6.77626 164.221 10.3405 167.18C12.2599 168.879 14.3708 170.349 16.6305 171.56C17.7905 172.14 18.8005 170.41 17.6505 169.83Z" fill="black"/>
</g>
<defs>
<clipPath id="clip0_3192_13182">
<rect width="178.31" height="211.13" fill="white"/>
</clipPath>
</defs>
</svg>
