<svg width="186" height="188" viewBox="0 0 186 188" fill="none" xmlns="http://www.w3.org/2000/svg">
<g clip-path="url(#clip0_3195_13235)">
<path d="M41.0307 79.17C41.0307 79.17 82.0307 167.94 99.0307 181.05C116.031 194.16 184.031 156.17 181.031 136.17C178.801 121.3 139.961 2.11 110.031 4.17C81.0307 6.17 42.0307 32.17 34.0307 43.17C26.0307 54.17 41.0307 79.17 41.0307 79.17Z" fill="#D7F9DD"/>
<path d="M181.031 136.17C180.223 132.046 179.188 127.97 177.931 123.96C170.251 128.68 156.601 137.27 141.771 147.58C115.031 166.17 84.5307 148.67 108.531 123.88C132.531 99.09 142.531 79.67 121.891 87.93C101.251 96.19 80.5307 88.67 83.1807 75.17C85.8307 61.67 121.551 53.66 114.591 39.01C107.631 24.36 77.5906 48.67 66.3206 43.14C59.6306 39.84 59.5707 30.03 60.6407 22.36C47.9007 29.94 37.7207 38.13 34.0307 43.17C26.0307 54.17 41.0307 79.17 41.0307 79.17C41.0307 79.17 82.0307 167.94 99.0307 181.05C116.031 194.16 184.031 156.17 181.031 136.17Z" fill="#B4DBBA"/>
<path d="M40.1894 79.66C41.5094 82.52 42.8594 85.36 44.1894 88.21C47.5228 95.23 50.9295 102.23 54.4095 109.21C58.8895 118.21 63.4595 127.13 68.2095 135.97C72.8395 144.6 77.6195 153.17 82.7895 161.49C86.6195 167.66 90.6095 174 95.6395 179.28C97.331 181.212 99.4555 182.716 101.839 183.67C104.958 184.675 108.252 185.016 111.509 184.67C120.359 184.03 128.999 180.92 137.049 177.37C146.3 173.314 155.062 168.225 163.169 162.2C169.539 157.43 176.239 151.82 180.049 144.68C181.47 142.261 182.165 139.483 182.049 136.68C181.838 134.917 181.497 133.173 181.029 131.46C179.549 125.53 177.729 119.69 175.849 113.87C173.136 105.47 170.223 97.1367 167.109 88.87C163.589 79.5 159.839 70.22 155.779 61.08C151.779 52.08 147.499 43.21 142.649 34.65C138.684 27.3665 133.993 20.5017 128.649 14.16C124.849 9.81 120.189 5.31 114.479 3.69C110.969 2.69 107.269 3.34 103.739 3.94C97.4709 5.0556 91.3278 6.78733 85.3995 9.11C73.2693 13.809 61.7334 19.9176 51.0295 27.31C46.7688 30.1606 42.697 33.2838 38.8395 36.66C36.1095 39.11 33.1194 41.84 31.7494 45.33C29.9794 49.88 30.6795 55.14 31.8095 59.74C33.0645 64.5477 34.8138 69.2126 37.0295 73.66C38.0295 75.66 39.0295 77.72 40.1995 79.66C40.3451 79.8602 40.5598 79.9993 40.802 80.0504C41.0442 80.1014 41.2968 80.0608 41.5109 79.9363C41.7249 79.8119 41.8851 79.6125 41.9606 79.3768C42.0361 79.141 42.0214 78.8856 41.9195 78.66C38.1767 72.4987 35.3884 65.8062 33.6495 58.81C32.6495 54.44 31.9194 49.21 34.0694 45.05C35.7194 41.86 38.8495 39.28 41.5295 36.98C50.3684 29.6134 60.0212 23.2822 70.2995 18.11C81.5595 12.27 93.7695 7.22 106.429 5.54C109.529 5.12 112.249 4.91 115.169 5.99C117.58 6.96134 119.808 8.33411 121.759 10.05C127.269 14.66 131.609 20.66 135.509 26.66C140.428 34.3775 144.864 42.3929 148.789 50.66C153.099 59.54 157.029 68.6 160.699 77.76C164.173 86.4267 167.429 95.1667 170.469 103.98C172.879 110.98 175.169 117.98 177.229 125.05C177.929 127.46 178.609 129.88 179.229 132.32C179.701 133.891 180.013 135.506 180.159 137.14C180.1 139.833 179.271 142.453 177.769 144.69C175.802 147.829 173.432 150.697 170.719 153.22C163.898 159.657 156.271 165.183 148.029 169.66C139.719 174.477 130.84 178.239 121.599 180.86C117.823 181.941 113.933 182.578 110.009 182.76C107.056 182.988 104.092 182.497 101.369 181.33C99.2753 180.134 97.4342 178.541 95.9495 176.64C93.7982 174.115 91.7948 171.467 89.9495 168.71C84.8995 161.38 80.3995 153.71 76.0395 145.93C71.1495 137.23 66.4794 128.4 61.9394 119.52C57.8794 111.593 53.9128 103.627 50.0395 95.62C47.6395 90.6667 45.2761 85.71 42.9495 80.75L41.9495 78.7C41.3695 77.5 39.6494 78.51 40.1894 79.66Z" fill="black"/>
<path d="M76.1908 36.66C77.7308 39.5333 79.2609 42.4167 80.7809 45.31C84.7009 52.71 88.5875 60.1233 92.4408 67.55C97.6742 77.6233 102.844 87.7267 107.951 97.86C113.424 108.68 118.794 119.553 124.061 130.48C128.781 140.31 133.411 150.19 137.721 160.21C138.181 161.28 138.631 162.36 139.091 163.44C139.551 164.52 141.511 164.09 141.011 162.91C136.921 153.12 132.461 143.49 127.911 133.91C122.701 122.91 117.331 112.08 111.911 101.23C106.658 90.85 101.364 80.4933 96.0309 70.16C91.9509 62.28 87.8375 54.4133 83.6908 46.56C82.4042 44.1133 81.1076 41.6633 79.8009 39.21C79.2109 38.09 78.6809 36.88 77.9909 35.82L77.9109 35.67C77.3109 34.53 75.5808 35.54 76.1908 36.67V36.66Z" fill="black"/>
<path d="M140.709 180.48L157.119 175.03C158.329 174.62 157.809 172.69 156.579 173.1L140.179 178.55C138.959 178.96 139.479 180.89 140.709 180.48Z" fill="black"/>
<path d="M149.37 181.66C149.887 181.327 150.425 181.027 150.98 180.76L151.4 180.57H151.33H151.44L151.64 180.49C151.93 180.38 152.23 180.27 152.53 180.18C152.656 180.145 152.775 180.086 152.879 180.005C152.983 179.925 153.07 179.824 153.135 179.71C153.2 179.596 153.242 179.47 153.258 179.34C153.274 179.209 153.265 179.077 153.23 178.95C153.195 178.822 153.135 178.702 153.054 178.598C152.973 178.493 152.871 178.406 152.756 178.341C152.641 178.276 152.514 178.234 152.382 178.218C152.25 178.203 152.117 178.214 151.99 178.25C150.708 178.65 149.487 179.222 148.36 179.95C148.232 180.008 148.118 180.091 148.025 180.196C147.932 180.3 147.862 180.423 147.819 180.556C147.776 180.69 147.762 180.83 147.777 180.969C147.792 181.109 147.837 181.243 147.907 181.364C147.977 181.485 148.072 181.59 148.186 181.672C148.299 181.754 148.428 181.811 148.565 181.84C148.702 181.869 148.844 181.868 148.98 181.839C149.117 181.81 149.247 181.752 149.36 181.67L149.37 181.66Z" fill="black"/>
<path d="M56.2406 20.36C62.1402 16.0647 68.9259 13.1433 76.1006 11.81C77.3606 11.58 76.8306 9.65 75.5706 9.88C68.2227 11.2599 61.2745 14.2592 55.2306 18.66C54.2306 19.41 55.2306 21.14 56.2306 20.38L56.2406 20.36Z" fill="black"/>
<path d="M59.4801 12.58C61.7517 11.3898 64.1285 10.4123 66.5801 9.66C66.708 9.62535 66.8277 9.56564 66.9323 9.48434C67.0369 9.40304 67.1243 9.30176 67.1894 9.18639C67.2545 9.07102 67.2961 8.94386 67.3117 8.81229C67.3272 8.68073 67.3165 8.54738 67.2801 8.42C67.1997 8.16863 67.0232 7.95924 66.789 7.83749C66.5549 7.71573 66.2821 7.69147 66.0301 7.77C63.4164 8.56308 60.8822 9.59753 58.4601 10.86C58.3464 10.9262 58.2468 11.0141 58.1671 11.1188C58.0874 11.2236 58.0292 11.343 57.9957 11.4703C57.9623 11.5975 57.9543 11.7302 57.9722 11.8605C57.9901 11.9909 58.0336 12.1165 58.1001 12.23C58.2353 12.4553 58.4538 12.6184 58.7083 12.6839C58.9628 12.7494 59.2329 12.7121 59.4601 12.58H59.4801Z" fill="black"/>
<path d="M72.0309 52.1C80.0309 51.03 84.0309 57.17 83.0309 63.17C82.5409 66.09 76.1109 71.17 69.0309 75.24V75.17C64.0309 63.17 59.0309 57.17 59.0309 57.17L58.9609 57.03C63.9309 54.35 69.0309 52.51 72.0309 52.1Z" fill="#FFCD2E"/>
<path d="M69.0297 75.17V75.24C61.6197 79.52 53.5497 82.71 51.0297 81.17C46.0297 78.17 45.0297 74.17 45.0297 74.17C43.1697 67.98 50.8997 61.4 58.9597 57.03L59.0297 57.17C59.0297 57.17 64.0297 63.17 69.0297 75.17Z" fill="#6464F4"/>
<path opacity="0.25" d="M55.6907 73.92C51.7807 73.54 49.1707 69.63 47.5407 65.8C45.3307 68.51 44.2107 71.38 45.0507 74.17C45.0507 74.17 46.0507 78.17 51.0507 81.17C53.6107 82.71 61.6807 79.52 69.0507 75.24C76.0507 71.16 82.5207 66.09 83.0507 63.17C83.3085 61.6592 83.2369 60.1106 82.8407 58.63C76.0307 63.93 61.5907 74.48 55.6907 73.92Z" fill="black"/>
<path d="M58.4801 56.17C54.4919 58.2074 50.8585 60.875 47.7201 64.07C45.3901 66.58 43.3301 69.85 43.8701 73.42C44.2678 75.4595 45.2392 77.3433 46.6701 78.85C47.8568 80.3172 49.3659 81.491 51.0801 82.28C52.2917 82.6295 53.573 82.6605 54.8001 82.37C58.8001 81.68 62.7401 79.76 66.3401 77.89C70.5176 75.7512 74.4821 73.2197 78.1801 70.33C80.3301 68.63 83.4201 66.33 84.0101 63.44C84.3249 61.9199 84.3111 60.3502 83.9696 58.8359C83.6281 57.3216 82.9668 55.8978 82.0301 54.66C76.1801 47.22 65.0301 52.66 58.5301 56.13C57.3901 56.74 58.4001 58.46 59.5301 57.85C62.9783 55.9192 66.6532 54.4244 70.4701 53.4C73.3801 52.68 76.6301 52.67 79.1201 54.56C80.155 55.3989 80.9777 56.4698 81.5215 57.686C82.0653 58.9022 82.3149 60.2294 82.2501 61.56C82.2501 64.28 80.2501 66.02 78.2501 67.71C75.1889 70.2845 71.887 72.5583 68.3901 74.5C64.932 76.5678 61.2733 78.2798 57.4701 79.61C56.1395 80.1221 54.7477 80.4583 53.3301 80.61C52.7019 80.6286 52.0766 80.5174 51.4933 80.2834C50.91 80.0494 50.3812 79.6976 49.9401 79.25C48.1503 77.9338 46.7899 76.1176 46.0301 74.03C45.0901 71.03 46.8001 68.1 48.7301 65.91C51.8201 62.6461 55.45 59.9398 59.4601 57.91C60.6101 57.28 59.6101 55.55 58.4801 56.17Z" fill="black"/>
<path d="M58.3399 57.88L58.5798 58.17C58.4398 57.99 58.6898 58.32 58.5798 58.17L58.7199 58.34L59.0999 58.86C59.8799 59.94 60.6198 61.05 61.3198 62.18C63.9326 66.4106 66.1999 70.8449 68.0999 75.44C68.5899 76.61 70.5199 76.09 70.0199 74.91C68.0677 70.1456 65.7265 65.55 63.0199 61.17C62.0336 59.528 60.9379 57.9545 59.7399 56.46C58.9099 55.46 57.5098 56.89 58.3198 57.88H58.3399Z" fill="black"/>
<path d="M72.0308 82.17C75.8823 87.5994 79.1725 93.4059 81.8508 99.5C76.5608 102.36 71.0308 104.42 68.0308 104.66C60.0308 105.2 59.0308 100.2 59.0308 100.2C56.0308 95.17 60.0308 89.17 72.0308 82.17Z" fill="#6464F4"/>
<path d="M95.0293 86.17C95.7793 90.29 89.0293 95.63 81.8493 99.5C79.171 93.4059 75.8807 87.5994 72.0293 82.17C84.0293 75.17 93.0293 75.17 95.0293 86.17Z" fill="#FFCD2E"/>
<g opacity="0.25">
<path d="M94.9191 85.57C92.0345 88.1105 88.851 90.2899 85.4391 92.06C80.1291 94.92 74.5891 96.98 71.6191 97.19C63.6191 97.73 62.6191 92.73 62.6191 92.73C62.0827 91.8504 61.7607 90.857 61.6791 89.83C58.0291 93.66 57.2091 97.1 59.0291 100.17C59.0291 100.17 60.0291 105.17 68.0291 104.63C71.0291 104.42 76.5391 102.36 81.8491 99.5C89.0291 95.66 95.7991 90.29 95.0291 86.17C95.0291 85.96 94.9691 85.77 94.9191 85.57Z" fill="black"/>
</g>
<path d="M71.5496 81.31C67.5314 83.4786 63.8551 86.2282 60.6396 89.47C58.8096 91.47 57.1696 93.93 57.0996 96.72C57.1645 98.3739 57.6313 99.987 58.4596 101.42C58.9962 102.423 59.7492 103.295 60.6641 103.971C61.5791 104.647 62.633 105.111 63.7496 105.33C67.6396 106.25 71.4996 105.14 75.1196 103.73C79.9802 101.871 84.5813 99.3936 88.8096 96.36C91.6396 94.29 95.3696 91.43 96.0196 87.73C96.5196 84.88 94.8596 81.18 92.9296 79.13C87.2296 73.13 77.2796 77.99 71.5496 81.31C71.3494 81.4556 71.2103 81.6703 71.1592 81.9125C71.1082 82.1548 71.1488 82.4073 71.2733 82.6214C71.3977 82.8354 71.5971 82.9956 71.8328 83.0711C72.0686 83.1466 72.324 83.132 72.5496 83.03C75.6892 81.0899 79.1046 79.6367 82.6796 78.72C85.1196 78.17 87.8796 78.05 90.0996 79.39C92.3196 80.73 93.5596 83.54 94.0196 86.1C94.5896 89.25 91.0896 92.1 88.9296 93.77C85.314 96.5588 81.3674 98.8898 77.1796 100.71C73.9196 102.18 70.2996 103.71 66.6596 103.71C64.3896 103.71 61.8096 103.07 60.5096 101.04C59.8882 100.056 59.4385 98.9743 59.1796 97.84C58.6996 95.33 60.2596 92.93 61.8496 91.15C64.8496 87.8 68.7196 85.32 72.5496 83.07C72.6652 83.0043 72.7667 82.9166 72.8483 82.8117C72.93 82.7068 72.9901 82.5868 73.0254 82.4587C73.0607 82.3306 73.0704 82.1967 73.054 82.0648C73.0375 81.9329 72.9953 81.8056 72.9296 81.69C72.864 81.5744 72.7762 81.4729 72.6713 81.3913C72.5664 81.3097 72.4464 81.2495 72.3183 81.2142C72.1902 81.1789 72.0563 81.1692 71.9244 81.1856C71.7925 81.2021 71.6652 81.2443 71.5496 81.31Z" fill="black"/>
<path d="M71.1904 82.66C75.1087 88.0573 78.4094 93.877 81.0305 100.01C81.5405 101.18 83.2604 100.17 82.7504 99.01C80.1372 92.8731 76.8361 87.0526 72.9105 81.66C72.1605 80.66 70.4204 81.66 71.1904 82.66Z" fill="black"/>
<path d="M100.03 103.17C108.03 103.17 110.85 110.24 110.03 115.17C109.51 118.28 102.52 123.29 95.0896 127.37C93.0896 117.58 85.5996 107.81 85.5996 107.81C91.2296 104.99 96.9296 103.17 100.03 103.17Z" fill="#FFCD2E"/>
<path d="M85.6209 107.81C85.6209 107.81 93.1609 117.58 95.1109 127.37C88.2109 131.16 80.9409 134.17 78.0509 134.17C72.0509 134.17 70.0509 125.17 70.0509 125.17C68.2209 119.07 76.8209 112.22 85.6209 107.81Z" fill="#6464F4"/>
<g opacity="0.25">
<path d="M98.9006 117.55C92.0006 121.34 84.7306 124.35 81.8406 124.35C76.6106 124.35 74.4206 117.52 73.9506 115.76C70.8706 118.82 69.1306 122.09 70.0506 125.17C70.0506 125.17 72.0506 134.17 78.0506 134.17C80.9406 134.17 88.2106 131.17 95.1106 127.37C102.541 123.29 109.531 118.28 110.051 115.17C110.295 113.591 110.196 111.978 109.761 110.44C106.361 113.131 102.727 115.511 98.9006 117.55Z" fill="black"/>
</g>
<path d="M85.1202 106.95C80.5361 109.099 76.35 112.01 72.7402 115.56C70.3102 118.12 68.1702 121.49 69.0102 125.16C70.0102 129.52 72.8902 135.16 78.0102 135.16C79.5692 135.062 81.1039 134.725 82.5602 134.16C84.6915 133.434 86.7842 132.6 88.8302 131.66C93.7851 129.431 98.5365 126.774 103.03 123.72C104.903 122.476 106.666 121.074 108.3 119.53C109.445 118.541 110.336 117.293 110.9 115.89C111.75 113.2 110.9 109.76 109.57 107.39C104.27 98.26 92.2402 103.39 85.1202 106.96C83.9602 107.53 84.9702 109.26 86.1202 108.68C89.9668 106.608 94.1082 105.138 98.4002 104.32C99.9387 104.022 101.528 104.12 103.018 104.605C104.508 105.089 105.851 105.944 106.92 107.09C108.594 109.128 109.396 111.744 109.15 114.37C108.89 117.3 105.37 119.58 103.23 121.14C99.4256 123.831 95.4129 126.215 91.2302 128.27C87.6755 130.204 83.9198 131.743 80.0302 132.86C78.8375 133.227 77.5578 133.195 76.3849 132.769C75.212 132.343 74.2099 131.546 73.5302 130.5C72.4083 128.911 71.5912 127.127 71.1202 125.24C70.2802 122.15 71.8702 119.47 73.9202 117.24C77.3002 113.57 81.7302 110.9 86.1402 108.66C87.2702 108.09 86.2602 106.37 85.1202 106.95Z" fill="black"/>
<path d="M84.7597 108.32C86.1984 110.235 87.5143 112.239 88.6997 114.32C91.2323 118.439 93.0733 122.946 94.1497 127.66C94.3997 128.92 96.3297 128.38 96.0697 127.13C94.9772 122.336 93.1166 117.75 90.5598 113.55C89.3404 111.388 87.9774 109.31 86.4797 107.33C85.7097 106.33 83.9697 107.33 84.7597 108.33V108.32Z" fill="black"/>
<path d="M120.029 133.17C126.029 137.17 125.029 144.24 121.029 147.17C116.969 149.845 112.755 152.28 108.409 154.46C106.005 148.838 103.205 143.395 100.029 138.17C104.029 135.81 116.289 130.66 120.029 133.17Z" fill="#FFCD2E"/>
<path d="M100.03 138.17C103.208 143.411 106.008 148.871 108.41 154.51C103.2 157.23 98.0101 159.67 96.0301 160.17C92.0301 161.17 86.7601 159.23 85.0301 153.17C83.0301 146.17 95.4801 140.85 100.03 138.17Z" fill="#6464F4"/>
<g opacity="0.25">
<path d="M112.729 147.37C107.519 150.09 102.329 152.53 100.349 153.03C96.3493 154.03 91.0793 152.09 89.3493 146.03C89.2318 145.626 89.1613 145.21 89.1393 144.79C86.1993 147.18 84.1393 150 85.0493 153.17C86.7793 159.23 92.0493 161.17 96.0493 160.17C98.0493 159.67 103.219 157.23 108.429 154.51C112.768 152.329 116.976 149.895 121.029 147.22C122.012 146.461 122.812 145.493 123.373 144.386C123.933 143.279 124.239 142.061 124.269 140.82C121.809 142.45 117.259 145.01 112.729 147.37Z" fill="black"/>
</g>
<path d="M100.549 139.03C102.981 137.662 105.527 136.508 108.159 135.58C110.977 134.389 113.976 133.686 117.029 133.5C120.029 133.5 122.389 136.03 123.089 138.85C123.424 140.249 123.345 141.714 122.862 143.069C122.379 144.424 121.513 145.609 120.369 146.48C117.09 148.74 113.644 150.746 110.059 152.48C106.09 154.698 102.004 156.701 97.8191 158.48C95.1891 159.55 92.5091 159.81 89.9591 158.3C87.4091 156.79 85.2091 153.43 85.9591 150.48C86.7091 147.53 89.9091 145.24 92.4191 143.63C94.9291 142.02 97.8391 140.63 100.519 139.02C100.719 138.874 100.858 138.66 100.909 138.417C100.961 138.175 100.92 137.923 100.795 137.709C100.671 137.495 100.472 137.334 100.236 137.259C100 137.183 99.7447 137.198 99.5191 137.3C96.7791 138.89 93.9291 140.25 91.2791 141.98C88.6291 143.71 85.6891 145.9 84.3991 148.98C83.0091 152.22 84.4491 155.91 86.7591 158.36C87.9016 159.552 89.3215 160.442 90.8919 160.952C92.4623 161.461 94.1344 161.574 95.7591 161.28C97.3113 160.905 98.8147 160.352 100.239 159.63C102.649 158.57 105.009 157.4 107.359 156.2C111.942 153.947 116.389 151.43 120.679 148.66C122.138 147.787 123.336 146.539 124.148 145.045C124.961 143.552 125.358 141.868 125.299 140.169C125.24 138.47 124.726 136.818 123.812 135.384C122.897 133.951 121.615 132.789 120.099 132.02C117.099 130.57 112.859 131.9 109.879 132.84C106.283 133.932 102.819 135.417 99.5491 137.27C99.3157 137.403 99.1445 137.622 99.0733 137.881C99.002 138.14 99.0365 138.417 99.1691 138.65C99.3017 138.883 99.5216 139.055 99.7804 139.126C100.039 139.197 100.316 139.163 100.549 139.03Z" fill="black"/>
<path d="M99.1902 138.66C102.368 143.802 105.136 149.185 107.47 154.76C107.505 154.887 107.564 155.005 107.645 155.109C107.725 155.213 107.826 155.3 107.94 155.365C108.054 155.43 108.18 155.472 108.311 155.488C108.441 155.504 108.573 155.495 108.7 155.46C108.954 155.388 109.17 155.218 109.299 154.987C109.428 154.757 109.461 154.485 109.39 154.23C107.01 148.49 104.174 142.949 100.91 137.66C100.24 136.56 98.5002 137.57 99.1902 138.66Z" fill="black"/>
<path d="M123.031 25.17C128.031 25.52 133.031 29.8 132.031 35.17C131.091 40.34 124.171 46.17 116.521 50.61C113.883 43.7679 109.928 37.5098 104.881 32.19C105.101 32.06 105.321 31.93 105.551 31.81C112.281 28.15 117.841 24.8 123.031 25.17Z" fill="#FFCD2E"/>
<path d="M104.9 32.19C109.953 37.5245 113.908 43.8001 116.54 50.66C107.94 55.66 98.4104 58.81 95.4504 57.22C93.1186 55.8861 91.2039 53.9298 89.9204 51.57C89.202 50.3259 88.8838 48.8908 89.0091 47.4596C89.1343 46.0285 89.6969 44.6705 90.6204 43.57C94.6478 38.9388 99.4872 35.0822 104.9 32.19Z" fill="#6464F4"/>
<g opacity="0.25">
<path d="M117.549 42.11C108.949 47.11 99.4192 50.26 96.4592 48.67C94.1738 47.345 92.2956 45.4184 91.0292 43.1C90.9092 43.24 90.7792 43.38 90.6692 43.52C89.7457 44.6205 89.1831 45.9785 89.0579 47.4096C88.9327 48.8408 89.2509 50.2759 89.9692 51.52C91.2528 53.8798 93.1674 55.8361 95.4992 57.17C98.4992 58.76 107.989 55.58 116.589 50.61C124.239 46.18 131.159 40.34 132.099 35.17C132.391 33.5895 132.16 31.9568 131.439 30.52C128.709 34.59 123.339 38.75 117.549 42.11Z" fill="black"/>
</g>
<path d="M104.401 31.33C100.55 33.4486 96.9508 35.9947 93.6708 38.92C91.3408 41.04 88.5907 43.52 88.0907 46.78C87.4907 50.78 90.0907 54.49 93.0907 56.83C94.1872 57.8101 95.5671 58.416 97.0307 58.56C98.4655 58.6123 99.9003 58.4574 101.291 58.1C105.514 57.0467 109.591 55.4783 113.431 53.43C117.732 51.2948 121.784 48.6889 125.511 45.66C128.421 43.25 131.421 40.31 132.691 36.66C133.231 35.0114 133.276 33.2407 132.821 31.5667C132.366 29.8926 131.431 28.3885 130.131 27.24C128.581 25.8824 126.715 24.935 124.704 24.4843C122.694 24.0336 120.602 24.094 118.621 24.66C113.621 25.88 108.811 28.78 104.401 31.37C104.201 31.5156 104.061 31.7303 104.01 31.9725C103.959 32.2148 104 32.4673 104.124 32.6814C104.249 32.8954 104.448 33.0556 104.684 33.1311C104.92 33.2066 105.175 33.192 105.401 33.09C108.976 30.8791 112.729 28.9692 116.621 27.38C119.791 26.19 123.261 25.6 126.421 27.14C129.351 28.57 131.661 31.54 131.091 34.95C130.541 38.14 127.951 40.82 125.661 42.95C119.459 48.4318 112.2 52.5839 104.331 55.15C102.041 55.92 98.8708 57.15 96.4208 56.47C94.9077 55.878 93.5863 54.8817 92.6008 53.59C91.3268 52.3063 90.4367 50.6924 90.0307 48.93C89.4907 45.35 92.4507 42.75 94.8307 40.55C98.0471 37.6524 101.587 35.1357 105.381 33.05C105.571 32.9024 105.701 32.6912 105.748 32.4553C105.795 32.2194 105.755 31.9745 105.636 31.7655C105.517 31.5565 105.326 31.3974 105.099 31.3174C104.873 31.2375 104.625 31.2419 104.401 31.33Z" fill="black"/>
<path d="M104.181 32.89C109.16 38.0565 113.038 44.1802 115.581 50.89C116.041 52.07 117.981 51.56 117.501 50.36C114.85 43.3273 110.802 36.9047 105.601 31.48C105.508 31.3868 105.397 31.3128 105.275 31.2623C105.153 31.2119 105.023 31.1859 104.891 31.1859C104.759 31.1859 104.628 31.2119 104.507 31.2623C104.385 31.3128 104.274 31.3868 104.181 31.48C104.088 31.5732 104.014 31.6839 103.963 31.8058C103.913 31.9276 103.887 32.0581 103.887 32.19C103.887 32.4563 103.993 32.7117 104.181 32.9V32.89Z" fill="black"/>
<path d="M132.8 51.98C142.03 49.17 145.03 56.17 145.03 62.17C145.03 65.27 136.2 71.32 126.89 76.02C125.75 66.02 118.17 58.31 118.17 58.15C122.864 55.6841 127.758 53.6201 132.8 51.98Z" fill="#FFCD2E"/>
<path d="M118.19 58.15C118.19 58.31 125.77 65.97 126.91 76.02C118.23 80.41 109.14 83.62 106.42 82.17C100.8 79.17 101.05 74.17 101.05 74.17C101.03 68.66 109.54 62.66 118.19 58.15Z" fill="#6464F4"/>
<g opacity="0.25">
<path d="M129.23 67.66C120.55 72.05 111.46 75.26 108.74 73.81C106.452 72.6938 104.69 70.7273 103.83 68.33C102.1 70.33 101.05 72.33 101.05 74.2C101.05 74.2 100.8 79.2 106.42 82.2C109.14 83.65 118.23 80.44 126.91 76.05C136.22 71.32 145.03 65.27 145.03 62.17C145.035 60.7326 144.854 59.3007 144.49 57.91C141.16 60.93 135.31 64.57 129.23 67.66Z" fill="black"/>
</g>
<path d="M117.689 57.29C113.027 59.5552 108.692 62.4377 104.799 65.86C102.469 68.02 100.009 70.92 100.049 74.28C100.151 76.8589 101.269 79.2927 103.159 81.05C104.306 82.3067 105.828 83.1591 107.499 83.48C109.112 83.5723 110.729 83.3862 112.279 82.93C117.155 81.6071 121.872 79.7597 126.349 77.42C131.137 75.1405 135.715 72.4434 140.029 69.36C142.179 67.77 145.879 65.36 146.089 62.31C146.267 59.2229 145.377 56.1686 143.569 53.66C141.109 50.41 137.069 49.85 133.309 50.81C127.899 52.18 122.619 54.75 117.689 57.3C116.539 57.89 117.549 59.61 118.689 59.02C122.796 56.8675 127.054 55.016 131.429 53.48C134.429 52.48 138.039 51.48 140.799 53.64C142.889 55.26 143.799 58.09 143.979 60.64C144.095 61.1542 144.102 61.687 143.998 62.2038C143.895 62.7206 143.684 63.2099 143.379 63.64C142.456 64.8086 141.384 65.8508 140.189 66.74C136.651 69.4759 132.869 71.8794 128.889 73.92C124.64 76.2434 120.217 78.2327 115.659 79.87C113.928 80.5048 112.149 81.003 110.339 81.36C109.22 81.6702 108.038 81.6702 106.919 81.36C105.65 80.7777 104.545 79.8904 103.702 78.7772C102.859 77.6639 102.305 76.3594 102.089 74.98C101.709 72.1 103.879 69.58 105.799 67.71C109.519 64.11 114.129 61.45 118.689 59.06C119.839 58.42 118.829 56.66 117.689 57.29Z" fill="black"/>
<path d="M117.229 58.42C117.549 59.0372 117.975 59.5925 118.489 60.06C119.421 61.194 120.289 62.3791 121.089 63.61C123.622 67.3247 125.271 71.5697 125.909 76.02C126.059 77.28 128.059 77.3 127.909 76.02C127.298 71.4313 125.676 67.0355 123.159 63.15C122.286 61.7638 121.334 60.4283 120.309 59.15L119.369 58.01L119.029 57.66C118.799 57.41 119.089 57.77 119.129 57.91C119.041 57.6764 118.869 57.4841 118.647 57.3709C118.425 57.2577 118.168 57.2318 117.927 57.2982C117.687 57.3646 117.48 57.5186 117.347 57.7298C117.214 57.9411 117.165 58.1944 117.209 58.44L117.229 58.42Z" fill="black"/>
<path d="M160.029 90.17C160.619 95.45 151.239 101.41 141.769 105.44C140.529 95.66 133.529 85.16 133.529 85.16C136.898 83.607 140.416 82.4008 144.029 81.56C151.959 79.95 159.029 81.17 160.029 90.17Z" fill="#FFCD2E"/>
<path d="M133.53 85.16C133.53 85.16 140.53 95.7 141.79 105.44C135.1 108.29 128.36 110.17 125.05 110.17C117.91 110.17 116.31 104.74 116.05 102.17C115.37 95.36 124.88 89.02 133.53 85.17V85.16Z" fill="#6464F4"/>
<g opacity="0.25">
<path d="M160.03 90.06C156.53 93.17 151.09 96.15 145.62 98.47C138.93 101.32 132.19 103.2 128.88 103.2C121.74 103.2 120.14 97.77 119.88 95.2C119.84 94.7609 119.84 94.3191 119.88 93.88C117.32 96.46 115.76 99.27 116.05 102.17C116.31 104.74 117.91 110.17 125.05 110.17C128.36 110.17 135.1 108.29 141.79 105.44C151.26 101.44 160.64 95.44 160.05 90.17C160.048 90.1326 160.042 90.0956 160.03 90.06Z" fill="black"/>
</g>
<path d="M133.029 84.29C128.654 86.1702 124.561 88.6507 120.869 91.66C118.079 94.01 115.349 97.13 115.039 100.93C114.894 103.528 115.741 106.083 117.409 108.08C119.659 110.72 123.259 111.51 126.589 111.08C131.287 110.373 135.873 109.055 140.229 107.16C145.052 105.327 149.648 102.948 153.929 100.07C156.759 98.07 160.289 95.36 160.929 91.73C161.129 90.048 160.929 88.3427 160.345 86.7527C159.761 85.1627 158.81 83.7331 157.569 82.58C154.819 80.18 150.989 79.75 147.479 80.04C142.419 80.47 137.599 82.25 132.989 84.29C131.809 84.81 132.829 86.53 133.989 86.01C137.714 84.2666 141.646 83.0064 145.689 82.26C148.529 81.82 151.769 81.66 154.439 82.91C157.109 84.16 158.619 86.99 158.979 89.91C159.359 93.04 156.469 95.56 154.249 97.3C150.685 99.9633 146.81 102.183 142.709 103.91C138.478 105.845 134.071 107.372 129.549 108.47C126.479 109.19 122.959 109.72 120.179 107.85C119.301 107.205 118.567 106.383 118.025 105.437C117.483 104.492 117.143 103.444 117.029 102.36C116.549 98.66 119.369 95.51 121.959 93.27C125.591 90.2871 129.632 87.8421 133.959 86.01C135.209 85.49 134.189 83.76 133.029 84.29Z" fill="black"/>
<path d="M132.669 85.66C133.998 87.703 135.197 89.8271 136.259 92.02C138.516 96.3012 140.06 100.922 140.829 105.7C140.999 106.97 142.929 106.43 142.749 105.17C141.966 100.313 140.399 95.615 138.109 91.26C137.014 88.9813 135.772 86.7766 134.389 84.66C133.689 83.59 131.949 84.59 132.669 85.66Z" fill="black"/>
<path d="M156.03 111.17C168.03 106.17 172.03 114.17 170.03 120.17C168.97 123.36 162.03 128.24 154.79 132.11C152.55 123.05 146.32 115.38 146.32 115.38C149.62 113.84 153.03 112.44 156.03 111.17Z" fill="#FFCD2E"/>
<path d="M146.34 115.38C146.34 115.38 152.57 123.05 154.81 132.11C148.47 135.53 141.97 138.17 139.25 138.17C133.46 138.17 130.95 135.05 130.11 132.5C127.83 125.54 136.7 119.88 146.34 115.38Z" fill="#6464F4"/>
<g opacity="0.25">
<path d="M157.65 125.47C151.31 128.89 144.81 131.53 142.09 131.53C136.3 131.53 133.79 128.41 132.95 125.86C132.766 125.303 132.652 124.725 132.61 124.14C130.24 126.69 129.12 129.47 130.11 132.5C130.95 135.05 133.46 138.17 139.25 138.17C141.97 138.17 148.47 135.53 154.81 132.11C162.03 128.24 169.03 123.36 170.03 120.17C170.398 119.062 170.56 117.896 170.51 116.73C167.67 119.52 162.71 122.74 157.65 125.47Z" fill="black"/>
</g>
<path d="M145.839 114.52C141.555 116.365 137.522 118.747 133.839 121.61C131.309 123.7 128.919 126.51 128.739 129.95C128.369 136.95 136.209 140.29 142.109 138.69C146.554 137.341 150.834 135.499 154.869 133.2C159.128 131.026 163.15 128.415 166.869 125.41C169.209 123.41 171.079 121.41 171.429 118.26C171.583 117.057 171.493 115.836 171.167 114.668C170.841 113.5 170.284 112.409 169.529 111.46C167.429 108.93 164.039 108.32 160.909 108.74C158.416 109.193 155.992 109.97 153.699 111.05C151.039 112.17 148.399 113.3 145.789 114.52C144.619 115.06 145.629 116.79 146.789 116.24C148.879 115.24 150.979 114.35 153.099 113.46C155.026 112.573 157.006 111.808 159.029 111.17C161.599 110.46 164.709 110.17 167.029 111.8C167.804 112.397 168.432 113.164 168.865 114.041C169.298 114.917 169.525 115.882 169.529 116.86C169.564 118.003 169.336 119.14 168.86 120.18C168.385 121.221 167.676 122.138 166.789 122.86C163.782 125.549 160.47 127.875 156.919 129.79C153.166 131.999 149.252 133.921 145.209 135.54C142.209 136.71 139.299 137.68 136.079 136.78C134.835 136.475 133.697 135.839 132.785 134.939C131.873 134.039 131.221 132.91 130.899 131.67C130.079 128.26 132.579 125.32 134.989 123.26C138.469 120.26 142.709 118.19 146.829 116.26C148.029 115.66 147.029 113.97 145.839 114.52Z" fill="black"/>
<path d="M145.631 116.09L145.701 116.17L145.781 116.27C146.021 116.59 146.271 116.92 146.501 117.27C147.341 118.437 148.131 119.637 148.871 120.87C151.098 124.445 152.783 128.331 153.871 132.4C153.959 132.634 154.131 132.826 154.353 132.939C154.575 133.052 154.832 133.078 155.073 133.012C155.313 132.945 155.52 132.791 155.653 132.58C155.786 132.369 155.835 132.116 155.791 131.87C154.133 125.574 151.146 119.705 147.031 114.66C146.221 113.66 144.811 115.09 145.611 116.08L145.631 116.09Z" fill="black"/>
<path d="M113.141 170.18C116.201 168.273 119.257 166.36 122.311 164.44C123.401 163.76 122.401 162.03 121.311 162.72L112.151 168.46C111.061 169.14 112.061 170.87 113.151 170.18H113.141Z" fill="black"/>
<path d="M117.861 171.9C119.421 171 120.951 170.04 122.421 168.99C122.548 168.932 122.662 168.849 122.755 168.744C122.848 168.64 122.918 168.517 122.961 168.384C123.004 168.25 123.018 168.11 123.003 167.971C122.988 167.831 122.943 167.697 122.873 167.576C122.803 167.455 122.708 167.35 122.595 167.268C122.481 167.186 122.352 167.129 122.215 167.1C122.078 167.071 121.936 167.072 121.8 167.101C121.663 167.13 121.534 167.188 121.421 167.27C119.951 168.27 118.421 169.27 116.861 170.17C116.747 170.236 116.647 170.324 116.567 170.429C116.488 170.534 116.43 170.653 116.396 170.78C116.363 170.908 116.355 171.04 116.373 171.171C116.391 171.301 116.434 171.426 116.5 171.54C116.567 171.654 116.655 171.753 116.759 171.833C116.864 171.913 116.983 171.971 117.111 172.004C117.238 172.038 117.371 172.046 117.501 172.028C117.631 172.01 117.757 171.967 117.871 171.9H117.861Z" fill="black"/>
<path d="M167.969 142.83C167.609 141.27 167.249 139.72 166.899 138.16C166.829 137.904 166.66 137.687 166.429 137.555C166.199 137.424 165.925 137.39 165.669 137.46C165.413 137.53 165.196 137.699 165.065 137.93C164.933 138.161 164.899 138.434 164.969 138.69C165.329 140.25 165.679 141.8 166.039 143.36C166.11 143.616 166.279 143.833 166.509 143.965C166.74 144.096 167.013 144.13 167.269 144.06C167.525 143.99 167.743 143.821 167.874 143.59C168.005 143.359 168.04 143.086 167.969 142.83Z" fill="black"/>
<path d="M172.029 144.43C172.029 141.023 172.196 137.613 172.529 134.2C172.529 133.935 172.424 133.68 172.236 133.493C172.049 133.305 171.795 133.2 171.529 133.2C171.264 133.2 171.01 133.305 170.822 133.493C170.635 133.68 170.529 133.935 170.529 134.2C170.229 137.607 170.063 141.017 170.029 144.43C170.029 144.695 170.135 144.95 170.322 145.137C170.51 145.325 170.764 145.43 171.029 145.43C171.295 145.43 171.549 145.325 171.736 145.137C171.924 144.95 172.029 144.695 172.029 144.43Z" fill="black"/>
<path d="M148.64 139.89C152.12 138.68 155.64 137.51 159.14 136.39C160.36 135.99 159.84 134.06 158.61 134.46C155.09 135.58 151.586 136.747 148.1 137.96C146.9 138.38 147.42 140.32 148.64 139.89Z" fill="black"/>
<path d="M98.3401 136.96C98.699 136.499 99.1045 136.077 99.5501 135.7C99.6456 135.612 99.7177 135.502 99.7601 135.38C99.8205 135.263 99.8482 135.132 99.8401 135C99.8495 134.865 99.8218 134.73 99.7601 134.61C99.7153 134.489 99.6435 134.379 99.5501 134.29C99.4567 134.197 99.3458 134.124 99.224 134.074C99.1021 134.024 98.9717 133.999 98.8401 134H98.5801C98.4119 134.051 98.2578 134.14 98.1301 134.26C97.69 134.64 97.2882 135.062 96.9301 135.52C96.8374 135.613 96.764 135.724 96.7143 135.846C96.6645 135.968 96.6393 136.098 96.6401 136.23C96.6319 136.362 96.6596 136.493 96.7201 136.61C96.7585 136.734 96.8313 136.845 96.9301 136.93C97.0227 137.024 97.1331 137.1 97.255 137.151C97.3769 137.203 97.5078 137.229 97.6401 137.23H97.9001C98.0679 137.186 98.2202 137.096 98.3401 136.97V136.96Z" fill="black"/>
<path d="M94.6603 136.66C95.0003 136.34 95.3337 136.03 95.6603 135.73L95.9203 135.52L96.0403 135.42C96.0403 135.42 96.2403 135.26 96.1403 135.35C96.0403 135.44 96.1403 135.35 96.2003 135.35L96.3303 135.25L96.6303 135.03C97.3884 134.481 98.1799 133.98 99.0003 133.53C99.1278 133.472 99.2418 133.389 99.335 133.284C99.4281 133.18 99.4982 133.057 99.5409 132.924C99.5836 132.79 99.5978 132.65 99.5826 132.511C99.5675 132.371 99.5233 132.237 99.453 132.116C99.3827 131.995 99.2878 131.89 99.1744 131.808C99.061 131.726 98.9316 131.669 98.7947 131.64C98.6578 131.611 98.5163 131.612 98.3795 131.641C98.2427 131.67 98.1135 131.728 98.0003 131.81C96.2616 132.765 94.6491 133.935 93.2003 135.29C93.1071 135.383 93.0331 135.494 92.9827 135.616C92.9322 135.738 92.9062 135.868 92.9062 136C92.9062 136.132 92.9322 136.262 92.9827 136.384C93.0331 136.506 93.1071 136.617 93.2003 136.71C93.2936 136.803 93.4042 136.877 93.5261 136.928C93.6479 136.978 93.7785 137.004 93.9103 137.004C94.0422 137.004 94.1727 136.978 94.2946 136.928C94.4164 136.877 94.5271 136.803 94.6204 136.71L94.6603 136.66Z" fill="black"/>
<path d="M77.4805 138.38C78.4645 138.45 79.4518 138.3 80.3705 137.94C80.6157 137.862 80.8249 137.699 80.9604 137.48C81.0293 137.366 81.0745 137.238 81.0934 137.106C81.1123 136.974 81.1045 136.839 81.0704 136.71C80.9961 136.46 80.8323 136.247 80.6105 136.11C80.4953 136.043 80.3678 135.999 80.2355 135.982C80.1033 135.965 79.969 135.974 79.8405 136.01C79.3964 136.187 78.9333 136.311 78.4604 136.38H78.7205C78.3084 136.425 77.8926 136.425 77.4805 136.38C77.2181 136.381 76.9667 136.485 76.7805 136.67C76.686 136.763 76.6108 136.873 76.5593 136.995C76.5078 137.117 76.481 137.248 76.4805 137.38C76.481 137.512 76.5078 137.643 76.5593 137.765C76.6108 137.887 76.686 137.997 76.7805 138.09C76.9735 138.264 77.2207 138.367 77.4805 138.38Z" fill="black"/>
<path d="M76.7301 141.14C78.6014 141.786 80.5891 142.024 82.5601 141.84C82.8253 141.84 83.0797 141.735 83.2672 141.547C83.4548 141.36 83.5601 141.105 83.5601 140.84C83.5601 140.575 83.4548 140.32 83.2672 140.133C83.0797 139.945 82.8253 139.84 82.5601 139.84C81.6426 139.935 80.7177 139.935 79.8001 139.84H79.6601L79.3001 139.78L78.6501 139.65C78.183 139.543 77.7223 139.409 77.2701 139.25C77.0142 139.178 76.7403 139.211 76.5087 139.342C76.2771 139.472 76.1067 139.689 76.0351 139.945C75.9635 140.201 75.9965 140.475 76.1268 140.706C76.2572 140.938 76.4742 141.108 76.7301 141.18V141.14Z" fill="black"/>
<path d="M145.28 78.66C147.152 78.3971 149.006 78.0129 150.83 77.51C151.085 77.4397 151.303 77.2706 151.434 77.04C151.566 76.8093 151.6 76.5359 151.53 76.28C151.459 76.0241 151.29 75.8065 151.06 75.6753C150.829 75.544 150.556 75.5097 150.3 75.58C148.476 76.0829 146.622 76.4671 144.75 76.73C144.623 76.7647 144.504 76.8241 144.4 76.9047C144.296 76.9853 144.21 77.0856 144.145 77.1999C144.08 77.3141 144.038 77.4401 144.021 77.5705C144.005 77.7009 144.015 77.8333 144.05 77.96C144.084 78.0868 144.144 78.2055 144.224 78.3093C144.305 78.4131 144.405 78.5 144.519 78.565C144.634 78.63 144.76 78.6719 144.89 78.6882C145.02 78.7045 145.153 78.6949 145.28 78.66Z" fill="black"/>
<path d="M146.31 75.04L146.42 74.99L146.18 75.09C146.68 74.8862 147.204 74.7451 147.74 74.67H147.48H148.06C148.322 74.6689 148.573 74.5647 148.76 74.38C148.85 74.2837 148.92 74.1706 148.967 74.047C149.013 73.9234 149.034 73.7919 149.03 73.66C149.026 73.3962 148.918 73.1446 148.73 72.96C148.545 72.7716 148.293 72.6638 148.03 72.66C147.551 72.681 147.075 72.748 146.61 72.86C146.147 72.9654 145.697 73.1231 145.27 73.33C145.046 73.4597 144.881 73.6712 144.81 73.92C144.774 74.0485 144.765 74.1829 144.782 74.3151C144.799 74.4473 144.842 74.5748 144.91 74.69C145.042 74.9159 145.257 75.0811 145.51 75.15H145.77C145.949 75.15 146.125 75.1016 146.28 75.01L146.31 75.04Z" fill="black"/>
<path d="M55.681 95.46C55.651 95.1541 55.651 94.8459 55.681 94.54V94.81C55.7499 94.4137 55.8674 94.0275 56.0309 93.66L55.931 93.9C56.0194 93.6844 56.1264 93.477 56.2509 93.28C56.3109 93.18 56.371 93.1 56.431 93.01C56.291 93.18 56.491 92.92 56.431 93.01C56.571 92.84 56.521 92.9 56.561 92.85C56.7449 92.6583 56.8517 92.4055 56.861 92.14C56.8621 91.9414 56.8041 91.7469 56.6943 91.5814C56.5845 91.4159 56.4279 91.2868 56.2444 91.2106C56.061 91.1345 55.859 91.1147 55.6642 91.1537C55.4695 91.1928 55.2908 91.289 55.1509 91.43C54.1711 92.5253 53.6611 93.962 53.731 95.43C53.7347 95.6938 53.8425 95.9454 54.0309 96.13C54.2156 96.3184 54.4672 96.4262 54.731 96.43C54.9962 96.43 55.2505 96.3246 55.438 96.1371C55.6256 95.9496 55.731 95.6952 55.731 95.43L55.681 95.46Z" fill="black"/>
<path d="M52.7894 93.12V92.96V93.23C52.7644 93.0107 52.7644 92.7893 52.7894 92.57V92.84C52.82 92.6238 52.8771 92.4122 52.9594 92.21L52.8594 92.45C52.9194 92.2933 53.0001 92.1453 53.0994 92.01C53.1666 91.8948 53.2101 91.7673 53.2272 91.6351C53.2444 91.5029 53.2349 91.3685 53.1994 91.24C53.1242 90.9907 52.9607 90.7774 52.7394 90.64C52.6242 90.5728 52.4967 90.5294 52.3645 90.5122C52.2323 90.495 52.098 90.5045 51.9694 90.54C51.7197 90.6144 51.5061 90.7781 51.3694 91C51.2512 91.1747 51.1539 91.3626 51.0794 91.56C50.9966 91.7499 50.933 91.9475 50.8894 92.15C50.7895 92.645 50.7895 93.155 50.8894 93.65C50.9583 93.9025 51.1235 94.1179 51.3494 94.25C51.5848 94.3776 51.8593 94.4133 52.1194 94.35C52.3682 94.2788 52.5797 94.1139 52.7094 93.89C52.8395 93.6556 52.8787 93.3815 52.8194 93.12H52.7894Z" fill="black"/>
<path d="M90.4302 39.72C91.1204 38.9315 91.8655 38.193 92.6602 37.51C92.8602 37.35 93.0602 37.18 93.2602 37.03L93.3902 36.92L93.7002 36.7C94.1302 36.38 94.5802 36.08 95.0402 35.79C95.2579 35.6516 95.4137 35.4345 95.475 35.184C95.5364 34.9335 95.4986 34.6689 95.3695 34.4456C95.2404 34.2223 95.0301 34.0575 94.7823 33.9857C94.5346 33.9138 94.2688 33.9404 94.0402 34.06C92.1777 35.2365 90.4938 36.6746 89.0402 38.33C88.8519 38.5183 88.7461 38.7737 88.7461 39.04C88.7461 39.3063 88.8519 39.5617 89.0402 39.75C89.2285 39.9383 89.4839 40.0441 89.7502 40.0441C90.0165 40.0441 90.2719 39.9383 90.4602 39.75L90.4302 39.72Z" fill="black"/>
<path d="M97.7491 33.54L98.0191 33.26C98.1178 33.1753 98.1907 33.0643 98.2291 32.94C98.2882 32.822 98.319 32.6919 98.3191 32.56C98.3201 32.4247 98.2893 32.2911 98.2291 32.17C98.1879 32.047 98.1156 31.9367 98.0191 31.85L97.8191 31.69C97.6667 31.6036 97.4942 31.5588 97.3191 31.56H97.0491C96.8812 31.6044 96.7289 31.6944 96.6091 31.82L96.3291 32.09C96.2387 32.1799 96.1703 32.2894 96.1291 32.41C96.0688 32.5311 96.038 32.6647 96.0391 32.8C96.059 33.0612 96.1604 33.3096 96.3291 33.51L96.5391 33.66C96.6905 33.7499 96.863 33.7982 97.0391 33.8H97.3091C97.4748 33.7558 97.6262 33.6697 97.7491 33.55V33.54Z" fill="black"/>
<path d="M52.5394 57.22C52.8294 56.97 53.1194 56.72 53.4194 56.48L53.5294 56.4C53.3694 56.52 53.6194 56.32 53.5294 56.4L53.7493 56.23C53.9093 56.12 54.0594 56 54.2294 55.89C54.8706 55.449 55.5385 55.0483 56.2294 54.69C56.3431 54.6238 56.4427 54.5359 56.5224 54.4311C56.6021 54.3264 56.6603 54.207 56.6937 54.0797C56.7272 53.9525 56.7352 53.8198 56.7173 53.6895C56.6994 53.5591 56.6559 53.4335 56.5894 53.32C56.5232 53.2062 56.4352 53.1067 56.3305 53.027C56.2258 52.9473 56.1063 52.8891 55.9791 52.8556C55.8518 52.8222 55.7192 52.8142 55.5888 52.8321C55.4584 52.85 55.3329 52.8935 55.2194 52.96C53.7825 53.7477 52.4404 54.6972 51.2194 55.79C51.1261 55.8826 51.0521 55.9926 51.0013 56.1138C50.9506 56.2351 50.9243 56.3651 50.9238 56.4965C50.9234 56.6279 50.9487 56.7581 50.9986 56.8796C51.0485 57.0012 51.1218 57.1118 51.2144 57.205C51.3069 57.2982 51.417 57.3723 51.5382 57.423C51.6594 57.4738 51.7894 57.5001 51.9208 57.5006C52.0522 57.501 52.1825 57.4756 52.304 57.4257C52.4256 57.3759 52.5361 57.3026 52.6293 57.21L52.5394 57.22Z" fill="black"/>
<path d="M60.1392 52.87L60.8892 52.43C61.0029 52.3682 61.0992 52.2788 61.1692 52.17C61.2598 52.0757 61.3222 51.9579 61.3492 51.83C61.3845 51.699 61.3845 51.561 61.3492 51.43C61.3469 51.299 61.3089 51.171 61.2393 51.06L61.0792 50.86C60.955 50.74 60.8043 50.6509 60.6392 50.6H60.3693C60.1941 50.5988 60.0217 50.6436 59.8693 50.73L59.1193 51.17C59.0056 51.2318 58.9092 51.3212 58.8392 51.43C58.7543 51.5283 58.6928 51.6445 58.6592 51.77C58.624 51.901 58.624 52.039 58.6592 52.17C58.6605 52.3027 58.7024 52.4318 58.7792 52.54L58.9293 52.74C59.0509 52.8633 59.2026 52.9529 59.3693 53H59.6392C59.8144 53.0012 59.9868 52.9564 60.1392 52.87Z" fill="black"/>
<path d="M114.091 20.53C113.091 18.88 112.171 17.24 111.221 15.59C111.155 15.4762 111.067 15.3767 110.962 15.297C110.857 15.2173 110.738 15.1591 110.61 15.1256C110.483 15.0922 110.351 15.0842 110.22 15.1021C110.09 15.12 109.964 15.1635 109.851 15.23C109.737 15.2962 109.637 15.3841 109.558 15.4888C109.478 15.5936 109.42 15.713 109.386 15.8403C109.353 15.9675 109.345 16.1002 109.363 16.2305C109.381 16.3609 109.424 16.4865 109.491 16.6C110.491 18.25 111.411 19.89 112.361 21.54C112.499 21.7577 112.716 21.9134 112.967 21.9748C113.217 22.0362 113.482 21.9984 113.705 21.8693C113.928 21.7402 114.093 21.5299 114.165 21.2821C114.237 21.0344 114.21 20.7685 114.091 20.54V20.53Z" fill="black"/>
<path d="M118.771 20.78C117.986 17.7063 116.873 14.7258 115.451 11.89C115.315 11.6619 115.095 11.497 114.838 11.4313C114.581 11.3657 114.309 11.4048 114.081 11.54C113.854 11.6736 113.689 11.8913 113.621 12.146C113.554 12.4006 113.59 12.6716 113.721 12.9C115.066 15.5805 116.112 18.4008 116.841 21.31C116.911 21.5659 117.08 21.7835 117.311 21.9147C117.541 22.046 117.815 22.0803 118.071 22.01C118.327 21.9397 118.544 21.7706 118.676 21.54C118.807 21.3093 118.841 21.0359 118.771 20.78Z" fill="black"/>
<path d="M36.7292 57.84C36.8692 59.69 38.5392 64.14 42.7992 62.16C47.0592 60.18 44.4992 47.92 53.0492 43.16C62.0492 38.16 65.0492 32.16 62.0492 30.16C56.0292 26.13 35.6992 44.44 36.7292 57.84Z" fill="white"/>
<path d="M65.0305 28.17C65.0305 28.17 66.0305 31.17 68.0305 31.17C70.0305 31.17 75.0305 27.17 72.0305 24.17C69.0305 21.17 64.0305 26.17 65.0305 28.17Z" fill="white"/>
<path d="M1.75966 25.37C1.33966 25.7 2.0697 25.15 2.1797 25.07C2.7197 24.7 3.26968 24.34 3.83968 24.01C5.31718 23.0873 6.92048 22.3833 8.59969 21.92C9.43253 21.6393 10.3165 21.543 11.1902 21.638C12.0639 21.733 12.9066 22.0169 13.6597 22.47C15.0334 23.5141 16.0161 24.9899 16.4497 26.66C16.9467 28.1103 16.9816 29.679 16.5497 31.15C16.395 31.665 16.0796 32.117 15.6497 32.44C15.4479 32.5743 15.2192 32.663 14.9797 32.7C14.8397 32.65 15.0397 32.7 14.9797 32.7C14.5297 32.49 14.2997 31.58 14.2197 30.93C14.0926 29.7726 14.167 28.602 14.4397 27.47C14.9797 25.12 16.2797 22.47 18.7697 21.73C22.0097 20.79 25.7697 23.06 27.8497 25.39C29.1397 26.85 31.4597 30.53 29.5097 32.39C28.3697 33.46 27.0897 32.82 26.3497 31.59C25.1097 29.59 25.5397 26.84 26.5597 24.81C28.5597 20.81 32.6797 18.31 36.6697 16.65C37.8297 16.16 37.3197 14.22 36.1297 14.72C31.7097 16.57 27.1297 19.29 24.8897 23.72C24.1544 25.0095 23.7291 26.4524 23.6475 27.9346C23.566 29.4167 23.8303 30.8976 24.4197 32.26C25.4197 34.26 27.5597 35.56 29.7297 34.61C33.1797 33.1 32.3397 28.75 30.8097 26.14C28.6597 22.49 24.3496 19.52 19.9996 19.61C16.4096 19.68 13.9997 22.5 12.8897 25.68C12.0897 28 11.4397 31.91 13.2897 33.93C13.6979 34.3652 14.2463 34.6429 14.8388 34.7142C15.4312 34.7855 16.0298 34.6459 16.5297 34.32C17.2377 33.8499 17.8188 33.2125 18.2218 32.4642C18.6247 31.7159 18.8369 30.8798 18.8397 30.03C19.2497 25.46 16.3097 20.03 11.3797 19.68C7.47965 19.38 3.37965 21.68 0.379654 24C-0.620346 24.79 0.789688 26.19 1.78969 25.41L1.75966 25.37Z" fill="black"/>
<path d="M151.85 1.97C153.302 2.49456 154.635 3.30371 155.77 4.35C157.154 5.69495 158.237 7.31831 158.947 9.11281C159.658 10.9073 159.979 12.8321 159.89 14.76C159.847 17.8374 159.265 20.8835 158.17 23.76C157.579 25.7069 156.441 27.4427 154.89 28.76C154.504 29.0746 154.057 29.3044 153.576 29.4343C153.096 29.5642 152.593 29.5914 152.102 29.514C151.61 29.4366 151.14 29.2564 150.723 28.9852C150.306 28.714 149.95 28.3579 149.68 27.94C148.43 25.66 152.03 23.22 153.93 22.36C158.76 20.15 164.03 21.66 167.79 25.2C171.14 28.37 173.85 33.2 171.1 37.59C169.58 40.01 166.21 42.39 163.2 41.82C162.02 41.6 161.08 40.63 161.6 39.41C162.33 37.7 164.52 36.63 166.13 36.01C169.144 34.9075 172.379 34.5437 175.563 34.9491C178.747 35.3545 181.788 36.5173 184.43 38.34C185.5 39.07 186.5 37.34 185.43 36.62C182.655 34.7292 179.485 33.496 176.161 33.0143C172.838 32.5326 169.448 32.815 166.25 33.84C163.31 34.84 157.35 38.14 160.06 42.09C162.32 45.37 167.37 43.59 169.9 41.71C171.811 40.3821 173.2 38.4291 173.826 36.1875C174.452 33.9459 174.277 31.5562 173.33 29.43C170.83 23.66 164.46 18.89 158.03 19.32C154.2 19.57 148.81 21.77 147.58 25.85C146.74 28.65 149.44 31.18 152.06 31.45C156.59 31.93 159.22 27.04 160.42 23.45C162.24 17.93 162.86 11.27 159.74 6.07C158.159 3.43703 155.76 1.39319 152.91 0.249998L152.42 0.0799975C152.173 0.0298732 151.915 0.0751304 151.7 0.206689C151.485 0.338248 151.327 0.546378 151.259 0.789331C151.19 1.03228 151.216 1.29209 151.332 1.51663C151.447 1.74117 151.643 1.91384 151.88 2L151.85 1.97Z" fill="black"/>
<path d="M68.5196 186.46C68.5196 186.46 56.1396 187.04 53.1396 180.04C50.1396 173.04 58.2696 169.86 63.7096 174.45C63.7096 174.45 65.0696 164.8 72.1396 169.04C77.1396 172.04 68.5196 186.46 68.5196 186.46Z" fill="#FF4D88"/>
<path d="M68.52 185.46C65.3676 185.615 62.216 185.139 59.25 184.06C57.0932 183.363 55.279 181.877 54.17 179.9C53.17 177.9 53.17 175.28 55.29 174.02C57.73 172.56 60.94 173.46 63 175.16C63.51 175.57 64.55 175.54 64.67 174.71C64.8496 173.484 65.2351 172.297 65.81 171.2C66.9 169.2 68.64 168.46 70.81 169.44C71.2484 169.577 71.6446 169.823 71.9613 170.155C72.278 170.488 72.5048 170.896 72.62 171.34C72.7968 172.335 72.7696 173.356 72.54 174.34C71.9832 176.874 71.1062 179.327 69.93 181.64C69.24 183.09 68.51 184.53 67.68 185.91C67.5605 186.139 67.5338 186.404 67.6057 186.652C67.6775 186.9 67.8423 187.11 68.0656 187.239C68.2889 187.368 68.5535 187.406 68.804 187.345C69.0545 187.283 69.2716 187.128 69.41 186.91C70.23 185.53 70.97 184.09 71.66 182.64C73.0152 180.028 73.9917 177.237 74.56 174.35C74.96 171.83 74.7 169.19 72.24 167.87C69.78 166.55 66.77 166.57 64.88 168.98C63.7507 170.486 63.0245 172.255 62.77 174.12L64.44 173.68C63.284 172.645 61.891 171.912 60.3841 171.544C58.8771 171.176 57.3027 171.185 55.8 171.57C54.5269 171.923 53.4115 172.698 52.6373 173.768C51.8632 174.839 51.4762 176.141 51.54 177.46C51.9 183.69 58.26 186.36 63.6 187.1C65.2534 187.358 66.9276 187.458 68.6 187.4C69.8 187.4 69.8 185.4 68.52 185.46Z" fill="black"/>
</g>
<defs>
<clipPath id="clip0_3195_13235">
<rect width="185.89" height="187.48" fill="white"/>
</clipPath>
</defs>
</svg>
