<svg width="203" height="289" viewBox="0 0 203 289" fill="none" xmlns="http://www.w3.org/2000/svg">
<g clip-path="url(#clip0_3195_13316)">
<path d="M72.2704 159.74C74.3978 162.248 77.2904 163.987 80.503 164.69C83.7156 165.393 87.0702 165.02 90.0504 163.63C101.15 158.17 96.3204 125.74 90.9304 107.13L91.1404 107.07C91.1404 107.07 93.6404 56.57 96.6404 42.57C99.6404 28.57 103.64 21.2 116.64 28.57C128.14 35.07 120.64 134.57 126.64 140.57C132.64 146.57 145.57 133.19 165.14 129.07C177.65 126.44 186.47 130.07 191.33 135.46C192.328 136.601 193.057 137.952 193.464 139.412C193.871 140.873 193.945 142.406 193.682 143.899C193.418 145.391 192.822 146.806 191.94 148.039C191.057 149.271 189.909 150.29 188.58 151.02C185.57 152.668 182.409 154.024 179.14 155.07C164.14 160.07 142.14 172.07 137.14 201.07C132.14 230.07 116.14 236.07 109.14 246.07C105.55 251.2 104.82 256.61 105.66 265.01L105.14 265.07C61.1404 257.07 31.3804 263.3 31.3804 263.3C31.3804 257.87 30.8204 252.42 29.1404 248.07C23.7604 234.15 4.14036 212.07 10.1404 164.07L10.3804 163.95C14.3804 171.87 19.4404 177.62 24.9604 178.03C42.0604 179.28 44.7904 166.81 44.7904 166.81C50.7904 172.04 57.3804 172.81 61.4904 171.43C68.3504 169.19 72.2704 159.74 72.2704 159.74Z" fill="#FFC2BD"/>
<path d="M103.8 56.82C111.19 58.65 117.97 54.82 122.49 51.09C121.49 39.15 119.8 30.35 116.64 28.57C103.64 21.2 99.6396 28.57 96.6396 42.57C93.6396 56.57 91.1396 107.07 91.1396 107.07L90.9297 107.13C92.7625 113.532 94.1986 120.041 95.2297 126.62L103.8 56.82Z" fill="#F7A5A1"/>
<path d="M95.8204 157.2C95.6404 157.57 95.6404 157.57 94.8804 157.53C89.7505 159.257 84.8716 161.654 80.3704 164.66C77.1973 163.969 74.3461 162.237 72.2704 159.74C72.2704 159.74 68.3504 169.19 61.4904 171.43C57.3804 172.77 50.8304 172.04 44.7904 166.81C44.7904 166.81 42.0604 179.28 24.9604 178.03C19.4404 177.62 14.3904 171.87 10.3804 163.95L10.1404 164.07C4.14036 212.07 23.7604 234.15 29.1404 248.07C30.8204 252.42 31.3904 257.87 31.3804 263.3C31.3804 263.3 43.6004 260.75 63.9304 261.01C64.8604 252.51 63.6104 236.49 42.7904 231.11C19.7304 225.11 17.4704 197.7 17.4904 186.92C17.4907 186.541 17.5922 186.169 17.7845 185.842C17.9767 185.515 18.2528 185.245 18.584 185.061C18.9153 184.876 19.2898 184.784 19.6689 184.792C20.0479 184.801 20.4179 184.911 20.7404 185.11C22.5791 186.304 24.6479 187.099 26.8132 187.444C28.9784 187.788 31.1919 187.675 33.3104 187.11C41.9704 184.87 45.6504 182.26 47.2104 180.45C47.403 180.235 47.6364 180.06 47.8971 179.936C48.1578 179.812 48.4406 179.741 48.729 179.727C49.0175 179.713 49.3057 179.756 49.5772 179.855C49.8487 179.953 50.0979 180.104 50.3104 180.3C51.686 181.573 53.3237 182.529 55.1084 183.1C56.893 183.672 58.7813 183.846 60.6404 183.61C63.5104 183.25 66.3804 181.61 68.8804 179.55C69.2447 179.261 69.6935 179.1 70.1583 179.09C70.6231 179.08 71.0784 179.223 71.4546 179.496C71.8308 179.769 72.1073 180.157 72.242 180.602C72.3766 181.047 72.362 181.524 72.2004 181.96C66.7504 196.61 59.5304 222.72 70.6404 236.61C70.6404 236.61 66.6404 225.03 70.6404 207.32C74.2004 191.55 85.5804 177.12 91.6404 171.32L91.7204 171.27C92.2418 170.922 92.7043 170.494 93.0904 170L93.6104 169.58H93.4404C106.89 156.61 120.14 153.09 120.14 153.09C111.872 153.217 103.671 154.603 95.8204 157.2Z" fill="#F7A5A1"/>
<path d="M109.14 287.09H28.5195C30.2726 279.283 31.2308 271.32 31.3795 263.32C31.3795 263.32 61.1395 257.09 105.14 265.09L105.66 265.03C106.22 270.7 107.52 277.78 109.14 287.09Z" fill="#1071FF"/>
<path d="M105.66 265.01L105.14 265.07C61.1395 257.07 31.3795 263.3 31.3795 263.3C31.2322 271.306 30.2739 279.277 28.5195 287.09H39.2195L39.3295 285.94C39.8122 281.292 41.9857 276.983 45.437 273.832C48.8882 270.681 53.3768 268.908 58.0496 268.85L106.05 268.22C105.9 267.09 105.76 266.02 105.66 265.01Z" fill="#0963CE"/>
<path d="M34.269 149.59C36.959 157.82 40.7591 163.32 44.7891 166.81C44.7891 166.81 42.059 179.28 24.959 178.03C19.439 177.62 14.389 171.87 10.379 163.95C1.92902 147.36 -2.00097 121.28 3.69903 115.18C17.479 100.45 31.0991 110.8 32.2391 110.8H32.7991C28.9391 121.09 29.929 136.3 34.269 149.59Z" fill="#FFC2BD"/>
<path d="M44.7891 166.81C43.4466 165.632 42.2149 164.333 41.1091 162.93C36.0491 165.45 29.2991 166.73 22.2391 162.08C12.5291 155.69 10.639 127.5 10.439 109.79C7.92566 111.225 5.65164 113.044 3.69903 115.18C-2.00097 121.28 1.92902 147.36 10.379 163.95C14.379 171.87 19.439 177.62 24.959 178.03C42.059 179.28 44.7891 166.81 44.7891 166.81Z" fill="#F2AAAA"/>
<path d="M63.1492 105.02C62.8565 106.232 62.8191 107.492 63.0392 108.72C63.0392 108.72 65.1392 137.24 69.5892 154.38C70.0852 156.339 70.9994 158.168 72.2692 159.74C72.2692 159.74 68.3492 169.19 61.4892 171.43C57.3792 172.77 50.8292 172.04 44.7892 166.81C40.7892 163.32 36.9592 157.81 34.2692 149.59C29.9292 136.3 28.9392 121.12 32.7992 110.84C34.9092 105.21 38.4692 101.05 43.7192 99.48C58.5692 95.01 62.9092 104.96 62.9092 104.96L63.1492 105.02Z" fill="#FFC2BD"/>
<path d="M61.4902 171.43C68.3502 169.19 72.2701 159.74 72.2701 159.74C71.0359 158.204 70.1397 156.426 69.6401 154.52C61.2901 160.81 51.7101 163.76 45.4501 152.2C36.8301 136.28 39.5501 113.58 42.7601 99.8C38.0301 101.57 34.7601 105.56 32.7601 110.8C28.9001 121.08 29.8901 136.26 34.2301 149.55C36.9201 157.78 40.7202 163.28 44.7502 166.77C50.8302 172.09 57.3802 172.77 61.4902 171.43Z" fill="#F2AAAA"/>
<path d="M90.9297 107.09C96.3197 125.7 101.15 158.09 90.0497 163.59C87.0695 164.98 83.7149 165.353 80.5023 164.65C77.2897 163.947 74.3971 162.208 72.2697 159.7C70.9999 158.128 70.0857 156.299 69.5897 154.34C65.1397 137.2 63.0397 108.68 63.0397 108.68C62.8196 107.452 62.857 106.192 63.1497 104.98C65.5397 94.58 85.4097 88.98 90.4297 105.44C90.5897 106.02 90.7597 106.57 90.9297 107.09Z" fill="#FFC2BD"/>
<path d="M78.3209 144.48C72.3209 131.48 69.431 110.91 68.181 98.07C65.7164 99.6931 63.9364 102.167 63.181 105.02C62.8883 106.232 62.8508 107.492 63.0709 108.72C63.0709 108.72 65.171 137.24 69.621 154.38C70.117 156.339 71.0312 158.168 72.301 159.74C74.4284 162.248 77.321 163.987 80.5336 164.69C83.7462 165.393 87.1007 165.02 90.0809 163.63C93.1609 162.12 95.0109 158.53 95.9609 153.74C89.2809 154.7 82.3209 153.09 78.3209 144.48Z" fill="#F2AAAA"/>
<path d="M92.1409 107.09C92.7342 95.2967 93.4809 83.52 94.3809 71.76C94.9809 63.96 95.6009 56.15 96.6809 48.4C97.1325 44.9811 97.8005 41.5943 98.6809 38.26C99.6809 34.73 100.861 30.36 103.891 28.01C106.921 25.66 111.241 27.01 114.431 28.55C115.365 28.912 116.215 29.4597 116.931 30.16C117.322 30.6654 117.658 31.212 117.931 31.79C119.781 35.62 120.351 40.51 120.861 44.79C122.591 59.24 122.591 73.92 122.741 88.45C122.871 102.17 122.611 115.96 123.541 129.65C123.681 131.85 123.871 134.05 124.211 136.22C124.351 137.61 124.688 138.974 125.211 140.27C125.694 141.115 126.389 141.821 127.227 142.317C128.065 142.813 129.017 143.083 129.991 143.1C133.361 143.32 136.791 141.6 139.751 140.21C149.971 135.43 160.251 129.66 171.821 129.21C176.993 128.891 182.142 130.143 186.591 132.8C190.591 135.34 193.821 139.35 192.511 144.36C191.031 149.99 184.691 152.06 179.781 153.77C176.285 154.936 172.856 156.294 169.511 157.84C161.724 161.447 154.761 166.614 149.051 173.02C142.336 180.946 137.901 190.548 136.221 200.8C134.431 210.8 130.941 220.46 124.501 228.46C120.291 233.69 114.961 237.79 110.501 242.79C107.739 245.766 105.814 249.419 104.921 253.38C103.841 258.7 104.501 264.23 105.241 269.55C106.071 275.55 107.171 281.42 108.241 287.33L109.241 286.07H28.5209L29.5209 287.33C31.7203 278.377 32.6694 269.163 32.3409 259.95C32.2174 255.188 31.2173 250.49 29.3909 246.09C28.4709 243.97 27.3909 241.92 26.3309 239.88C23.5009 234.5 20.6309 229.15 18.2809 223.54C15.172 216.154 12.9174 208.438 11.5609 200.54C9.64665 188.465 9.50511 176.176 11.1409 164.06C11.3009 162.78 9.30087 162.8 9.14087 164.06C6.77087 183.24 8.14087 202.79 15.1409 220.93C17.4993 226.852 20.2075 232.629 23.2509 238.23C26.0509 243.52 28.9109 248.62 29.8509 254.63C30.9309 261.54 30.4509 268.71 29.5709 275.63C29.0999 279.386 28.4323 283.114 27.5709 286.8C27.5282 286.952 27.522 287.111 27.5528 287.266C27.5836 287.42 27.6504 287.566 27.7479 287.689C27.8454 287.813 27.9707 287.912 28.1138 287.978C28.2568 288.044 28.4134 288.076 28.5709 288.07H109.191C109.348 288.076 109.505 288.044 109.648 287.978C109.791 287.912 109.916 287.813 110.014 287.689C110.111 287.566 110.178 287.42 110.209 287.266C110.24 287.111 110.234 286.952 110.191 286.8C109.101 280.58 107.921 274.35 107.101 268.09C106.401 262.7 105.791 256.92 107.501 251.66C109.671 244.99 115.691 240.58 120.501 235.85C126.608 229.984 131.382 222.873 134.501 215C135.544 212.29 136.406 209.514 137.081 206.69C137.831 203.59 138.271 200.44 139.011 197.34C140.256 192.045 142.278 186.963 145.011 182.26C149.702 174.401 156.254 167.818 164.091 163.09C167.422 161.05 170.918 159.291 174.541 157.83C178.991 156.02 183.631 154.74 187.921 152.52C192.211 150.3 195.371 145.98 194.781 140.81C194.261 136.2 190.711 132.81 186.861 130.61C176.651 124.72 164.111 127.42 153.791 131.52C148.991 133.42 144.401 135.79 139.791 138.02C136.891 139.41 133.251 141.45 129.901 141.02C128.925 140.892 128.018 140.445 127.321 139.75C127.103 139.427 126.944 139.068 126.851 138.69C126.414 137.188 126.123 135.648 125.981 134.09C125.361 128.69 125.231 123.23 125.111 117.81C124.941 110.48 124.901 103.15 124.851 95.81C124.731 80.54 124.751 65.2 123.441 49.98C123.123 44.613 122.275 39.2904 120.911 34.09C120.487 32.3987 119.784 30.79 118.831 29.33C117.231 27.08 114.111 25.98 111.571 25.24C108.201 24.24 104.661 24.51 102.011 26.99C99.1009 29.72 97.7809 33.99 96.7809 37.71C94.9209 44.56 94.1909 51.64 93.5009 58.71C92.0309 73.81 91.1109 88.97 90.3009 104.12C90.2409 105.12 90.1909 106.12 90.1409 107.12C90.0809 108.41 92.0809 108.4 92.1409 107.12V107.09Z" fill="black"/>
<path d="M31.6507 264.26C35.7507 263.475 39.8953 262.944 44.0607 262.67C55.3554 261.77 66.703 261.75 78.0007 262.61C87.0153 263.27 95.9881 264.412 104.881 266.03C106.141 266.26 106.681 264.33 105.411 264.1C90.8317 261.423 76.0434 260.047 61.2207 259.99C52.5593 259.929 43.9044 260.481 35.3207 261.64C33.9107 261.84 32.5107 262.04 31.1207 262.33C29.7307 262.62 30.3907 264.53 31.6507 264.26Z" fill="black"/>
<path d="M62.22 104.75C61.9501 106.51 61.9501 108.3 62.22 110.06C62.37 111.97 62.55 113.87 62.73 115.77C63.34 122.2 64.0801 128.62 65.0001 135.01C65.5201 138.69 66.1101 142.35 66.8001 146.01C67.3009 149.494 68.1073 152.927 69.21 156.27C70.5994 159.672 73.1333 162.482 76.3741 164.215C79.615 165.948 83.3592 166.494 86.96 165.76C89.4904 165.363 91.8049 164.101 93.51 162.19C94.8906 160.412 95.8913 158.37 96.45 156.19C98.11 150.36 98.0201 144.01 97.6201 138.01C97.1058 130.998 96.0831 124.033 94.5601 117.17C93.8701 113.99 93.09 110.81 92.2 107.67C91.4821 104.565 90.1268 101.643 88.22 99.09C81.84 91.27 68.31 93.26 63.41 101.77C62.8689 102.708 62.4648 103.718 62.21 104.77C61.91 106.02 63.84 106.56 64.14 105.3C66.2 96.75 78.71 93.3 85.21 98.85C87.2561 100.707 88.7392 103.101 89.4901 105.76C90.4101 108.76 91.19 111.76 91.9 114.76C93.4181 121.102 94.5271 127.535 95.22 134.02C95.975 139.973 95.975 145.997 95.22 151.95C94.64 155.74 93.49 160.58 89.85 162.6C83.69 166 75.19 163.34 71.85 157.3C70.21 154.39 69.72 150.72 69.07 147.48C68.42 144.24 67.85 140.93 67.34 137.64C65.88 128.09 64.94 118.49 64.08 108.88C63.9049 107.685 63.9251 106.469 64.14 105.28C64.39 104.03 62.46 103.49 62.22 104.75Z" fill="black"/>
<path d="M63.7792 104.45C61.8392 100.06 56.6492 97.69 52.1292 97.37C47.1835 96.9555 42.2529 98.3247 38.2292 101.23C34.1592 104.43 31.8892 109.4 30.6892 114.33C27.8392 126.01 29.6892 139.04 33.4592 150.33C36.8192 160.33 43.7692 171.22 55.1192 172.86C57.5146 173.233 59.9657 172.989 62.2405 172.151C64.5153 171.313 66.5387 169.908 68.1192 168.07C70.2679 165.712 72.0024 163.007 73.2492 160.07C73.7392 158.89 71.8092 158.37 71.3192 159.54C71.5092 159.09 71.1992 159.8 71.1392 159.92C70.9092 160.41 70.6692 160.92 70.4192 161.35C69.6275 162.837 68.7038 164.249 67.6592 165.57C65.1492 168.72 61.9192 171.02 57.7792 171.08C47.4192 171.23 40.1192 161.7 36.5692 153.02C34.4067 147.553 32.9126 141.845 32.1192 136.02C31.242 130.393 31.1545 124.671 31.8592 119.02C32.4992 114.33 33.8592 109.47 36.7492 105.65C39.7492 101.65 44.4192 99.83 49.3292 99.46C54.2392 99.09 59.9592 100.78 62.0592 105.53C62.5792 106.71 64.2992 105.69 63.7892 104.53L63.7792 104.45Z" fill="black"/>
<path d="M32.2195 109.8C32.6495 109.8 32.1295 109.68 32.3495 109.8C32.1995 109.71 32.0196 109.65 31.8595 109.57L30.4195 108.86C28.9557 108.148 27.4334 107.562 25.8696 107.11C21.4392 105.811 16.7017 106.029 12.4095 107.73C9.54825 108.915 6.92575 110.609 4.66955 112.73C3.22689 113.931 2.08339 115.451 1.32952 117.17C-0.150482 120.91 -0.130482 125.27 0.0795185 129.17C0.760186 140.375 3.49925 151.358 8.15954 161.57C10.6195 167.01 13.7795 172.76 18.6495 176.41C22.8795 179.57 28.4895 179.55 33.4395 178.32C38.8995 176.96 44.4396 172.75 45.7396 166.98C46.0196 165.73 44.0896 165.2 43.8096 166.45C42.9196 170.45 39.3295 173.94 35.5395 175.53C33.4783 176.368 31.2914 176.854 29.0695 176.97C26.6295 177.13 24.0696 177.15 21.8096 176.03C16.6496 173.46 13.3795 167.71 10.9195 162.75C6.25637 153.159 3.34075 142.814 2.30956 132.2C1.75041 128.087 1.84828 123.912 2.59954 119.83C2.83688 118.479 3.36581 117.196 4.14953 116.07C6.02426 113.819 8.31627 111.951 10.8995 110.57C13.0926 109.381 15.4996 108.638 17.9815 108.383C20.4634 108.129 22.971 108.37 25.3595 109.09C26.9055 109.538 28.4082 110.124 29.8495 110.84C30.5809 111.312 31.3901 111.65 32.2396 111.84C33.5296 111.93 33.5196 109.93 32.2396 109.84L32.2195 109.8Z" fill="black"/>
<path d="M72.4894 238.09C71.9186 236.25 71.4808 234.372 71.1794 232.47C70.3569 227.697 70.0585 222.848 70.2894 218.01C70.5849 211.232 71.9344 204.542 74.2894 198.18C77.3819 190.077 82.0252 182.655 87.9594 176.33C95.8494 167.83 105.599 161.26 115.959 156.14C117.499 155.38 119.056 154.647 120.629 153.94C121.799 153.42 120.779 151.69 119.629 152.22C108.499 157.22 97.9094 163.69 89.1594 172.22C82.6194 178.538 77.3658 186.063 73.6893 194.38C70.8179 201.05 69.0483 208.143 68.4493 215.38C68.0046 220.716 68.1825 226.085 68.9794 231.38C69.2269 233.81 69.7434 236.204 70.5194 238.52C70.5238 238.553 70.5238 238.587 70.5194 238.62C70.9294 239.84 72.8593 239.32 72.4493 238.09H72.4894Z" fill="black"/>
<path d="M91.2195 254.09C92.5321 254.977 93.9583 255.684 95.4595 256.19C95.5862 256.225 95.7186 256.234 95.849 256.218C95.9794 256.202 96.1054 256.16 96.2196 256.095C96.3339 256.03 96.4342 255.943 96.5148 255.839C96.5954 255.735 96.6547 255.617 96.6895 255.49C96.7244 255.363 96.734 255.231 96.7177 255.1C96.7014 254.97 96.6595 254.844 96.5945 254.73C96.5295 254.616 96.4426 254.515 96.3388 254.435C96.2349 254.354 96.1163 254.295 95.9895 254.26C95.6495 254.15 95.3095 254.02 94.9895 253.88L94.8495 253.82L94.5895 253.7L94.0995 253.47C93.4429 253.138 92.8082 252.764 92.1995 252.35C92.0863 252.268 91.9572 252.21 91.8203 252.181C91.6835 252.152 91.542 252.151 91.4051 252.18C91.2682 252.209 91.1389 252.266 91.0255 252.348C90.9121 252.43 90.8172 252.535 90.7468 252.656C90.6765 252.777 90.6323 252.911 90.6172 253.051C90.6021 253.19 90.6163 253.33 90.6589 253.464C90.7016 253.597 90.7718 253.72 90.8649 253.824C90.958 253.929 91.072 254.012 91.1995 254.07L91.2195 254.09Z" fill="black"/>
<path d="M88.3205 257.97C89.8728 258.831 91.5657 259.41 93.3205 259.68C93.4472 259.715 93.5796 259.724 93.71 259.708C93.8404 259.692 93.9664 259.65 94.0806 259.585C94.1948 259.52 94.2951 259.433 94.3758 259.329C94.4564 259.225 94.5158 259.107 94.5505 258.98C94.5854 258.853 94.5949 258.721 94.5786 258.59C94.5623 258.46 94.5205 258.334 94.4555 258.22C94.3905 258.106 94.3035 258.005 94.1997 257.925C94.0959 257.844 93.9773 257.785 93.8505 257.75C93.031 257.631 92.2242 257.437 91.4405 257.17L90.8805 256.97L90.5605 256.84H90.4905C90.0966 256.672 89.7126 256.482 89.3405 256.27C89.1119 256.15 88.8461 256.124 88.5984 256.196C88.3506 256.268 88.1403 256.432 88.0112 256.656C87.8821 256.879 87.8443 257.143 87.9057 257.394C87.967 257.644 88.1228 257.862 88.3405 258L88.3205 257.97Z" fill="black"/>
<path d="M118.971 228.65C121.881 225.65 124.821 222.57 126.751 218.84C127.351 217.69 125.621 216.68 125.031 217.84C123.161 221.43 120.351 224.36 117.561 227.24C116.671 228.17 118.081 229.59 118.971 228.66V228.65Z" fill="black"/>
<path d="M27.4899 227.09C26.561 224.267 25.8292 221.384 25.2999 218.46C25.2276 218.206 25.0577 217.991 24.8272 217.861C24.5968 217.732 24.3244 217.699 24.0698 217.77C23.9431 217.805 23.8244 217.864 23.7206 217.945C23.6168 218.025 23.5299 218.126 23.4649 218.24C23.3999 218.354 23.358 218.48 23.3417 218.61C23.3254 218.741 23.335 218.873 23.3699 219C23.9039 221.92 24.6356 224.8 25.5599 227.62C25.5946 227.747 25.654 227.865 25.7346 227.969C25.8152 228.073 25.9155 228.16 26.0297 228.225C26.144 228.29 26.2699 228.332 26.4004 228.348C26.5308 228.364 26.6632 228.355 26.7899 228.32C26.9167 228.285 27.0353 228.226 27.1391 228.145C27.2429 228.065 27.3298 227.964 27.3949 227.85C27.4599 227.736 27.5017 227.61 27.518 227.48C27.5343 227.349 27.5248 227.217 27.4899 227.09Z" fill="black"/>
<path d="M77.5197 214.64C78.7287 212.862 79.8404 211.019 80.8497 209.12C80.9221 209.006 80.9706 208.879 80.9925 208.746C81.0144 208.613 81.0092 208.477 80.9771 208.346C80.945 208.215 80.8867 208.091 80.8058 207.984C80.7249 207.876 80.623 207.785 80.5062 207.718C80.3894 207.65 80.2603 207.607 80.1264 207.591C79.9925 207.575 79.8567 207.586 79.7272 207.623C79.5976 207.661 79.4771 207.724 79.3727 207.809C79.2683 207.895 79.1822 208 79.1197 208.12C78.1179 210.023 77.006 211.866 75.7897 213.64C75.6702 213.869 75.6435 214.134 75.7154 214.382C75.7872 214.63 75.952 214.84 76.1753 214.969C76.3986 215.098 76.6632 215.136 76.9137 215.075C77.1642 215.013 77.3813 214.858 77.5197 214.64Z" fill="black"/>
<path d="M82.7701 214.51C82.9089 214.25 83.0695 214.003 83.2502 213.77L83.0901 213.97C83.3441 213.646 83.6362 213.354 83.9601 213.1C84.0589 213.015 84.1317 212.904 84.1702 212.78C84.2316 212.663 84.2593 212.532 84.2502 212.4C84.2502 212.135 84.1448 211.88 83.9573 211.693C83.7697 211.505 83.5154 211.4 83.2502 211.4H82.9902C82.8235 211.447 82.6718 211.537 82.5502 211.66C82.2651 211.875 82.0066 212.124 81.7801 212.4C81.5008 212.733 81.2531 213.091 81.0402 213.47C80.9134 213.706 80.8778 213.98 80.9401 214.24C81.009 214.492 81.1742 214.708 81.4001 214.84C81.5137 214.907 81.6392 214.95 81.7696 214.968C81.9 214.986 82.0326 214.978 82.1599 214.944C82.2872 214.911 82.4066 214.853 82.5113 214.773C82.616 214.693 82.704 214.594 82.7701 214.48V214.51Z" fill="black"/>
<path d="M9.88955 133C11.8027 131.808 13.9121 130.965 16.1196 130.51C16.2464 130.475 16.365 130.416 16.4688 130.335C16.5726 130.255 16.6596 130.154 16.7246 130.04C16.7896 129.926 16.8314 129.8 16.8477 129.67C16.864 129.539 16.8544 129.407 16.8195 129.28C16.7848 129.153 16.7255 129.035 16.6449 128.931C16.5642 128.827 16.4639 128.74 16.3497 128.675C16.2355 128.61 16.1095 128.568 15.9791 128.552C15.8487 128.536 15.7163 128.545 15.5896 128.58C13.215 129.085 10.9452 129.995 8.87954 131.27C8.66188 131.408 8.50609 131.625 8.44473 131.876C8.38337 132.127 8.42118 132.391 8.55026 132.614C8.67933 132.838 8.88971 133.002 9.13742 133.074C9.38513 133.146 9.651 133.12 9.87954 133H9.88955Z" fill="black"/>
<path d="M11.8493 137.81C12.6393 137.54 13.4492 137.3 14.2592 137.09C14.396 137.065 14.5261 137.012 14.6412 136.935C14.7563 136.857 14.854 136.756 14.9279 136.638C15.0019 136.521 15.0505 136.389 15.0708 136.251C15.091 136.114 15.0823 135.974 15.0454 135.84C15.0084 135.706 14.9439 135.581 14.856 135.474C14.7682 135.366 14.6588 135.278 14.535 135.215C14.4112 135.152 14.2756 135.115 14.1369 135.107C13.9981 135.1 13.8593 135.121 13.7293 135.17C12.9193 135.37 12.1092 135.61 11.3192 135.88C11.0712 135.958 10.8586 136.121 10.7193 136.34C10.6527 136.454 10.6092 136.579 10.5913 136.709C10.5734 136.84 10.5814 136.972 10.6149 137.1C10.6483 137.227 10.7065 137.346 10.7862 137.451C10.8659 137.556 10.9655 137.644 11.0792 137.71C11.1944 137.777 11.3219 137.821 11.4542 137.838C11.5864 137.855 11.7207 137.846 11.8493 137.81Z" fill="black"/>
<path d="M41.3501 119.69C44.063 118.688 46.9197 118.131 49.8101 118.04C51.0901 118.04 51.1001 116.04 49.8101 116.04C46.7369 116.123 43.6975 116.704 40.8101 117.76C40.6834 117.795 40.5647 117.854 40.4608 117.935C40.357 118.015 40.2701 118.116 40.2051 118.23C40.1401 118.344 40.0982 118.47 40.0819 118.6C40.0656 118.731 40.0752 118.863 40.1101 118.99C40.1448 119.117 40.2042 119.235 40.2848 119.339C40.3654 119.443 40.4657 119.53 40.58 119.595C40.6942 119.66 40.8202 119.702 40.9506 119.718C41.081 119.734 41.2134 119.725 41.3401 119.69H41.3501Z" fill="black"/>
<path d="M44.0098 123.15L46.8999 122.3C47.0266 122.265 47.1452 122.206 47.249 122.125C47.3527 122.044 47.4396 121.944 47.5046 121.83C47.5696 121.716 47.6115 121.59 47.6278 121.459C47.6442 121.329 47.6347 121.197 47.5999 121.07C47.5651 120.943 47.5057 120.825 47.425 120.721C47.3444 120.617 47.2441 120.53 47.1298 120.465C47.0156 120.4 46.8898 120.358 46.7594 120.342C46.629 120.326 46.4966 120.335 46.3699 120.37L43.4799 121.22C43.3532 121.255 43.2345 121.314 43.1308 121.395C43.027 121.476 42.9401 121.576 42.8751 121.69C42.8101 121.804 42.7683 121.93 42.7519 122.061C42.7356 122.191 42.7451 122.323 42.7799 122.45C42.8147 122.577 42.8741 122.695 42.9547 122.799C43.0354 122.903 43.1357 122.99 43.2499 123.055C43.3641 123.12 43.49 123.162 43.6204 123.178C43.7508 123.194 43.8831 123.185 44.0098 123.15Z" fill="black"/>
<path d="M70.5703 114.29C73.4303 114.09 76.287 113.84 79.1403 113.54C79.4055 113.54 79.6599 113.435 79.8475 113.247C80.035 113.06 80.1403 112.805 80.1403 112.54C80.1403 112.275 80.035 112.02 79.8475 111.833C79.6599 111.645 79.4055 111.54 79.1403 111.54C76.2937 111.84 73.437 112.09 70.5703 112.29C70.3051 112.29 70.0508 112.395 69.8632 112.583C69.6757 112.77 69.5703 113.025 69.5703 113.29C69.5703 113.555 69.6757 113.81 69.8632 113.997C70.0508 114.185 70.3051 114.29 70.5703 114.29Z" fill="black"/>
<path d="M75.0093 118.2C75.1954 118.22 75.3832 118.22 75.5693 118.2C75.8365 118.179 76.101 118.132 76.3593 118.06C76.6055 117.979 76.8169 117.817 76.9593 117.6C77.0288 117.488 77.07 117.361 77.0793 117.23C77.1141 117.099 77.1141 116.961 77.0793 116.83C77.0049 116.58 76.8412 116.367 76.6193 116.23C76.384 116.102 76.1095 116.067 75.8493 116.13C75.6997 116.179 75.5456 116.212 75.3893 116.23H75.6593C75.4501 116.255 75.2386 116.255 75.0293 116.23C74.8973 116.229 74.7669 116.26 74.6493 116.32C74.5248 116.359 74.4116 116.428 74.3194 116.52C74.2271 116.612 74.1585 116.726 74.1193 116.85C74.0592 116.968 74.0283 117.098 74.0293 117.23V117.5C74.0736 117.666 74.1596 117.817 74.2793 117.94L74.4893 118.1C74.6417 118.186 74.8142 118.231 74.9893 118.23L75.0093 118.2Z" fill="black"/>
<path d="M56.0695 164.9C55.6317 164.262 55.2407 163.594 54.8996 162.9L54.6596 162.38C54.6136 162.289 54.5735 162.196 54.5396 162.1C54.6296 162.35 54.5396 162.1 54.5396 162.03C54.3896 161.66 54.2595 161.29 54.1395 160.92C54.0693 160.664 53.9002 160.447 53.6695 160.315C53.4388 160.184 53.1655 160.15 52.9096 160.22C52.6536 160.29 52.4361 160.459 52.3048 160.69C52.1736 160.921 52.1393 161.194 52.2096 161.45C52.7147 163.028 53.442 164.527 54.3696 165.9C54.4321 166.019 54.5181 166.125 54.6225 166.211C54.7269 166.296 54.8475 166.359 54.977 166.397C55.1065 166.434 55.2424 166.445 55.3762 166.429C55.5101 166.413 55.6393 166.37 55.7561 166.302C55.8728 166.235 55.9748 166.144 56.0557 166.036C56.1366 165.929 56.1949 165.805 56.2269 165.674C56.259 165.543 56.2643 165.407 56.2424 165.274C56.2205 165.141 56.1719 165.014 56.0996 164.9H56.0695Z" fill="black"/>
<path d="M59.7704 163.62C59.5062 162.399 59.1723 161.193 58.7704 160.01C58.7356 159.883 58.6762 159.765 58.5955 159.661C58.5149 159.557 58.4146 159.47 58.3004 159.405C58.1862 159.34 58.0603 159.298 57.9299 159.282C57.7995 159.266 57.6671 159.275 57.5404 159.31C57.4137 159.345 57.2951 159.404 57.1913 159.485C57.0875 159.565 57.0007 159.666 56.9357 159.78C56.8707 159.894 56.8288 160.02 56.8125 160.151C56.7961 160.281 56.8056 160.413 56.8404 160.54C57.2376 161.725 57.5714 162.93 57.8404 164.15C57.8751 164.277 57.9345 164.395 58.0152 164.499C58.0958 164.603 58.1961 164.69 58.3103 164.755C58.4246 164.82 58.5505 164.862 58.6809 164.878C58.8114 164.894 58.9437 164.885 59.0704 164.85C59.3246 164.778 59.5399 164.608 59.6691 164.377C59.7984 164.147 59.8312 163.875 59.7604 163.62H59.7704Z" fill="black"/>
<path d="M25.1001 171.59L23.2001 166.76C23.1298 166.504 22.9607 166.287 22.7301 166.155C22.4994 166.024 22.226 165.99 21.9701 166.06C21.7142 166.13 21.4966 166.299 21.3654 166.53C21.2341 166.761 21.1998 167.034 21.2701 167.29C21.9368 168.903 22.5701 170.517 23.1701 172.13C23.2424 172.384 23.4123 172.599 23.6428 172.729C23.8733 172.858 24.1455 172.891 24.4001 172.82C24.5269 172.785 24.6456 172.726 24.7494 172.645C24.8532 172.565 24.9401 172.464 25.0051 172.35C25.0701 172.236 25.112 172.11 25.1283 171.98C25.1446 171.849 25.135 171.717 25.1001 171.59Z" fill="black"/>
<path d="M31.1492 169.95C30.5624 168.806 29.8729 167.719 29.0892 166.7C28.9505 166.484 28.7424 166.322 28.4992 166.24C28.37 166.206 28.2353 166.198 28.1031 166.217C27.9708 166.236 27.8437 166.281 27.7292 166.35C27.5022 166.484 27.337 166.701 27.2696 166.956C27.2022 167.211 27.238 167.482 27.3692 167.71C28.1498 168.729 28.8359 169.817 29.4192 170.96C29.4854 171.074 29.5733 171.173 29.6781 171.253C29.7828 171.333 29.9022 171.391 30.0294 171.424C30.1567 171.458 30.2894 171.466 30.4198 171.448C30.5501 171.43 30.6757 171.387 30.7892 171.32C30.903 171.254 31.0026 171.166 31.0822 171.061C31.1619 170.956 31.2201 170.837 31.2536 170.71C31.287 170.582 31.295 170.45 31.2771 170.319C31.2592 170.189 31.2157 170.064 31.1492 169.95Z" fill="black"/>
<path d="M82.6093 157.73C82.2894 156.892 81.8803 156.091 81.3892 155.34C81.2571 155.114 81.0417 154.949 80.7893 154.88C80.6607 154.844 80.5264 154.835 80.3942 154.852C80.2619 154.869 80.1344 154.913 80.0192 154.98C79.7933 155.112 79.6282 155.327 79.5593 155.58C79.497 155.84 79.5325 156.114 79.6592 156.35C80.0503 156.962 80.385 157.608 80.6592 158.28L80.5593 158.04L80.6492 158.26C80.6792 158.385 80.7373 158.501 80.8192 158.6C80.893 158.709 80.9926 158.799 81.1093 158.86C81.2245 158.927 81.3519 158.971 81.4841 158.988C81.6164 159.005 81.7507 158.995 81.8792 158.96C82.128 158.889 82.3395 158.724 82.4692 158.5C82.5364 158.385 82.5799 158.257 82.5971 158.125C82.6142 157.993 82.6047 157.859 82.5692 157.73H82.6093Z" fill="black"/>
<path d="M86.5597 158.28C86.9725 157.398 87.3071 156.481 87.5597 155.54C87.5952 155.411 87.6047 155.277 87.5875 155.145C87.5703 155.013 87.5269 154.885 87.4597 154.77C87.3299 154.546 87.1185 154.381 86.8697 154.31C86.743 154.275 86.6106 154.266 86.4802 154.282C86.3498 154.298 86.2238 154.34 86.1096 154.405C85.9953 154.47 85.895 154.557 85.8144 154.661C85.7338 154.765 85.6744 154.883 85.6397 155.01C85.4636 155.657 85.2466 156.291 84.9897 156.91L85.0897 156.67L84.8197 157.27C84.7525 157.385 84.7091 157.513 84.6919 157.645C84.6748 157.777 84.6842 157.911 84.7197 158.04C84.7886 158.292 84.9538 158.508 85.1797 158.64C85.2949 158.707 85.4224 158.751 85.5546 158.768C85.6868 158.785 85.8211 158.776 85.9497 158.74C86.2022 158.671 86.4176 158.506 86.5497 158.28H86.5597Z" fill="black"/>
<path d="M184.641 146.6L184.821 142.35C184.821 142.085 184.715 141.83 184.528 141.643C184.34 141.455 184.086 141.35 183.821 141.35C183.555 141.35 183.301 141.455 183.114 141.643C182.926 141.83 182.821 142.085 182.821 142.35L182.641 146.6C182.641 146.865 182.746 147.12 182.934 147.307C183.121 147.495 183.375 147.6 183.641 147.6C183.906 147.6 184.16 147.495 184.348 147.307C184.535 147.12 184.641 146.865 184.641 146.6Z" fill="black"/>
<path d="M180.22 147.79C180.311 146.37 180.278 144.944 180.12 143.53C180.111 143.269 180.008 143.021 179.83 142.83C179.737 142.735 179.627 142.66 179.505 142.609C179.383 142.557 179.252 142.531 179.12 142.53C178.63 142.53 178.06 142.98 178.12 143.53C178.278 144.944 178.311 146.37 178.22 147.79C178.22 148.055 178.325 148.31 178.512 148.497C178.7 148.685 178.954 148.79 179.22 148.79C179.485 148.79 179.739 148.685 179.927 148.497C180.114 148.31 180.22 148.055 180.22 147.79Z" fill="black"/>
<path d="M120.681 135.17C120.507 132.083 120.464 128.99 120.551 125.89C120.551 125.625 120.445 125.37 120.258 125.183C120.07 124.995 119.816 124.89 119.551 124.89C119.285 124.89 119.031 124.995 118.843 125.183C118.656 125.37 118.551 125.625 118.551 125.89C118.471 128.99 118.514 132.083 118.681 135.17C118.681 135.435 118.786 135.69 118.973 135.877C119.161 136.065 119.415 136.17 119.681 136.17C119.946 136.17 120.2 136.065 120.388 135.877C120.575 135.69 120.681 135.435 120.681 135.17Z" fill="black"/>
<path d="M119.9 119.95C119.9 119.74 119.81 119.54 119.78 119.33V119.59C119.73 119.151 119.73 118.709 119.78 118.27C119.781 118.138 119.756 118.008 119.706 117.886C119.656 117.764 119.583 117.653 119.49 117.56C119.397 117.467 119.286 117.394 119.164 117.344C119.042 117.294 118.912 117.269 118.78 117.27C118.518 117.271 118.266 117.375 118.08 117.56L117.92 117.76C117.829 117.914 117.78 118.09 117.78 118.27C117.72 119.012 117.781 119.758 117.96 120.48C118.035 120.73 118.198 120.943 118.42 121.08C118.656 121.208 118.93 121.243 119.19 121.18C119.317 121.145 119.436 121.086 119.54 121.005C119.643 120.925 119.73 120.824 119.795 120.71C119.86 120.596 119.902 120.47 119.918 120.339C119.935 120.209 119.925 120.077 119.89 119.95H119.9Z" fill="black"/>
<path d="M105.139 45.09C101.889 45.2942 98.6622 44.4265 95.9527 42.6202C93.2432 40.8138 91.201 38.1685 90.1395 35.09C86.1395 24.09 102.419 3.57 106.139 1.09C109.139 -0.91 121.139 23.09 121.139 31.09C121.139 39.09 116.529 44.58 105.139 45.09Z" fill="#FF1212"/>
<path d="M105.139 45.09C106.821 45.0273 108.495 44.8165 110.139 44.46C105.899 43.46 103.259 41.58 106.139 39.93C112.649 36.28 116.639 32.59 110.139 32.59C103.639 32.59 98.6395 27.59 103.799 26.88C108.959 26.17 111.639 21.59 108.639 19.59C105.639 17.59 99.6394 19.59 102.319 14.67C103.909 11.74 106.569 6.20999 108.459 2.23999C107.459 1.23999 106.669 0.739994 106.139 1.08999C102.419 3.56999 86.1395 24.09 90.1395 35.09C91.201 38.1685 93.2432 40.8138 95.9527 42.6202C98.6622 44.4265 101.889 45.2941 105.139 45.09Z" fill="#CE0B0B"/>
<path d="M105.14 44.09C103.247 44.1913 101.352 43.9184 99.5638 43.287C97.7759 42.6555 96.13 41.6779 94.7201 40.41C93.18 38.9906 92.0056 37.22 91.297 35.2491C90.5884 33.2781 90.3664 31.1652 90.6501 29.09C91.3595 24.9841 92.8061 21.0406 94.9201 17.45C96.9215 13.8023 99.2369 10.3358 101.84 7.08999C102.77 5.91999 103.74 4.77 104.78 3.69C105.17 3.27 105.58 2.86999 106 2.48999L106.46 2.08999C106.35 2.18999 106.86 1.72999 106.59 1.97999C106.73 2.04999 106.65 1.98 106.89 2.14C107.232 2.3934 107.547 2.68161 107.83 3C108.761 4.0484 109.595 5.17977 110.32 6.37999C112.353 9.64837 114.15 13.057 115.7 16.58C117.346 20.09 118.662 23.7458 119.63 27.5C120.142 29.2972 120.289 31.1786 120.062 33.0335C119.835 34.8883 119.24 36.679 118.31 38.3C115.53 42.66 109.98 43.85 105.16 44.09C103.88 44.15 103.87 46.15 105.16 46.09C110.05 45.85 115.45 44.73 118.84 40.89C120.092 39.3819 121.026 37.6363 121.587 35.758C122.147 33.8797 122.321 31.9075 122.1 29.96C121.537 26.1616 120.45 22.4596 118.87 18.96C117.221 14.8398 115.272 10.8458 113.04 7.00999C112.149 5.4273 111.147 3.91013 110.04 2.47C109.397 1.55705 108.565 0.793115 107.6 0.229994C105.49 -0.770006 103.43 2.23 102.24 3.56C99.4472 6.77141 96.941 10.2213 94.7501 13.87C92.2296 17.8197 90.3402 22.1382 89.1501 26.67C88.4901 29.0825 88.4312 31.62 88.9786 34.0606C89.5259 36.5012 90.6629 38.7704 92.2901 40.67C93.9029 42.4761 95.8993 43.8985 98.1332 44.8329C100.367 45.7672 102.782 46.1899 105.2 46.07C106.43 46.02 106.43 44.02 105.14 44.09Z" fill="black"/>
<path d="M103.801 49.92C105.962 49.995 108.117 49.6555 110.151 48.92C110.278 48.8853 110.396 48.8259 110.5 48.7453C110.604 48.6647 110.691 48.5644 110.756 48.4501C110.821 48.3359 110.863 48.21 110.879 48.0795C110.895 47.9491 110.886 47.8167 110.851 47.69C110.816 47.5632 110.757 47.4445 110.676 47.3407C110.595 47.2369 110.495 47.15 110.381 47.085C110.267 47.02 110.141 46.9781 110.01 46.9618C109.88 46.9455 109.748 46.9551 109.621 46.99C108.667 47.3334 107.683 47.5845 106.681 47.74C106.681 47.74 106.361 47.74 106.491 47.74H106.101C105.861 47.74 105.621 47.79 105.371 47.8C104.851 47.8 104.371 47.8 103.801 47.8C103.536 47.8 103.281 47.9054 103.094 48.0929C102.906 48.2804 102.801 48.5348 102.801 48.8C102.801 49.0652 102.906 49.3196 103.094 49.5071C103.281 49.6946 103.536 49.8 103.801 49.8V49.92Z" fill="black"/>
<path d="M105.559 53.3C106.487 53.2681 107.394 53.0216 108.209 52.58C108.435 52.4479 108.6 52.2325 108.669 51.98C108.705 51.8515 108.714 51.7171 108.697 51.5849C108.68 51.4527 108.637 51.3252 108.569 51.21C108.503 51.0962 108.415 50.9967 108.31 50.917C108.206 50.8373 108.086 50.779 107.959 50.7456C107.832 50.7122 107.699 50.7042 107.569 50.7221C107.438 50.74 107.313 50.7835 107.199 50.85L106.759 51.07L106.999 50.97C106.599 51.1346 106.179 51.2456 105.749 51.3H106.009H105.559C105.293 51.3073 105.04 51.4145 104.849 51.6C104.663 51.7874 104.559 52.0408 104.559 52.305C104.559 52.5692 104.663 52.8226 104.849 53.01C104.943 53.1027 105.054 53.176 105.175 53.2258C105.297 53.2755 105.428 53.3007 105.559 53.3Z" fill="black"/>
<path d="M112.651 21.74C112.18 21.954 111.8 22.3268 111.577 22.7931C111.354 23.2594 111.302 23.7893 111.431 24.29C111.941 26.61 112.901 31.56 112.141 33.07C111.141 35.07 109.141 37.83 111.141 38.95C113.141 40.07 118.141 36.07 117.141 30.07C116.321 25.14 114.831 20.89 112.651 21.74Z" fill="#FFFDFD"/>
<path d="M110.141 16.09C110.141 16.09 110.141 19.09 112.141 19.09C114.141 19.09 114.141 16.09 113.141 15.09C112.141 14.09 110.141 15.09 110.141 16.09Z" fill="#FFFDFD"/>
<path d="M173.699 53.32C173.699 53.32 159.399 37.48 163.469 26.13C167.539 14.78 183.029 20.53 182.929 31.55C182.929 31.55 196.399 21.42 201.149 34.06C206.269 47.66 173.699 53.32 173.699 53.32Z" fill="#FF4D88"/>
<path d="M174.41 52.61C170.054 47.9074 166.745 42.335 164.7 36.26C163.45 32.26 163.11 27.44 165.78 23.86C167.95 20.96 171.68 20.36 174.95 21.57C176.994 22.3292 178.758 23.6926 180.008 25.4789C181.259 27.2651 181.936 29.3896 181.95 31.57C181.95 32.26 182.83 32.9 183.46 32.43C185.899 30.5399 188.773 29.2918 191.82 28.8C192.953 28.6052 194.117 28.6851 195.213 29.0331C196.309 29.3811 197.306 29.987 198.12 30.8C199.812 32.5533 200.742 34.9038 200.71 37.34C200.44 41.18 196.71 43.85 193.66 45.59C189.73 47.737 185.552 49.3959 181.22 50.53C178.675 51.2694 176.095 51.8802 173.49 52.36C172.22 52.58 172.76 54.51 174.02 54.29C181.12 53.04 188.53 50.88 194.8 47.29C198.36 45.24 202.2 42.18 202.69 37.8C203.28 32.63 199.14 27.21 193.93 26.8C189.93 26.46 185.62 28.4 182.48 30.74L183.98 31.61C183.97 29.4316 183.398 27.2926 182.321 25.3992C181.244 23.5058 179.697 21.9218 177.83 20.8C174.44 18.74 169.88 18.24 166.48 20.57C162.56 23.27 161.38 28.37 161.95 32.86C162.57 37.74 164.81 42.35 167.4 46.48C169.061 49.1741 170.951 51.7202 173.05 54.09C173.86 54.99 175.27 53.57 174.41 52.61Z" fill="black"/>
<path d="M148.09 112.91C148.28 113.37 148.09 112.84 148.02 112.73L147.63 111.73C147.24 110.65 146.89 109.55 146.63 108.44C145.94 105.9 145.28 102.93 146.03 100.34C146.69 98.03 149.82 96.53 151.93 98.07C152.677 98.757 153.135 99.7021 153.211 100.714C153.287 101.726 152.975 102.729 152.34 103.52C150.51 105.52 148.04 102.08 147.24 100.66C145.5 97.56 144.96 93.48 146.91 90.34C148.123 88.3698 150.045 86.9387 152.28 86.34C152.975 86.1272 153.713 86.0898 154.427 86.2311C155.14 86.3724 155.808 86.6881 156.37 87.15C156.543 87.3383 156.669 87.5649 156.738 87.8113C156.806 88.0577 156.816 88.3168 156.765 88.5675C156.714 88.8182 156.605 89.0534 156.446 89.2537C156.287 89.454 156.082 89.6138 155.85 89.72C155.562 89.8438 155.242 89.8766 154.935 89.814C154.628 89.7515 154.347 89.5966 154.13 89.37C151.85 87.64 150.9 84.11 150.76 81.37C150.65 79.2745 151.034 77.1825 151.882 75.2629C152.73 73.3434 154.017 71.6502 155.64 70.32C156.64 69.49 155.2 68.08 154.23 68.91C152.414 70.4206 150.975 72.3326 150.026 74.4951C149.076 76.6576 148.643 79.0112 148.76 81.37C148.93 84.7 150.1 88.67 152.82 90.84C153.27 91.2527 153.814 91.5481 154.406 91.6999C154.997 91.8516 155.617 91.8551 156.21 91.71C156.952 91.4429 157.598 90.9625 158.068 90.3291C158.538 89.6957 158.81 88.9375 158.85 88.15C158.788 87.3377 158.483 86.5628 157.974 85.9261C157.466 85.2895 156.778 84.8204 156 84.58C154.956 84.2323 153.852 84.1061 152.756 84.2094C151.661 84.3127 150.6 84.6433 149.64 85.18C147.429 86.3138 145.668 88.1623 144.642 90.4248C143.616 92.6872 143.386 95.2303 143.99 97.64C144.68 100.81 146.99 105.52 150.61 106.05C153.87 106.52 155.47 102.78 155.13 100.05C154.65 96.24 151 94.67 147.55 95.89C143.55 97.31 143.46 102.14 144.01 105.67C144.464 108.485 145.267 111.233 146.4 113.85C146.9 115.03 148.63 114.01 148.13 112.85L148.09 112.91Z" fill="black"/>
<path d="M164.971 180.54C163.417 183.64 162.648 187.074 162.731 190.54C162.911 194.82 165.341 199.69 169.961 200.44C173.07 200.741 176.185 199.937 178.761 198.17C180.325 197.047 181.645 195.616 182.637 193.966C183.629 192.315 184.273 190.479 184.531 188.57C184.971 185.65 184.611 181.74 181.591 180.29C179.191 179.14 177.281 180.96 176.431 183.1C174.311 188.4 176.131 196.74 182.601 197.76C184.94 198.075 187.32 197.677 189.429 196.617C191.538 195.557 193.278 193.885 194.421 191.82C197.421 186.55 196.061 180.31 192.701 175.57C191.961 174.57 190.221 175.57 190.971 176.57C193.601 180.28 195.071 184.9 193.401 189.32C192.786 190.98 191.749 192.45 190.391 193.585C189.034 194.72 187.403 195.48 185.661 195.79C182.801 196.24 180.141 195.29 178.741 192.69C177.679 190.556 177.329 188.138 177.741 185.79C177.931 184.59 178.581 181.84 180.111 181.9C182.391 181.99 182.751 185.51 182.661 187.15C182.528 189.979 181.4 192.67 179.475 194.747C177.549 196.825 174.952 198.154 172.141 198.5C167.551 199 164.891 194.66 164.711 190.5C164.628 187.381 165.315 184.29 166.711 181.5C167.281 180.35 165.551 179.34 164.981 180.5L164.971 180.54Z" fill="black"/>
<path d="M151.33 267.03C151.33 267.03 142.96 264.1 139.65 256.03C136.34 247.96 149.33 246.03 151.33 254.03C151.33 254.03 156.57 245.09 162.33 250.03C169.33 256.03 151.33 267.03 151.33 267.03Z" fill="#FF4D88"/>
<path d="M151.601 266.09C147.755 264.601 144.448 261.987 142.111 258.59C140.921 256.8 139.231 253.97 140.611 251.83C141.166 251.128 141.9 250.587 142.735 250.265C143.571 249.943 144.478 249.852 145.361 250C146.539 250.114 147.652 250.591 148.548 251.365C149.443 252.139 150.077 253.171 150.361 254.32C150.412 254.51 150.519 254.681 150.668 254.811C150.816 254.941 151 255.024 151.196 255.05C151.391 255.075 151.59 255.042 151.767 254.955C151.944 254.868 152.092 254.731 152.191 254.56C153.138 252.895 154.468 251.48 156.071 250.43C156.652 250.013 157.326 249.743 158.035 249.642C158.743 249.541 159.466 249.612 160.141 249.85C160.736 250.068 161.28 250.407 161.738 250.846C162.196 251.285 162.558 251.814 162.801 252.4C163.461 254.4 161.801 256.64 160.641 258.08C158.883 260.099 156.904 261.914 154.741 263.49C153.471 264.44 152.171 265.36 150.821 266.19C149.721 266.86 150.731 268.59 151.821 267.92C155.902 265.554 159.534 262.487 162.551 258.86C164.111 256.86 165.551 254.16 164.621 251.58C163.972 250.056 162.767 248.837 161.251 248.172C159.734 247.506 158.021 247.445 156.461 248C153.911 249.15 151.805 251.098 150.461 253.55L152.291 253.79C151.964 252.552 151.338 251.412 150.468 250.472C149.599 249.531 148.512 248.819 147.302 248.396C146.093 247.974 144.799 247.854 143.533 248.049C142.267 248.243 141.068 248.745 140.041 249.51C134.511 254.03 141.671 262.07 145.521 264.95C147.205 266.242 149.072 267.276 151.061 268.02C152.281 268.42 152.811 266.49 151.601 266.09Z" fill="black"/>
</g>
<defs>
<clipPath id="clip0_3195_13316">
<rect width="202.7" height="288.07" fill="white"/>
</clipPath>
</defs>
</svg>
