<svg width="243" height="378" viewBox="0 0 243 378" fill="none" xmlns="http://www.w3.org/2000/svg">
<g clip-path="url(#clip0_3192_13181)">
<g clip-path="url(#clip1_3192_13181)">
<path d="M58.1597 352.44C58.1597 352.44 46.1597 357.44 36.1597 350.44C26.1597 343.44 36.1597 331.44 46.1597 336.44C46.1597 336.44 43.1597 325.6 54.1597 326.44C67.1597 327.44 58.1597 352.44 58.1597 352.44Z" fill="#FF4D88"/>
<path d="M57.8995 351.48C53.2186 353.339 48.0785 353.709 43.1795 352.54C39.5795 351.64 35.1795 349.62 33.5595 346.04C33.0287 344.744 32.9248 343.312 33.2628 341.952C33.6009 340.593 34.3633 339.377 35.4395 338.48C36.8327 337.289 38.5498 336.542 40.3707 336.333C42.1916 336.125 44.0333 336.465 45.6595 337.31C45.8313 337.411 46.0293 337.458 46.2281 337.446C46.427 337.433 46.6176 337.362 46.7755 337.241C46.9334 337.119 47.0515 336.953 47.1146 336.764C47.1777 336.575 47.1829 336.372 47.1295 336.18C46.6106 334.364 46.6489 332.434 47.2395 330.64C48.5095 327.22 53.2395 326.64 56.2395 327.94C59.2395 329.24 59.9995 332.69 60.1395 335.59C60.2258 339.096 59.8219 342.596 58.9395 345.99C58.4689 348.086 57.8779 350.152 57.1695 352.18C56.7295 353.39 58.6595 353.91 59.0995 352.71C61.0995 347.18 62.5595 340.84 62.0995 334.95C61.8295 331.5 60.6295 327.76 57.2495 326.21C53.6395 324.55 48.0995 325.11 45.9095 328.75C44.6195 331.215 44.3536 334.09 45.1695 336.75L46.6395 335.62C44.9469 334.739 43.0605 334.297 41.1528 334.334C39.2451 334.37 37.377 334.885 35.7195 335.83C34.3203 336.626 33.1515 337.771 32.3277 339.154C31.5038 340.537 31.0531 342.111 31.0195 343.72C31.1095 348.02 34.6095 351.05 38.1895 352.84C42.1873 354.77 46.6455 355.543 51.0595 355.07C53.5833 354.887 56.0665 354.335 58.4295 353.43C59.5995 352.92 59.0895 350.99 57.8995 351.48Z" fill="black"/>
<path d="M49.1598 64.44C49.1598 64.44 33.1598 66.44 30.1598 57.44C27.1598 48.44 36.1598 44.44 43.1598 51.44C43.1598 51.44 43.5298 39.63 53.1598 44.44C61.1598 48.44 49.1598 64.44 49.1598 64.44Z" fill="#FF4D88"/>
<path d="M49.16 63.44C45.3357 63.9492 41.4479 63.6805 37.73 62.65C35.2 61.9 32.73 60.53 31.49 58.11C30.25 55.69 29.93 51.7 32.49 49.84C35.71 47.46 40.02 49.77 42.49 52.15C42.6299 52.291 42.8086 52.3872 43.0033 52.4263C43.1981 52.4653 43.4 52.4455 43.5835 52.3694C43.7669 52.2932 43.9235 52.1641 44.0333 51.9986C44.1431 51.8331 44.2012 51.6386 44.2 51.44C44.2588 50.0647 44.5601 48.7105 45.09 47.44C45.2657 46.8769 45.552 46.3545 45.9323 45.9036C46.3125 45.4526 46.779 45.0822 47.3043 44.8139C47.8297 44.5456 48.4033 44.385 48.9916 44.3414C49.5798 44.2978 50.1709 44.3721 50.73 44.56C52.2013 44.8306 53.5061 45.6717 54.36 46.9C54.8793 48.0139 55.0333 49.2634 54.8 50.47C54.2457 53.4501 53.1365 56.2995 51.53 58.87C50.5506 60.6266 49.4618 62.32 48.27 63.94C47.5 64.94 49.27 65.94 50 64.94C51.192 63.3221 52.2776 61.6286 53.25 59.87C54.95 56.87 56.55 53.54 56.84 50.06C57.0339 48.5641 56.7504 47.0452 56.03 45.72C55.0687 44.3316 53.6547 43.3205 52.03 42.86C48.88 41.7 45.63 42.37 43.83 45.33C42.7692 47.188 42.1884 49.2811 42.14 51.42L43.85 50.72C41.13 48.06 37.1 45.95 33.23 47.22C29.83 48.34 28.23 51.71 28.62 55.14C28.7767 56.8426 29.3564 58.4791 30.3065 59.9007C31.2565 61.3223 32.5468 62.4839 34.06 63.28C36.9468 64.6957 40.1057 65.4701 43.32 65.55C45.26 65.6818 47.2079 65.6383 49.14 65.42C50.42 65.29 50.44 63.29 49.16 63.44Z" fill="black"/>
<path d="M26.6702 277.31C29.3792 276.009 31.7048 274.028 33.4202 271.56C34.8818 269.574 35.8506 267.269 36.247 264.835C36.6434 262.401 36.456 259.907 35.7002 257.56C34.4202 253.56 31.0802 249.33 26.3702 250.56C22.2002 251.68 22.3702 256.35 24.4602 259.29C26.9202 262.69 31.9202 264.68 35.6602 262.1C39.2202 259.63 40.7802 254.73 41.1102 250.59C41.2639 248.358 41.1261 246.116 40.7002 243.92C40.4263 241.678 39.4537 239.579 37.9202 237.92C35.9902 236.13 32.0502 235.6 31.3602 238.82C30.7302 241.72 32.8902 244.72 35.1802 246.26C39.3602 249.04 44.6302 247.57 48.6702 245.31C48.8878 245.172 49.0436 244.955 49.105 244.704C49.1663 244.453 49.1285 244.189 48.9995 243.966C48.8704 243.742 48.66 243.578 48.4123 243.506C48.1646 243.434 47.8987 243.46 47.6702 243.58C44.6702 245.26 40.9302 246.58 37.5402 245.24C36.5496 244.857 35.6612 244.249 34.9447 243.465C34.2281 242.681 33.7029 241.741 33.4102 240.72C33.2153 240.119 33.2153 239.471 33.4102 238.87C33.4835 238.705 33.6154 238.573 33.7802 238.5C34.2571 238.414 34.7478 238.445 35.2102 238.59C38.7102 239.69 39.0302 245.29 39.1202 248.26C39.3157 251.772 38.4367 255.26 36.6002 258.26C35.7759 259.716 34.4161 260.792 32.8102 261.26C31.912 261.387 30.9973 261.327 30.1233 261.084C29.2492 260.842 28.4346 260.422 27.7302 259.85C25.9502 258.52 23.1802 254.31 26.2302 252.76C29.8002 250.96 32.6802 254.9 33.6802 257.81C34.4397 259.985 34.6391 262.316 34.2598 264.588C33.8805 266.86 32.9349 269 31.5102 270.81C29.9894 272.869 27.9786 274.515 25.6602 275.6C24.4802 276.11 25.5002 277.83 26.6602 277.33L26.6702 277.31Z" fill="black"/>
<path d="M160.2 39.18C159.461 41.7635 159.701 44.529 160.875 46.9464C162.048 49.3638 164.073 51.263 166.56 52.28C173.1 54.89 179.73 48.11 180.29 41.85C180.5 39.52 179.22 36.77 176.51 36.93C174.04 37.07 172.73 39.8 172.51 41.93C172.415 43.5301 172.757 45.126 173.501 46.5461C174.244 47.9662 175.361 49.1568 176.73 49.99C179.24 51.67 182.81 52.84 185.56 50.99C189.32 48.49 190.16 42.6 190.17 38.42C190.17 38.1548 190.065 37.9004 189.877 37.7129C189.69 37.5254 189.436 37.42 189.17 37.42C188.905 37.42 188.651 37.5254 188.463 37.7129C188.276 37.9004 188.17 38.1548 188.17 38.42C188.254 41.4097 187.63 44.3768 186.35 47.08C185.41 48.85 183.93 50.13 181.83 49.9C180.349 49.7187 178.937 49.1651 177.727 48.2907C176.517 47.4164 175.548 46.2499 174.91 44.9C174.24 43.21 174.24 40.72 175.68 39.39C176.92 38.23 178.19 39.45 178.32 40.85C178.54 43.24 177.09 45.85 175.59 47.59C173.88 49.59 171.36 51.28 168.59 50.79C163.46 49.87 160.88 44.42 162.13 39.69C162.201 39.4341 162.166 39.1607 162.035 38.93C161.904 38.6994 161.686 38.5303 161.43 38.46C161.174 38.3897 160.901 38.424 160.67 38.5553C160.44 38.6865 160.271 38.9041 160.2 39.16V39.18Z" fill="black"/>
<path d="M121.33 257.62C121.33 257.62 112.57 325.29 108.48 339.83C104.39 354.37 84.4998 355.72 85.0198 337.72C85.5398 319.72 94.5298 253.04 94.5298 253.04C103.308 255.367 112.277 256.9 121.33 257.62Z" fill="#CAD8FF"/>
<path d="M85.0194 337.72C84.7294 347.95 91.0194 351.91 97.3194 350.72C88.1194 335.47 99.9694 266.89 102.129 266.89H120.129C120.899 261.18 121.359 257.57 121.359 257.57C112.308 256.86 103.338 255.337 94.5594 253.02C94.5594 253.02 85.5294 319.81 85.0194 337.72Z" fill="#92ADEA"/>
<path d="M177.221 120.24C185.391 131.34 190.77 144.16 190.57 150.82C190.22 163.1 181.57 163.14 181.57 163.14C174.71 147.92 156.88 127.14 145.94 126.86C134.1 117.64 134.16 101.86 145.53 100.14C147.817 99.8406 150.141 99.9901 152.37 100.58C161.5 102.79 170.351 110.9 177.221 120.24Z" fill="#FFC2BD"/>
<path d="M181.53 163.14C181.53 163.14 190.22 163.14 190.53 150.82C190.52 148.714 190.214 146.62 189.62 144.6C185.2 146.09 179.15 145.08 171.45 137.1C162.731 128.115 151.554 121.903 139.32 119.24C140.952 122.204 143.178 124.798 145.86 126.86C156.84 127.17 174.67 147.92 181.53 163.14Z" fill="#F7A5A1"/>
<path d="M137.8 147.93C133.8 138.35 136.02 126.57 145.9 126.86C156.84 127.17 174.67 147.92 181.53 163.14C182.317 164.862 182.986 166.636 183.53 168.45C187.9 183.56 176.67 188.06 176.67 188.06C169.67 173.41 157.19 155.22 145.11 154.24C144.017 154.138 142.916 154.165 141.83 154.32C140.133 152.435 138.77 150.274 137.8 147.93Z" fill="#FFC2BD"/>
<path d="M176.67 188.06C176.67 188.06 185.28 184.61 184.49 173.6C182.55 176.32 180.16 177.35 177.66 172.94C171.903 162.444 163.663 153.517 153.66 146.94C148.44 143.59 141.66 142.94 136.33 143.03C136.645 144.711 137.138 146.353 137.8 147.93C138.761 150.272 140.114 152.433 141.8 154.32C142.887 154.165 143.987 154.138 145.08 154.24C157.19 155.22 169.64 173.41 176.67 188.06Z" fill="#F7A5A1"/>
<path d="M145.079 188.26C136.499 180.08 128.379 156.31 141.829 154.32C142.916 154.165 144.017 154.138 145.109 154.24C157.189 155.24 169.639 173.41 176.669 188.06C180.059 195.13 182.199 201.37 182.419 204.46C182.601 207.198 182.042 209.934 180.801 212.381C179.561 214.829 177.685 216.897 175.369 218.37C175.089 217.83 174.899 217.53 174.899 217.53C174.899 217.53 158.409 184.87 145.079 188.26Z" fill="#FFC2BD"/>
<path d="M174.891 217.53C174.891 217.53 175.081 217.83 175.361 218.37C177.676 216.897 179.552 214.829 180.792 212.381C182.033 209.934 182.592 207.198 182.411 204.46C182.323 203.48 182.149 202.509 181.891 201.56C179.421 204.46 176.691 206.69 174.571 205.8C169.491 203.66 171.651 200.94 157.501 183.99C149.371 174.25 141.661 173.15 136.561 173.99C138.561 179.65 141.761 185.13 145.071 188.29C158.411 184.87 174.891 217.53 174.891 217.53Z" fill="#F7A5A1"/>
<path d="M175.36 218.37C176.91 221.28 181.36 231.09 174.36 237.09C168.6 242.04 162.85 241.35 157.93 237.93C155.678 236.299 153.685 234.337 152.02 232.11C149.305 228.138 147.028 223.883 145.23 219.42C139.94 207 135.91 190.61 145.11 188.26C158.44 184.87 174.92 217.53 174.92 217.53C174.92 217.53 175.08 217.83 175.36 218.37Z" fill="#FFC2BD"/>
<path d="M175.369 225.4C169.609 230.35 163.859 229.66 158.939 226.24C156.687 224.609 154.694 222.647 153.029 220.42C150.313 216.445 148.037 212.186 146.239 207.72C143.901 202.404 142.18 196.838 141.109 191.13C137.519 196.9 140.949 209.43 145.199 219.41C146.997 223.873 149.274 228.128 151.989 232.1C153.654 234.327 155.647 236.289 157.899 237.92C162.819 241.34 168.569 242.03 174.329 237.08C178.999 233.08 178.589 227.41 177.329 223.19C176.777 224.01 176.118 224.754 175.369 225.4Z" fill="#F7A5A1"/>
<path d="M145.2 219.42H145.13C145.13 219.42 145.13 223.71 144.67 228.75C144.67 228.75 108.15 227.55 79.1602 217.91C80.1602 198.15 82.8502 165.73 89.5702 149.06C90.283 147.32 91.5109 145.839 93.0892 144.817C94.6675 143.795 96.5206 143.279 98.4002 143.34C107.14 143.6 123.97 144.53 137.81 147.9C138.771 150.242 140.124 152.403 141.81 154.29C128.36 156.29 136.48 180.05 145.06 188.23C135.88 190.61 139.91 207 145.2 219.42Z" fill="#B6FFA9"/>
<path d="M144.67 228.78C145.11 223.78 145.13 219.45 145.13 219.45H145.2C144.82 218.563 144.45 217.653 144.09 216.72C129.15 216.25 105.09 214.32 95.9704 206.97C85.9004 198.89 95.6804 162.32 101.57 143.52L98.3904 143.4C96.5109 143.339 94.6577 143.855 93.0795 144.877C91.5012 145.899 90.2733 147.38 89.5604 149.12C82.8404 165.79 80.1804 198.21 79.1504 217.97C108.15 227.61 144.66 228.81 144.66 228.81L144.67 228.78Z" fill="#98E588"/>
<path d="M79.1502 217.94C108.15 227.58 144.66 228.78 144.66 228.78C144.13 234.69 143.01 241.64 140.66 243.9C136.51 247.84 113.28 246.9 84.0502 236.58C82.454 236.013 81.0789 234.955 80.1229 233.557C79.1668 232.158 78.6792 230.493 78.7302 228.8C78.7802 225.99 78.9302 222.27 79.1502 217.94Z" fill="#A912F9"/>
<path d="M89.4609 232C87.3909 229.57 88.0309 224.95 89.2209 220.9C85.8109 220.01 82.4309 219.03 79.1509 217.9C78.9309 222.23 78.7809 225.95 78.6909 228.76C78.6413 230.455 79.1319 232.123 80.0917 233.521C81.0516 234.92 82.431 235.977 84.0309 236.54C113.261 246.89 136.491 247.8 140.641 243.86C141.705 242.638 142.457 241.176 142.831 239.6C121.371 241.05 92.7309 235.83 89.4609 232Z" fill="#8009CE"/>
<path d="M79.1505 217.94C78.9305 222.27 78.7805 225.99 78.6905 228.8C78.6409 230.495 79.1315 232.163 80.0913 233.561C81.0512 234.96 82.4306 236.017 84.0305 236.58C113.261 246.93 136.491 247.84 140.641 243.9C143.021 241.64 144.141 234.69 144.641 228.78C145.081 223.78 145.101 219.45 145.101 219.45H145.171C146.969 223.913 149.245 228.168 151.961 232.14C153.626 234.367 155.618 236.329 157.871 237.96C157.871 237.96 159.391 248.25 153.561 253.75C150.561 256.58 138.321 258.92 121.301 257.65C112.249 256.94 103.279 255.417 94.5005 253.1C85.7205 250.795 77.1502 247.754 68.8805 244.01C66.9538 243.135 65.2605 241.817 63.9383 240.165C62.6161 238.513 61.7021 236.572 61.2705 234.5C60.2705 229.37 59.8605 225.59 63.0705 210.8C83.3705 193.4 73.4205 151.1 73.4205 151.1C96.2105 139.86 98.4205 107.28 98.4205 94.91C129.611 87.91 145.421 99.91 145.421 99.91V100.14C134.051 101.88 133.991 117.64 145.831 126.86C135.951 126.57 133.721 138.35 137.731 147.93C123.891 144.56 107.061 143.63 98.3205 143.37C96.441 143.309 94.5879 143.825 93.0096 144.847C91.4313 145.869 90.2034 147.35 89.4905 149.09C82.8405 165.72 80.1805 198.18 79.1505 217.94Z" fill="#FCAD10"/>
<path d="M158.01 242.86C153.1 242.7 147.62 242.4 142.01 241.86C141.679 242.623 141.215 243.32 140.64 243.92C136.49 247.86 113.26 246.92 84.0297 236.6C82.434 236.029 81.0608 234.966 80.1083 233.564C79.1557 232.162 78.673 230.494 78.7297 228.8C78.8197 225.99 78.9697 222.27 79.1897 217.94C80.1897 198.18 82.8797 165.76 89.5997 149.09C90.3126 147.35 91.5405 145.869 93.1188 144.847C94.6971 143.825 96.5502 143.309 98.4297 143.37C100.28 143.43 102.5 143.52 104.96 143.65C108.96 123.49 113.52 104.47 116.45 92.65C110.389 92.7452 104.356 93.4793 98.4497 94.84C98.4497 107.21 96.2597 139.84 73.4497 151.03C73.4497 151.03 83.4497 193.33 63.0997 210.73C59.8897 225.52 60.2497 229.3 61.2997 234.43C61.7313 236.502 62.6453 238.443 63.9675 240.095C65.2897 241.747 66.983 243.065 68.9097 243.94C77.1794 247.684 85.7497 250.725 94.5297 253.03C103.309 255.347 112.278 256.87 121.33 257.58C138.33 258.85 150.59 256.51 153.59 253.68C156.78 250.72 157.73 246.27 158.01 242.86Z" fill="#F96F12"/>
<path d="M145.459 99.91C145.459 99.91 129.619 87.85 98.4591 94.91C98.4591 107.28 96.2691 139.91 73.4591 151.1C73.4591 151.1 83.4591 193.4 63.1091 210.8C58.5675 214.584 53.0282 216.973 47.1591 217.68C47.1591 217.68 34.9991 220.57 39.1591 205.57C43.3191 190.57 48.9291 163.48 38.1591 142.22C24.3291 114.85 42.9791 90.82 65.9191 75.66C73.3491 70.72 79.3391 58.96 81.2391 46.05C118.439 38.12 150.499 49.4 150.499 49.4C150.691 54.6206 151.826 59.7634 153.849 64.58C162.249 83.85 173.559 99.11 177.269 120.2H177.209C170.339 110.86 161.489 102.75 152.319 100.54C150.089 99.9501 147.766 99.8006 145.479 100.1L145.459 99.91Z" fill="#FFC2BD"/>
<path d="M81.2395 46.05C79.3395 58.96 73.3495 70.72 65.9195 75.66C42.9795 90.82 24.3295 114.85 38.1895 142.19C48.9695 163.45 43.4095 190.54 39.1895 205.54C34.9695 220.54 47.1895 217.65 47.1895 217.65C53.0585 216.943 58.5978 214.554 63.1395 210.77C66.7184 207.627 69.5418 203.716 71.3995 199.33C61.0695 208.9 52.3095 204.24 56.0895 193.6C60.4795 181.26 59.6995 166.94 53.3695 139.46C47.0395 111.98 58.6995 98.94 76.4495 82.27C88.0295 71.35 90.6495 54.63 91.0795 44.37C87.8495 44.79 84.5695 45.34 81.2395 46.05Z" fill="#F7A5A1"/>
<path d="M150.51 49.4C150.51 49.4 118.44 38.12 81.2396 46.05C82.5696 37.05 81.9096 27.46 78.3496 19.29C78.3496 19.29 113.76 -2.6 155.12 20.8C155.12 20.8 149.73 34.46 150.51 49.4Z" fill="#1071FF"/>
<path d="M150.5 49.4C150.349 46.1609 150.443 42.915 150.78 39.69C121.66 24.53 107.43 35.55 97.1998 32.24C91.9398 30.54 90.6598 22.3 90.8098 13.89C86.4706 15.2351 82.2897 17.0457 78.3398 19.29C81.8998 27.46 82.5598 37.03 81.2298 46.05C118.44 38.12 150.5 49.4 150.5 49.4Z" fill="#0963CE"/>
<path d="M97.2907 90.04C97.7621 97.5646 97.329 105.119 96.0007 112.54C94.4107 121.95 91.4607 131.41 85.8007 139.21C82.4683 143.86 78.0593 147.635 72.9507 150.21C72.7601 150.321 72.6116 150.492 72.5284 150.697C72.4452 150.901 72.4319 151.127 72.4907 151.34C73.3695 155.296 73.9908 159.304 74.3507 163.34C75.3337 171.792 75.0743 180.343 73.5807 188.72C71.8207 197.65 67.8607 206.58 60.1007 211.83C56.003 214.423 51.3892 216.092 46.5807 216.72C45.8888 216.82 45.1895 216.861 44.4907 216.84C43.4752 216.818 42.4802 216.55 41.5907 216.06C38.3507 214.16 39.2407 209.31 40.0107 206.35C41.2707 201.51 42.5407 196.7 43.4407 191.77C45.6307 179.89 46.3907 167.5 43.8907 155.6C43.2384 152.445 42.3218 149.351 41.1507 146.35C39.9507 143.28 38.3107 140.42 37.1507 137.35C35.0184 131.888 34.1434 126.016 34.5907 120.17C35.5907 108.63 41.9907 98.35 49.8307 90.17C54.1188 85.756 58.8241 81.7674 63.8807 78.26C66.1401 76.8332 68.2595 75.1959 70.2107 73.37C72.1363 71.3531 73.8148 69.114 75.2107 66.7C81.9302 55.0532 84.3507 41.418 82.0507 28.17C81.4615 24.9472 80.5122 21.8008 79.2207 18.79L78.8607 20.16C83.2532 17.6049 87.9593 15.6317 92.8607 14.29C104.488 10.7904 116.774 10.0677 128.731 12.18C137.833 13.8901 146.585 17.1149 154.621 21.72L154.161 20.59C152.843 24.0851 151.819 27.6843 151.101 31.35C149.415 38.8079 149.026 46.5002 149.951 54.09C151.041 62.02 154.671 69.09 158.251 76.18C161.581 82.78 165.131 89.27 168.251 95.97C171.987 103.772 174.703 112.024 176.331 120.52C176.551 121.78 178.481 121.25 178.261 119.99C175.631 105.31 168.761 92.21 161.991 79.1C160.281 75.78 158.581 72.44 156.991 69.1C155.139 65.4739 153.684 61.6584 152.651 57.72C150.841 50.01 151.191 41.84 152.651 34.08C153.391 29.644 154.56 25.2902 156.141 21.08C156.199 20.8673 156.186 20.6411 156.103 20.4367C156.02 20.2323 155.871 20.0612 155.681 19.95C142.237 12.2168 126.876 8.45457 111.381 9.1C101.53 9.58248 91.8534 11.8846 82.8407 15.89C81.119 16.6237 79.4486 17.4723 77.8407 18.43C77.7269 18.4962 77.6273 18.5841 77.5477 18.6889C77.468 18.7936 77.4097 18.913 77.3763 19.0403C77.3428 19.1675 77.3348 19.3002 77.3528 19.4305C77.3707 19.5609 77.4141 19.6865 77.4807 19.8C83.0707 32.8 81.5407 48.92 75.6407 61.59C73.3007 66.59 70.0807 71.64 65.4107 74.8C60.222 78.2319 55.3374 82.1028 50.8107 86.37C42.5107 94.37 35.4007 104.31 33.1807 115.78C32.0718 121.506 32.2391 127.406 33.6707 133.06C35.2907 139.51 38.9207 145.13 40.7907 151.49C44.3707 163.72 43.9607 176.72 41.8807 189.17C41.0204 194.244 39.9023 199.27 38.5307 204.23C37.5307 207.99 36.1807 212.97 38.9107 216.37C39.7111 217.256 40.7073 217.944 41.8201 218.378C42.9328 218.812 44.1314 218.98 45.3207 218.87C48.5121 218.678 51.6536 217.986 54.6307 216.82C64.3207 213.24 70.7007 205.21 73.8607 195.59C76.6707 187.05 77.2007 177.8 76.7607 168.87C76.4891 163.106 75.7703 157.372 74.6107 151.72C74.5507 151.42 74.4807 151.13 74.4207 150.84L73.9607 151.97C83.2707 147.32 89.5807 138.84 93.4407 129.37C96.7927 120.709 98.7341 111.566 99.1907 102.29C99.509 98.224 99.5424 94.1407 99.2907 90.07C99.2007 88.8 97.2007 88.79 97.2907 90.07V90.04Z" fill="black"/>
<path d="M150.73 48.44C146.404 47.0057 141.983 45.8763 137.5 45.06C126.638 42.9037 115.569 41.9745 104.5 42.29C96.5754 42.5213 88.6875 43.4583 80.9296 45.09C79.6696 45.35 80.1996 47.28 81.4596 47.02C102.802 42.6226 124.882 43.3285 145.9 49.08C147.33 49.47 148.78 49.87 150.19 50.37C151.4 50.79 151.93 48.86 150.72 48.44H150.73Z" fill="black"/>
<path d="M176.229 217.87C173.564 212.777 170.585 207.854 167.309 203.13C164.738 199.358 161.775 195.868 158.469 192.72C155.739 190.2 152.469 187.72 148.669 187.15C146.796 186.775 144.85 187.07 143.172 187.984C141.494 188.898 140.191 190.373 139.489 192.15C137.589 197.03 138.859 203 140.129 207.87C141.907 214.489 144.433 220.884 147.659 226.93C150.659 232.64 154.879 238.36 161.129 240.76C164.189 241.824 167.525 241.782 170.558 240.642C173.59 239.502 176.128 237.336 177.729 234.52C180.189 230 179.189 224.52 177.269 220.02C176.949 219.29 176.619 218.57 176.269 217.87C175.659 216.73 173.939 217.74 174.539 218.87C176.389 222.37 177.789 226.66 177.019 230.65C175.849 236.75 168.839 240.9 162.909 239.24C156.979 237.58 152.829 232.13 149.999 226.99C146.881 221.319 144.392 215.323 142.579 209.11C140.949 203.49 137.459 187.37 148.369 189.11C151.719 189.64 154.669 191.89 157.099 194.11C160.131 196.985 162.862 200.161 165.249 203.59C168.678 208.47 171.781 213.571 174.539 218.86C175.099 220.01 176.829 219 176.229 217.87Z" fill="black"/>
<path d="M175.881 219.24C181.581 215.92 184.421 208.73 183.121 202.4C181.991 196.9 179.511 191.57 177.051 186.56C174.574 181.489 171.73 176.606 168.541 171.95C165.483 167.329 161.85 163.116 157.731 159.41C154.451 156.58 150.571 154.02 146.211 153.41C142.521 152.86 138.331 153.41 135.911 156.55C133.911 159.09 133.531 162.55 133.751 165.66C134.161 170.141 135.377 174.511 137.341 178.56C139.017 182.441 141.39 185.983 144.341 189.01C145.271 189.9 146.691 188.49 145.761 187.6C140.761 182.75 137.461 175.52 136.131 168.75C135.541 165.75 135.271 162.4 136.431 159.53C137.591 156.66 140.331 155.31 143.361 155.23C147.691 155.11 151.611 157.16 154.951 159.77C158.838 162.955 162.273 166.656 165.161 170.77C171.633 179.438 176.695 189.073 180.161 199.32C181.591 203.74 182.081 208.21 179.701 212.43C178.557 214.543 176.886 216.324 174.851 217.6C174.633 217.738 174.477 217.955 174.416 218.206C174.354 218.457 174.392 218.721 174.521 218.944C174.65 219.168 174.861 219.332 175.109 219.404C175.356 219.476 175.622 219.45 175.851 219.33L175.881 219.24Z" fill="black"/>
<path d="M176.94 189.03C178.87 188.167 180.587 186.89 181.97 185.29C183.352 183.69 184.366 181.805 184.94 179.77C186.22 175.31 185.43 170.51 183.94 166.22C182.232 161.702 180.032 157.386 177.38 153.35C172.27 145.35 166.03 137.62 158.53 131.73C153.31 127.63 145.29 122.97 139.13 128.1C135.77 130.89 134.81 135.69 135.02 139.85C135.298 145.464 137.477 150.817 141.2 155.03C142.06 156.03 143.47 154.57 142.62 153.62C139.464 150.041 137.527 145.552 137.09 140.8C136.77 137.34 137.15 133.34 139.47 130.58C144.22 124.9 152.01 129.27 156.58 132.73C163.58 138.02 169.4 145.04 174.28 152.27C176.634 155.706 178.71 159.324 180.49 163.09C182.49 167.31 184 171.99 183.49 176.7C183.202 179.845 181.781 182.777 179.49 184.95C178.808 185.595 178.057 186.161 177.25 186.64C177.01 186.78 176.76 186.91 176.51 187.04C176.26 187.17 175.96 187.28 176.41 187.1C175.23 187.58 175.74 189.51 176.94 189.03Z" fill="black"/>
<path d="M181.531 164.14C186.161 164.14 189.661 160.08 190.841 155.93C191.859 151.979 191.749 147.821 190.521 143.93C189.067 138.997 187.054 134.246 184.521 129.77C179.061 119.85 171.681 110.11 162.091 103.88C155.441 99.55 143.461 95.51 137.951 103.69C135.691 107.05 135.631 111.48 136.681 115.27C138.163 120.169 141.151 124.477 145.221 127.58C146.221 128.37 147.651 126.96 146.641 126.17C141.101 121.79 135.851 113.67 138.791 106.37C142.171 97.95 153.511 101.16 159.411 104.57C168.601 109.9 175.671 118.81 181.071 127.79C183.653 132.004 185.82 136.458 187.541 141.09C188.751 144.45 189.791 148.02 189.541 151.63C189.331 155.07 188.241 158.89 185.201 160.88C184.392 161.412 183.495 161.795 182.551 162.01C182.228 162.113 181.89 162.16 181.551 162.15C181.286 162.15 181.031 162.255 180.844 162.443C180.656 162.63 180.551 162.885 180.551 163.15C180.551 163.415 180.656 163.67 180.844 163.857C181.031 164.045 181.286 164.15 181.551 164.15L181.531 164.14Z" fill="black"/>
<path d="M145.969 99.05C143.642 97.4379 141.101 96.1589 138.419 95.25C131.464 92.7659 124.114 91.5697 116.729 91.72C113.862 91.7452 110.997 91.9254 108.149 92.26C106.639 92.44 105.149 92.65 103.619 92.9C102.733 93.0533 101.843 93.2133 100.949 93.38C100.133 93.6303 99.2963 93.811 98.4492 93.92C98.184 93.92 97.9296 94.0254 97.7421 94.2129C97.5546 94.4004 97.4492 94.6548 97.4492 94.92C97.4492 95.1852 97.5546 95.4396 97.7421 95.6271C97.9296 95.8146 98.184 95.92 98.4492 95.92C99.779 95.7721 101.094 95.5111 102.379 95.14C103.879 94.86 105.379 94.61 106.889 94.42C109.419 94.08 111.959 93.87 114.499 93.77C118.846 93.5884 123.201 93.8363 127.499 94.51C132.816 95.2501 137.967 96.8938 142.729 99.37C143.522 99.7839 144.285 100.255 145.009 100.78C146.009 101.55 147.009 99.78 146.009 99.05H145.969Z" fill="black"/>
<path d="M156.939 238.2C156.869 237.77 156.939 238.47 156.939 238.62C156.993 239.16 157.023 239.7 157.029 240.24C157.087 241.952 156.963 243.664 156.659 245.35C156.029 248.66 154.539 252.4 151.339 253.97C148.276 255.278 145.02 256.078 141.699 256.34C136.357 256.966 130.972 257.144 125.599 256.87C113.689 256.302 101.893 254.287 90.4695 250.87C84.3732 249.094 78.3891 246.954 72.5495 244.46C69.9895 243.37 67.4295 242.36 65.4695 240.32C63.7987 238.563 62.6613 236.368 62.1895 233.99C60.5695 226.18 62.4995 218.36 64.0895 210.7C64.3495 209.44 62.4195 208.91 62.1595 210.17C60.5995 217.69 58.6395 225.5 60.0095 233.17C60.7995 237.65 62.9495 241.58 66.9195 244.01C69.7751 245.565 72.7554 246.88 75.8295 247.94C78.8995 249.15 82.0095 250.28 85.1595 251.3C97.1865 255.307 109.666 257.8 122.309 258.72C128.21 259.162 134.138 259.108 140.029 258.56C143.915 258.311 147.745 257.503 151.399 256.16C158.239 253.36 159.819 244.29 158.869 237.7C158.679 236.43 156.749 236.97 156.939 238.23V238.2Z" fill="black"/>
<path d="M144.129 219.45C144.129 222.56 143.949 225.68 143.669 228.78C143.319 232.78 142.879 236.91 141.439 240.64C140.729 242.49 139.919 243.54 138.139 244.12C136.335 244.649 134.469 244.942 132.589 244.99C126.327 245.197 120.061 244.701 113.909 243.51C105.042 241.947 96.3067 239.711 87.7793 236.82C85.7093 236.13 83.3893 235.61 81.7793 234.04C81.1183 233.375 80.5966 232.585 80.2446 231.716C79.8926 230.848 79.7174 229.917 79.7293 228.98C79.7293 224.98 80.0293 220.91 80.2493 216.89C80.6393 209.69 81.1493 202.5 81.8293 195.33C82.5693 187.44 83.5093 179.56 84.8293 171.74C85.8844 164.893 87.5238 158.148 89.7293 151.58C90.1805 149.961 90.945 148.445 91.9793 147.12C93.2254 145.739 94.8972 144.813 96.7293 144.49C98.3083 144.325 99.9002 144.325 101.479 144.49C103.179 144.56 104.879 144.65 106.579 144.75C115.102 145.198 123.587 146.2 131.979 147.75C132.979 147.95 134.069 148.17 135.109 148.39C135.993 148.682 136.905 148.883 137.829 148.99C138.094 148.99 138.349 148.885 138.536 148.697C138.724 148.51 138.829 148.255 138.829 147.99C138.829 147.725 138.724 147.47 138.536 147.283C138.349 147.095 138.094 146.99 137.829 146.99C136.81 146.846 135.807 146.612 134.829 146.29C133.649 146.04 132.459 145.81 131.269 145.59C128.936 145.17 126.603 144.8 124.269 144.48C119.823 143.88 115.356 143.413 110.869 143.08C107.229 142.81 103.569 142.61 99.8693 142.48C96.1693 142.35 92.7793 143.1 90.3093 146.03C88.2093 148.53 87.3093 152.17 86.4393 155.25C85.4393 158.81 84.5693 162.43 83.8393 166.07C82.2393 174.13 81.1593 182.29 80.2893 190.45C79.4593 198.28 78.8493 206.12 78.3793 213.98C78.1393 218.153 77.9393 222.327 77.7793 226.5C77.5726 228.307 77.6946 230.136 78.1393 231.9C78.7131 233.641 79.8051 235.166 81.2693 236.27C83.0593 237.63 85.3893 238.18 87.4893 238.88C89.8826 239.68 92.2893 240.433 94.7093 241.14C99.2393 242.46 103.829 243.62 108.459 244.57C115.479 246.132 122.639 246.987 129.829 247.12C132.206 247.161 134.58 246.97 136.919 246.55C138.445 246.346 139.895 245.765 141.139 244.86C143.549 242.86 144.229 238.86 144.759 235.94C145.521 231.481 145.959 226.972 146.069 222.45C146.069 221.45 146.139 220.45 146.139 219.51C146.139 219.245 146.034 218.99 145.846 218.803C145.659 218.615 145.404 218.51 145.139 218.51C144.874 218.51 144.62 218.615 144.432 218.803C144.245 218.99 144.139 219.245 144.139 219.51L144.129 219.45Z" fill="black"/>
<path d="M144.66 227.78C129.238 227.219 113.894 225.322 98.7997 222.11C92.1956 220.76 85.6748 219.03 79.2697 216.93C78.0397 216.52 77.5197 218.45 78.7397 218.86C90.1149 222.492 101.786 225.122 113.62 226.72C122.3 228.01 131.05 228.94 139.82 229.49C141.43 229.59 143.05 229.69 144.66 229.74C145.95 229.79 145.95 227.79 144.66 227.74V227.78Z" fill="black"/>
<path d="M120.331 257.62C118.997 267.98 117.587 278.313 116.101 288.62C113.891 304.12 111.851 319.73 108.591 335.05C108.16 337.81 107.318 340.49 106.091 343C105.234 344.586 104.07 345.986 102.665 347.116C101.26 348.246 99.6439 349.083 97.9108 349.58C96.4326 350.027 94.865 350.091 93.3554 349.765C91.8458 349.44 90.4437 348.736 89.2808 347.72C86.4008 344.99 85.9008 340.84 86.0408 337.08C86.2908 330.55 87.0408 324.08 87.6608 317.55C88.5708 308.81 89.5908 300.09 90.6608 291.37C92.1808 278.83 93.7808 266.293 95.4608 253.76C95.4608 253.64 95.5308 253.06 95.4608 253.52V253.35C95.6308 252.09 93.7008 251.55 93.5308 252.82C92.0508 263.793 90.6374 274.793 89.2908 285.82C87.2908 302.09 85.0708 318.44 84.1208 334.82C83.9008 338.53 83.8108 342.3 85.4108 345.76C86.0994 347.309 87.1501 348.67 88.4745 349.728C89.7988 350.786 91.358 351.51 93.0208 351.84C100.741 353.26 107.451 347.11 109.441 340.06C110.929 334.203 112.104 328.272 112.961 322.29C114.391 313.76 115.681 305.2 116.961 296.64C118.814 283.9 120.571 271.14 122.231 258.36L122.321 257.69C122.491 256.42 120.481 256.43 120.321 257.69L120.331 257.62Z" fill="black"/>
<path d="M129.731 164.94C123.762 170.692 117.415 176.038 110.731 180.94C109.731 181.69 110.731 183.43 111.731 182.66C118.569 177.662 125.057 172.203 131.151 166.32C132.081 165.42 130.661 164.01 129.741 164.91L129.731 164.94Z" fill="black"/>
<path d="M119.89 161.78C116.89 164.07 113.79 166.26 110.63 168.32C109.55 169.03 110.55 170.76 111.63 170.05C114.79 167.977 117.877 165.797 120.89 163.51C121.004 163.444 121.104 163.356 121.184 163.251C121.263 163.146 121.321 163.027 121.355 162.9C121.388 162.772 121.396 162.64 121.378 162.509C121.36 162.379 121.317 162.254 121.25 162.14C121.184 162.026 121.096 161.927 120.992 161.847C120.887 161.767 120.767 161.709 120.64 161.676C120.513 161.642 120.38 161.634 120.25 161.652C120.12 161.67 119.994 161.713 119.88 161.78H119.89Z" fill="black"/>
<path d="M106.32 99.88C105.26 101.107 104.217 102.323 103.19 103.53C103.012 103.724 102.909 103.976 102.9 104.24C102.899 104.439 102.957 104.633 103.067 104.799C103.177 104.964 103.333 105.093 103.517 105.169C103.7 105.246 103.902 105.265 104.097 105.226C104.292 105.187 104.471 105.091 104.61 104.95L107.73 101.3C107.916 101.109 108.023 100.856 108.03 100.59C108.032 100.391 107.974 100.197 107.864 100.031C107.754 99.8659 107.597 99.7368 107.414 99.6606C107.23 99.5845 107.028 99.5646 106.834 99.6037C106.639 99.6428 106.46 99.739 106.32 99.88Z" fill="black"/>
<path d="M112.729 100.34C109.997 104.003 106.785 107.283 103.179 110.09C102.993 110.277 102.889 110.531 102.889 110.795C102.889 111.059 102.993 111.313 103.179 111.5C103.272 111.594 103.383 111.668 103.505 111.719C103.627 111.77 103.757 111.796 103.889 111.796C104.021 111.796 104.152 111.77 104.274 111.719C104.396 111.668 104.507 111.594 104.599 111.5C108.328 108.575 111.644 105.161 114.459 101.35C114.579 101.121 114.606 100.856 114.534 100.608C114.462 100.36 114.297 100.15 114.074 100.021C113.851 99.8916 113.586 99.8538 113.335 99.9152C113.085 99.9766 112.868 100.132 112.729 100.35V100.34Z" fill="black"/>
<path d="M116.611 129.66C116.611 129.66 120.611 115.95 116.831 115.08C113.051 114.21 101.101 118.41 103.171 123.5C105.241 128.59 114.271 134.15 116.611 129.66Z" fill="#EA364C"/>
<path d="M117.579 129.92C118.355 127.249 118.914 124.521 119.249 121.76C119.548 120.027 119.521 118.253 119.169 116.53C119.035 115.808 118.651 115.157 118.084 114.69C117.517 114.224 116.804 113.972 116.069 113.98C114.186 113.943 112.312 114.251 110.539 114.89C108.453 115.517 106.488 116.494 104.729 117.78C103.309 118.87 101.969 120.38 101.939 122.27C101.939 124.35 103.559 126.36 104.939 127.76C106.782 129.728 109.099 131.188 111.669 132C113.849 132.62 116.319 132.32 117.499 130.16C118.109 129.03 116.389 128.02 115.769 129.16C115.039 130.5 113.579 130.47 112.199 130.08C110.252 129.462 108.473 128.405 106.999 126.99C105.829 125.91 104.149 124.14 103.999 122.61C103.937 122.032 104.09 121.452 104.429 120.98C104.848 120.357 105.372 119.812 105.979 119.37C107.422 118.313 109.026 117.496 110.729 116.95C112.295 116.355 113.946 116.018 115.619 115.95H116.109C116.179 115.95 116.519 115.95 116.339 115.95L116.679 116.02C116.742 116.038 116.8 116.068 116.849 116.11C116.649 115.94 116.939 116.22 116.979 116.26C116.839 116.1 116.979 116.33 117.049 116.39C117.167 116.584 117.248 116.797 117.289 117.02C117.535 118.48 117.535 119.97 117.289 121.43C116.964 124.111 116.415 126.76 115.649 129.35C115.574 129.606 115.603 129.881 115.731 130.116C115.858 130.35 116.074 130.524 116.329 130.6C116.585 130.676 116.861 130.646 117.095 130.519C117.33 130.391 117.504 130.176 117.579 129.92Z" fill="black"/>
<path d="M120.811 129.45C120.811 129.45 121.371 115.2 125.201 115.55C129.031 115.9 139.081 123.66 135.511 127.84C131.941 132.02 121.621 134.45 120.811 129.45Z" fill="#EA364C"/>
<path d="M121.809 129.45C121.897 127.214 122.131 124.986 122.509 122.78C122.746 121.216 123.155 119.684 123.729 118.21C123.939 117.69 124.236 117.209 124.609 116.79L124.759 116.65C124.909 116.52 125.059 116.49 124.859 116.58C124.949 116.58 125.279 116.52 125.019 116.58C125.079 116.58 125.429 116.58 125.249 116.58C126.802 116.934 128.262 117.616 129.529 118.58C131.177 119.673 132.639 121.024 133.859 122.58C134.365 123.208 134.773 123.91 135.069 124.66C135.321 125.244 135.37 125.895 135.209 126.51C134.799 127.89 132.799 129.03 131.509 129.68C129.577 130.71 127.429 131.268 125.239 131.31C123.599 131.31 122.109 130.85 121.819 129.25C121.589 127.98 119.659 128.52 119.889 129.78C120.729 134.42 127.089 133.51 130.249 132.38C132.444 131.646 134.427 130.39 136.029 128.72C136.667 128.023 137.077 127.147 137.204 126.211C137.331 125.275 137.169 124.322 136.739 123.48C135.8 121.533 134.432 119.824 132.739 118.48C131.106 117.041 129.252 115.873 127.249 115.02C125.839 114.45 124.329 114.17 123.149 115.35C122.087 116.621 121.377 118.149 121.089 119.78C120.337 122.931 119.911 126.152 119.819 129.39C119.729 130.72 121.729 130.72 121.809 129.45Z" fill="black"/>
<path d="M170.63 123.19L167.83 128.99C167.758 129.104 167.709 129.231 167.687 129.364C167.665 129.497 167.67 129.633 167.703 129.764C167.735 129.895 167.793 130.019 167.874 130.126C167.955 130.234 168.057 130.325 168.173 130.392C168.29 130.46 168.419 130.503 168.553 130.519C168.687 130.535 168.823 130.524 168.952 130.487C169.082 130.449 169.203 130.386 169.307 130.301C169.411 130.215 169.497 130.11 169.56 129.99L172.35 124.19C172.452 123.964 172.467 123.709 172.391 123.473C172.316 123.237 172.155 123.038 171.941 122.914C171.727 122.789 171.475 122.749 171.232 122.8C170.99 122.851 170.776 122.99 170.63 123.19Z" fill="black"/>
<path d="M166.91 121.93V122.02L167.02 121.78C166.652 122.631 166.221 123.453 165.73 124.24C165.648 124.353 165.59 124.482 165.561 124.619C165.532 124.756 165.532 124.897 165.561 125.034C165.589 125.171 165.647 125.301 165.729 125.414C165.811 125.527 165.915 125.622 166.036 125.693C166.157 125.763 166.292 125.807 166.431 125.822C166.57 125.837 166.711 125.823 166.844 125.781C166.977 125.738 167.1 125.668 167.205 125.575C167.309 125.482 167.393 125.368 167.45 125.24C168.006 124.352 168.484 123.419 168.88 122.45C168.916 122.321 168.925 122.187 168.908 122.055C168.891 121.923 168.847 121.795 168.78 121.68C168.643 121.459 168.43 121.295 168.18 121.22C167.92 121.158 167.646 121.193 167.41 121.32L167.21 121.48C167.087 121.602 166.997 121.753 166.95 121.92L166.91 121.93Z" fill="black"/>
<path d="M166.109 150.41C165.199 153.22 165.509 156.36 164.299 159.09C164.233 159.204 164.189 159.329 164.171 159.459C164.154 159.59 164.161 159.722 164.195 159.85C164.228 159.977 164.287 160.096 164.366 160.201C164.446 160.306 164.546 160.394 164.659 160.46C164.773 160.527 164.898 160.57 165.029 160.588C165.159 160.606 165.292 160.598 165.419 160.564C165.546 160.531 165.666 160.473 165.77 160.393C165.875 160.313 165.963 160.214 166.029 160.1C167.319 157.18 167.029 153.94 168.029 150.94C168.429 149.71 166.499 149.19 166.099 150.41H166.109Z" fill="black"/>
<path d="M162.33 150.47C162.344 150.716 162.344 150.964 162.33 151.21V150.94C162.262 151.446 162.128 151.94 161.93 152.41L162.03 152.17C162.004 152.238 161.974 152.305 161.94 152.37C161.817 152.607 161.782 152.88 161.84 153.14C161.917 153.388 162.08 153.601 162.3 153.74C162.415 153.807 162.542 153.851 162.674 153.868C162.807 153.885 162.941 153.876 163.07 153.84C163.322 153.771 163.537 153.606 163.67 153.38C164.103 152.47 164.335 151.478 164.35 150.47C164.35 150.338 164.325 150.208 164.275 150.086C164.226 149.964 164.152 149.853 164.06 149.76C163.868 149.577 163.614 149.474 163.35 149.47C163.084 149.47 162.83 149.575 162.642 149.763C162.455 149.95 162.35 150.205 162.35 150.47H162.33Z" fill="black"/>
<path d="M162.219 181.51L159.639 188.05C159.605 188.177 159.595 188.309 159.611 188.44C159.628 188.57 159.669 188.696 159.734 188.81C159.799 188.924 159.886 189.025 159.99 189.105C160.094 189.186 160.213 189.245 160.339 189.28C160.466 189.315 160.598 189.324 160.729 189.308C160.859 189.292 160.985 189.25 161.1 189.185C161.214 189.12 161.314 189.033 161.395 188.929C161.475 188.825 161.535 188.707 161.569 188.58L164.149 182.04C164.184 181.913 164.194 181.781 164.178 181.65C164.161 181.52 164.119 181.394 164.054 181.28C163.989 181.166 163.902 181.065 163.799 180.985C163.695 180.904 163.576 180.845 163.449 180.81C163.323 180.775 163.19 180.766 163.06 180.782C162.929 180.798 162.804 180.84 162.689 180.905C162.575 180.97 162.475 181.057 162.394 181.161C162.313 181.265 162.254 181.383 162.219 181.51Z" fill="black"/>
<path d="M158.821 179.72C158.751 179.93 158.681 180.13 158.601 180.32L158.701 180.08C158.417 180.746 158.051 181.374 157.611 181.95L157.761 181.75L157.421 182.17C157.328 182.263 157.255 182.374 157.205 182.496C157.155 182.618 157.13 182.748 157.131 182.88C157.132 183.142 157.236 183.394 157.421 183.58C157.608 183.766 157.862 183.871 158.126 183.871C158.39 183.871 158.644 183.766 158.831 183.58C159.684 182.611 160.336 181.483 160.751 180.26C160.786 180.133 160.795 180.001 160.779 179.87C160.763 179.74 160.721 179.614 160.656 179.5C160.591 179.386 160.504 179.285 160.4 179.205C160.296 179.124 160.178 179.065 160.051 179.03C159.796 178.959 159.524 178.992 159.294 179.121C159.063 179.251 158.893 179.466 158.821 179.72Z" fill="black"/>
<path d="M160.941 215.54C160.851 215.77 161.041 215.34 160.941 215.54L160.851 215.73C160.801 215.85 160.741 215.96 160.681 216.08C160.621 216.2 160.431 216.52 160.291 216.74L160.071 217.06C160.025 217.112 159.985 217.169 159.951 217.23L160.021 217.13L159.931 217.24C159.772 217.443 159.601 217.636 159.421 217.82C159.241 218 159.061 218.18 158.861 218.35L158.561 218.59C158.511 218.64 158.561 218.59 158.631 218.59L158.541 218.66L158.401 218.76C157.964 219.067 157.499 219.332 157.011 219.55C156.897 219.616 156.798 219.704 156.718 219.809C156.638 219.914 156.58 220.033 156.547 220.16C156.513 220.288 156.505 220.42 156.523 220.551C156.541 220.681 156.584 220.806 156.651 220.92C156.717 221.034 156.805 221.133 156.91 221.213C157.014 221.293 157.134 221.351 157.261 221.384C157.388 221.418 157.521 221.426 157.651 221.408C157.782 221.39 157.907 221.347 158.021 221.28C160.242 220.239 161.978 218.384 162.871 216.1C162.906 215.973 162.915 215.841 162.899 215.71C162.883 215.58 162.841 215.454 162.776 215.34C162.711 215.226 162.624 215.125 162.52 215.045C162.416 214.964 162.298 214.905 162.171 214.87C162.044 214.835 161.912 214.826 161.781 214.842C161.651 214.858 161.525 214.9 161.411 214.965C161.297 215.03 161.196 215.117 161.116 215.221C161.035 215.325 160.976 215.443 160.941 215.57V215.54Z" fill="black"/>
<path d="M158.94 212.45C157.94 213.33 156.94 214.2 155.94 215.06C155.848 215.153 155.774 215.264 155.725 215.386C155.675 215.508 155.65 215.638 155.65 215.77C155.654 216.035 155.758 216.288 155.94 216.48C156.128 216.666 156.381 216.771 156.645 216.771C156.91 216.771 157.163 216.666 157.35 216.48C158.35 215.62 159.35 214.75 160.35 213.87C160.444 213.777 160.519 213.666 160.569 213.545C160.62 213.423 160.646 213.292 160.646 213.16C160.646 213.028 160.62 212.897 160.569 212.775C160.519 212.654 160.444 212.543 160.35 212.45C160.163 212.264 159.91 212.159 159.645 212.159C159.381 212.159 159.128 212.264 158.94 212.45Z" fill="black"/>
<path d="M89.9395 36.77C90.0528 34.77 90.0961 32.75 90.0695 30.71C90.0695 30.4448 89.9641 30.1904 89.7766 30.0029C89.589 29.8153 89.3347 29.71 89.0695 29.71C88.8042 29.71 88.5499 29.8153 88.3624 30.0029C88.1748 30.1904 88.0695 30.4448 88.0695 30.71C88.0695 32.71 88.0261 34.73 87.9395 36.77C87.9395 37.0352 88.0448 37.2896 88.2323 37.4771C88.4199 37.6646 88.6742 37.77 88.9395 37.77C89.2047 37.77 89.459 37.6646 89.6466 37.4771C89.8341 37.2896 89.9395 37.0352 89.9395 36.77Z" fill="black"/>
<path d="M94.0801 35.34L94.1701 32.24C94.1701 31.9748 94.0647 31.7204 93.8772 31.5329C93.6897 31.3454 93.4353 31.24 93.1701 31.24C92.9049 31.24 92.6505 31.3454 92.463 31.5329C92.2754 31.7204 92.1701 31.9748 92.1701 32.24L92.0801 35.34C92.0801 35.6052 92.1854 35.8596 92.373 36.0471C92.5605 36.2346 92.8149 36.34 93.0801 36.34C93.3453 36.34 93.5996 36.2346 93.7872 36.0471C93.9747 35.8596 94.0801 35.6052 94.0801 35.34Z" fill="black"/>
<path d="M148.019 24.42L146.639 30.72C146.569 30.9759 146.603 31.2493 146.735 31.48C146.866 31.7106 147.083 31.8797 147.339 31.95C147.595 32.0203 147.869 31.986 148.099 31.8547C148.33 31.7235 148.499 31.5059 148.569 31.25L149.949 24.96C150.02 24.7041 149.985 24.4307 149.854 24.2C149.723 23.9694 149.505 23.8003 149.249 23.73C148.993 23.6597 148.72 23.694 148.489 23.8253C148.259 23.9565 148.09 24.1741 148.019 24.43V24.42Z" fill="black"/>
<path d="M144.47 25.42C144.47 25.49 144.47 25.55 144.47 25.62V25.36C144.4 25.8931 144.259 26.4145 144.05 26.91L144.15 26.67V26.76C144.078 26.8704 144.037 26.9982 144.03 27.13C143.995 27.261 143.995 27.399 144.03 27.53C144.099 27.7825 144.264 27.9979 144.49 28.13C144.606 28.1972 144.733 28.2406 144.865 28.2578C144.997 28.275 145.132 28.2655 145.26 28.23C145.385 28.1978 145.502 28.1403 145.603 28.0612C145.705 27.9821 145.789 27.883 145.85 27.77C146.024 27.4033 146.165 27.0218 146.27 26.63C146.374 26.2333 146.444 25.8285 146.48 25.42C146.481 25.2884 146.456 25.1579 146.406 25.0361C146.356 24.9142 146.283 24.8034 146.19 24.71C145.999 24.5273 145.745 24.4237 145.48 24.42C145.341 24.4151 145.203 24.4392 145.074 24.4909C144.945 24.5426 144.828 24.6206 144.73 24.72L144.58 24.92C144.489 25.0743 144.44 25.2505 144.44 25.43L144.47 25.42Z" fill="black"/>
<path d="M143.491 56.13C144.337 60.0633 145.377 63.9433 146.611 67.77C147.001 68.99 148.931 68.47 148.531 67.24C147.297 63.4067 146.261 59.5267 145.421 55.6C145.151 54.34 143.221 54.88 143.491 56.13Z" fill="black"/>
<path d="M140.18 57.88C140.434 60.261 140.875 62.6183 141.5 64.93C141.534 65.0568 141.594 65.1755 141.674 65.2793C141.755 65.3831 141.855 65.47 141.97 65.535C142.084 65.6 142.21 65.6419 142.34 65.6582C142.471 65.6745 142.603 65.6649 142.73 65.63C142.856 65.5953 142.975 65.5359 143.079 65.4553C143.183 65.3747 143.27 65.2744 143.335 65.1601C143.4 65.0459 143.442 64.92 143.458 64.7895C143.474 64.6591 143.465 64.5267 143.43 64.4C142.841 62.2632 142.423 60.083 142.18 57.88C142.18 57.6148 142.074 57.3604 141.887 57.1729C141.699 56.9854 141.445 56.88 141.18 56.88C140.914 56.88 140.66 56.9854 140.473 57.1729C140.285 57.3604 140.18 57.6148 140.18 57.88Z" fill="black"/>
<path d="M55.3505 93.72L46.3505 104.72C46.2568 104.813 46.1824 104.924 46.1316 105.045C46.0808 105.167 46.0547 105.298 46.0547 105.43C46.0547 105.562 46.0808 105.693 46.1316 105.815C46.1824 105.936 46.2568 106.047 46.3505 106.14C46.5378 106.326 46.7913 106.431 47.0555 106.431C47.3197 106.431 47.5731 106.326 47.7605 106.14L56.7605 95.14C56.8523 95.0451 56.9244 94.9329 56.9726 94.81C57.0208 94.687 57.0442 94.5558 57.0414 94.4238C57.0386 94.2917 57.0097 94.1616 56.9563 94.0408C56.903 93.92 56.8262 93.811 56.7305 93.72C56.5431 93.5338 56.2897 93.4292 56.0255 93.4292C55.7613 93.4292 55.5078 93.5338 55.3205 93.72H55.3505Z" fill="black"/>
<path d="M55.4706 100.19C55.105 100.947 54.7012 101.684 54.2606 102.4C54.0406 102.76 53.8106 103.11 53.5706 103.46L53.2106 103.97L53.0206 104.23C53.0206 104.23 52.7806 104.54 52.9306 104.34C52.7563 104.537 52.654 104.787 52.6406 105.05C52.6417 105.312 52.7459 105.564 52.9306 105.75C53.0236 105.844 53.1342 105.918 53.2561 105.969C53.3779 106.02 53.5086 106.046 53.6406 106.046C53.7726 106.046 53.9033 106.02 54.0252 105.969C54.1471 105.918 54.2577 105.844 54.3506 105.75C55.4544 104.335 56.4094 102.811 57.2006 101.2C57.2672 101.086 57.3106 100.961 57.3285 100.831C57.3465 100.7 57.3385 100.568 57.305 100.44C57.2716 100.313 57.2133 100.194 57.1336 100.089C57.054 99.9841 56.9544 99.8962 56.8406 99.83C56.7271 99.7635 56.6015 99.72 56.4712 99.7021C56.3408 99.6842 56.2082 99.6922 56.0809 99.7256C55.9536 99.7591 55.8342 99.8173 55.7295 99.897C55.6248 99.9767 55.5368 100.076 55.4706 100.19Z" fill="black"/>
<path d="M50.0593 209.92C49.7158 209.737 49.382 209.537 49.0593 209.32L48.5893 208.99L48.3393 208.8H48.3893L48.2593 208.7C47.6523 208.211 47.0839 207.676 46.5593 207.1C46.372 206.914 46.1185 206.809 45.8543 206.809C45.5901 206.809 45.3367 206.914 45.1493 207.1C45.0556 207.193 44.9812 207.304 44.9304 207.425C44.8797 207.547 44.8535 207.678 44.8535 207.81C44.8535 207.942 44.8797 208.073 44.9304 208.195C44.9812 208.316 45.0556 208.427 45.1493 208.52C46.2727 209.747 47.582 210.79 49.0293 211.61C49.1429 211.677 49.2684 211.72 49.3988 211.738C49.5291 211.756 49.6618 211.748 49.789 211.714C49.9163 211.681 50.0357 211.623 50.1405 211.543C50.2452 211.463 50.3332 211.364 50.3993 211.25C50.4658 211.136 50.5093 211.011 50.5272 210.881C50.5451 210.75 50.5371 210.618 50.5037 210.49C50.4703 210.363 50.412 210.244 50.3323 210.139C50.2526 210.034 50.1531 209.946 50.0393 209.88L50.0593 209.92Z" fill="black"/>
<path d="M56.4899 206.64C54.9199 205.09 53.2799 203.64 51.5899 202.18C51.3986 202.016 51.1525 201.931 50.9009 201.94C50.6492 201.95 50.4104 202.054 50.2323 202.232C50.0543 202.411 49.9499 202.649 49.9402 202.901C49.9305 203.153 50.0161 203.399 50.1799 203.59C51.8799 205.01 53.5099 206.5 55.0699 208.06C55.1629 208.154 55.2735 208.228 55.3953 208.279C55.5172 208.33 55.6479 208.356 55.7799 208.356C55.9119 208.356 56.0426 208.33 56.1645 208.279C56.2863 208.228 56.3969 208.154 56.4899 208.06C56.5836 207.967 56.658 207.856 56.7088 207.735C56.7596 207.613 56.7857 207.482 56.7857 207.35C56.7857 207.218 56.7596 207.087 56.7088 206.965C56.658 206.844 56.5836 206.733 56.4899 206.64Z" fill="black"/>
<path d="M144.1 260.98C142.46 261.393 140.787 261.66 139.1 261.78L133.76 262.41C133.495 262.41 133.24 262.515 133.053 262.703C132.865 262.89 132.76 263.145 132.76 263.41C132.76 263.675 132.865 263.93 133.053 264.117C133.24 264.305 133.495 264.41 133.76 264.41L139.31 263.75C141.098 263.626 142.871 263.345 144.61 262.91C144.866 262.84 145.083 262.671 145.215 262.44C145.346 262.209 145.38 261.936 145.31 261.68C145.239 261.424 145.07 261.207 144.84 261.075C144.609 260.944 144.336 260.91 144.08 260.98H144.1Z" fill="black"/>
<path d="M142.62 266.83C140.675 266.857 138.734 267.014 136.81 267.3C136.683 267.335 136.565 267.394 136.461 267.475C136.357 267.555 136.27 267.656 136.205 267.77C136.14 267.884 136.098 268.01 136.082 268.14C136.066 268.271 136.075 268.403 136.11 268.53C136.145 268.657 136.204 268.775 136.285 268.879C136.365 268.983 136.466 269.07 136.58 269.135C136.694 269.2 136.82 269.242 136.951 269.258C137.081 269.274 137.213 269.265 137.34 269.23H137.67H137.89L138.54 269.16C138.99 269.11 139.44 269.06 139.9 269.03C140.8 268.96 141.71 268.92 142.62 268.91C142.885 268.91 143.14 268.805 143.327 268.617C143.515 268.43 143.62 268.175 143.62 267.91C143.62 267.645 143.515 267.39 143.327 267.203C143.14 267.015 142.885 266.91 142.62 266.91V266.83Z" fill="black"/>
<path d="M82.2597 255.26C78.5864 253.78 74.8664 252.447 71.0997 251.26C69.8697 250.86 69.3497 252.79 70.5697 253.18C74.3297 254.4 78.0464 255.753 81.7198 257.24C81.8465 257.275 81.9788 257.284 82.1093 257.268C82.2397 257.252 82.3656 257.21 82.4799 257.145C82.5941 257.08 82.6944 256.993 82.775 256.889C82.8557 256.785 82.915 256.667 82.9498 256.54C83.0206 256.285 82.9878 256.013 82.8585 255.783C82.7292 255.552 82.5139 255.382 82.2597 255.31V255.26Z" fill="black"/>
<path d="M78.571 259.48C75.751 258.69 72.941 257.89 70.131 257.06C69.875 256.99 69.6017 257.024 69.371 257.155C69.1403 257.287 68.9712 257.504 68.901 257.76C68.8307 258.016 68.8649 258.289 68.9962 258.52C69.1275 258.751 69.345 258.92 69.601 258.99C72.411 259.82 75.221 260.62 78.041 261.41C78.2969 261.48 78.5703 261.446 78.8009 261.315C79.0316 261.183 79.2007 260.966 79.271 260.71C79.3412 260.454 79.307 260.181 79.1757 259.95C79.0444 259.719 78.8269 259.55 78.571 259.48Z" fill="black"/>
<path d="M106.37 321.11C106.37 321.11 111.78 297.91 108.91 295.81C106.04 293.71 101.32 292.81 96.6097 293.81C91.8997 294.81 87.7297 343.98 94.3597 344.81C100.99 345.64 106.37 321.11 106.37 321.11Z" fill="#FF2468"/>
<path d="M100.29 281.99C100.29 281.99 105.17 261.49 101.46 258.89C97.7502 256.29 93.7902 276.33 94.9902 281.89C95.9502 286.2 99.7302 285.06 100.29 281.99Z" fill="white"/>
<path d="M98.1797 288.57C98.044 288.179 97.8214 287.824 97.5287 287.531C97.236 287.238 96.8808 287.016 96.4897 286.88C96.021 286.73 95.5148 286.748 95.0579 286.931C94.601 287.113 94.2219 287.449 93.9854 287.881C93.749 288.312 93.67 288.813 93.762 289.296C93.854 289.779 94.1113 290.216 94.4897 290.53C94.8411 290.813 95.2612 290.998 95.7072 291.067C96.1533 291.135 96.6095 291.085 97.0297 290.92C97.486 290.75 97.8596 290.412 98.0736 289.974C98.2876 289.537 98.3256 289.034 98.1797 288.57Z" fill="white"/>
<path d="M90.6694 206.49C90.4941 205.979 90.2037 205.514 89.8205 205.133C89.4373 204.751 88.9716 204.463 88.4594 204.29C85.6094 203.16 83.3594 207.22 85.8294 209.05C86.2864 209.421 86.8338 209.663 87.4154 209.753C87.997 209.843 88.592 209.776 89.1394 209.56C89.7393 209.342 90.2326 208.902 90.5173 208.33C90.802 207.759 90.8565 207.1 90.6694 206.49Z" fill="white"/>
<path d="M96.1905 179.3C97.3505 171.77 100.38 156.57 95.3305 155.56C90.2805 154.55 84.0705 199.16 87.0705 200.77C92.6505 203.77 95.3405 184.82 96.1905 179.3Z" fill="white"/>
<path d="M119.5 200.32C119.49 199.871 119.651 199.435 119.95 199.1C120.268 198.795 120.674 198.599 121.11 198.54C122.023 198.346 122.949 198.223 123.88 198.17C123.98 197.39 124.08 196.62 124.16 195.85L124.4 193.56C124.4 193.21 124.51 192.71 124.57 192.08C124.624 191.461 124.735 190.849 124.9 190.25C125.053 189.696 125.293 189.169 125.61 188.69C125.736 188.487 125.913 188.32 126.124 188.208C126.335 188.095 126.572 188.041 126.81 188.05C127.038 188.054 127.261 188.118 127.456 188.235C127.651 188.353 127.811 188.52 127.92 188.72C128.189 189.179 128.382 189.679 128.49 190.2C128.613 190.759 128.686 191.328 128.71 191.9C128.71 192.47 128.71 192.9 128.71 193.24C128.71 194.06 128.64 194.86 128.57 195.65C128.5 196.44 128.43 197.23 128.36 198.03C128.88 198.03 129.4 198.03 129.92 198.03C130.44 198.03 130.96 198.03 131.48 198.03C131.72 198.03 132.02 198.03 132.38 198.03C132.74 198.03 133.1 198.08 133.46 198.13C133.803 198.177 134.138 198.265 134.46 198.39C134.729 198.485 134.96 198.664 135.12 198.9C135.238 199.13 135.306 199.382 135.32 199.64C135.36 199.993 135.39 200.373 135.41 200.78C135.41 201.19 135.41 201.59 135.41 201.97C135.41 202.35 135.41 202.63 135.41 202.81C135.41 203.27 135.41 203.72 135.41 204.16C135.41 204.6 135.41 205.05 135.32 205.5C135.23 205.95 135.24 206.5 135.2 207.08C135.152 207.672 135.034 208.255 134.85 208.82C134.681 209.34 134.413 209.822 134.06 210.24C133.877 210.436 133.651 210.588 133.399 210.683C133.148 210.779 132.878 210.815 132.61 210.79C132.425 210.789 132.243 210.735 132.086 210.636C131.929 210.538 131.802 210.397 131.72 210.23C131.488 209.831 131.316 209.4 131.21 208.95C131.101 208.47 131.03 207.982 131 207.49C131 207 131 206.63 131 206.37C131 205.77 131.06 205.17 131.13 204.57C131.2 203.97 131.29 203.39 131.4 202.81L129.68 202.87L127.95 202.92C127.95 203.12 127.88 203.52 127.81 204.13C127.74 204.74 127.66 205.39 127.56 206.07C127.46 206.75 127.36 207.4 127.27 208C127.225 208.397 127.131 208.786 126.99 209.16C126.823 209.534 126.557 209.856 126.22 210.09C125.873 210.324 125.46 210.443 125.04 210.43C124.828 210.443 124.616 210.402 124.424 210.312C124.231 210.221 124.065 210.082 123.94 209.91C123.72 209.562 123.58 209.169 123.53 208.76C123.441 208.184 123.398 207.603 123.4 207.02C123.4 206.42 123.4 205.83 123.4 205.25C123.4 204.39 123.48 203.53 123.56 202.68L122.28 202.49C121.86 202.42 121.43 202.32 120.99 202.21C120.554 202.123 120.165 201.877 119.9 201.52C119.641 201.174 119.5 200.753 119.5 200.32Z" fill="black"/>
<path d="M115.19 189.72C115.219 189.3 115.317 188.888 115.48 188.5C115.66 187.998 115.884 187.513 116.15 187.05C116.389 186.607 116.689 186.2 117.04 185.84C117.155 185.7 117.298 185.585 117.46 185.502C117.622 185.419 117.799 185.371 117.98 185.36C118.062 185.351 118.145 185.361 118.222 185.39C118.3 185.418 118.369 185.465 118.426 185.525C118.482 185.585 118.523 185.657 118.547 185.736C118.57 185.815 118.575 185.899 118.56 185.98C118.56 186.217 118.501 186.451 118.39 186.66C118.29 186.88 118.17 187.09 118.05 187.3C117.92 187.499 117.803 187.706 117.7 187.92C117.598 188.108 117.54 188.316 117.53 188.53C117.829 188.342 118.177 188.244 118.53 188.25C118.753 188.257 118.971 188.313 119.169 188.413C119.368 188.513 119.542 188.656 119.68 188.83C119.977 189.162 120.138 189.594 120.13 190.04C120.134 190.329 120.075 190.615 119.958 190.88C119.841 191.144 119.667 191.379 119.45 191.57C119.006 191.947 118.432 192.137 117.85 192.1C117.176 192.1 116.521 191.883 115.98 191.48C115.711 191.277 115.497 191.009 115.359 190.702C115.221 190.394 115.163 190.056 115.19 189.72Z" fill="black"/>
<path d="M97.2101 193.14C97.2197 192.004 97.5679 190.897 98.2101 189.96C98.8329 189.082 99.6379 188.348 100.57 187.81C101.541 187.25 102.594 186.845 103.69 186.61C104.783 186.365 105.901 186.254 107.02 186.28C107.877 186.32 108.726 186.461 109.55 186.7C110.422 186.946 111.252 187.323 112.01 187.82C112.744 188.299 113.371 188.926 113.85 189.66C114.335 190.415 114.569 191.304 114.52 192.2C114.506 192.951 114.354 193.694 114.07 194.39C113.791 195.071 113.414 195.708 112.95 196.28C112.482 196.854 111.945 197.368 111.35 197.81C110.75 198.249 110.111 198.63 109.44 198.95C109.948 199.135 110.431 199.38 110.88 199.68C111.329 199.99 111.735 200.356 112.09 200.77C112.436 201.181 112.716 201.643 112.92 202.14C113.122 202.649 113.217 203.193 113.2 203.74C113.183 204.77 112.832 205.766 112.2 206.58C111.579 207.372 110.799 208.026 109.91 208.5C108.969 209.005 107.958 209.365 106.91 209.57C105.925 209.787 104.918 209.885 103.91 209.86C103.195 209.838 102.484 209.737 101.79 209.56C101.103 209.391 100.447 209.11 99.8501 208.73C99.2764 208.356 98.7917 207.861 98.4301 207.28C98.0562 206.639 97.8821 205.901 97.9301 205.16C97.9396 203.944 98.3588 202.768 99.1201 201.82C99.8729 200.872 100.821 200.098 101.9 199.55C101.206 199.351 100.55 199.037 99.9601 198.62C99.3667 198.218 98.8431 197.721 98.4101 197.15C97.9743 196.587 97.6363 195.955 97.4101 195.28C97.2188 194.584 97.1511 193.86 97.2101 193.14ZM102.13 193.14C102.112 193.598 102.212 194.052 102.42 194.46C102.633 194.842 102.914 195.181 103.25 195.46C103.598 195.758 103.985 196.007 104.4 196.2C104.802 196.395 105.224 196.543 105.66 196.64C106.099 196.457 106.527 196.246 106.94 196.01C107.384 195.751 107.8 195.446 108.18 195.1C108.566 194.762 108.903 194.371 109.18 193.94C109.428 193.521 109.566 193.046 109.58 192.56C109.59 192.39 109.562 192.221 109.498 192.063C109.434 191.906 109.336 191.765 109.21 191.65C108.95 191.392 108.64 191.188 108.3 191.05C107.924 190.896 107.531 190.785 107.13 190.72C106.8 190.656 106.466 190.616 106.13 190.6C105.695 190.591 105.259 190.625 104.83 190.7C104.374 190.765 103.932 190.904 103.52 191.11C103.133 191.302 102.792 191.574 102.52 191.91C102.266 192.255 102.129 192.672 102.13 193.1V193.14ZM102.61 204.64C102.6 204.746 102.614 204.853 102.65 204.954C102.686 205.054 102.744 205.145 102.82 205.22C102.975 205.369 103.154 205.491 103.35 205.58C103.556 205.677 103.775 205.744 104 205.78C104.195 205.816 104.392 205.836 104.59 205.84C104.901 205.846 105.212 205.826 105.52 205.78C105.899 205.73 106.271 205.64 106.63 205.51C106.975 205.39 107.297 205.211 107.58 204.98C107.708 204.887 107.811 204.765 107.882 204.624C107.954 204.483 107.991 204.328 107.99 204.17C108.008 203.855 107.923 203.543 107.75 203.28C107.575 203.016 107.351 202.789 107.09 202.61C106.828 202.427 106.542 202.283 106.24 202.18C105.953 202.091 105.658 202.028 105.36 201.99L104.59 202.44C104.276 202.63 103.976 202.84 103.69 203.07C103.408 203.292 103.153 203.548 102.93 203.83C102.748 204.049 102.637 204.317 102.61 204.6V204.64Z" fill="black"/>
</g>
</g>
<defs>
<clipPath id="clip0_3192_13181">
<rect width="243" height="378" fill="white"/>
</clipPath>
<clipPath id="clip1_3192_13181">
<rect width="707.78" height="499.47" fill="white" transform="translate(23 9)"/>
</clipPath>
</defs>
</svg>
