<svg width="25" height="24" viewBox="0 0 25 24" fill="none" xmlns="http://www.w3.org/2000/svg">
<path d="M5.49959 11H16.6696L11.7896 6.12001C11.3996 5.73001 11.3996 5.09001 11.7896 4.70001C11.8821 4.6073 11.992 4.53375 12.113 4.48357C12.2339 4.43339 12.3636 4.40756 12.4946 4.40756C12.6256 4.40756 12.7552 4.43339 12.8762 4.48357C12.9972 4.53375 13.1071 4.6073 13.1996 4.70001L19.7896 11.29C19.8823 11.3825 19.9558 11.4924 20.006 11.6134C20.0562 11.7344 20.082 11.864 20.082 11.995C20.082 12.126 20.0562 12.2557 20.006 12.3766C19.9558 12.4976 19.8823 12.6075 19.7896 12.7L13.1996 19.29C13.107 19.3826 12.9971 19.456 12.8761 19.5061C12.7552 19.5562 12.6255 19.582 12.4946 19.582C12.3637 19.582 12.234 19.5562 12.113 19.5061C11.9921 19.456 11.8822 19.3826 11.7896 19.29C11.697 19.1974 11.6236 19.0875 11.5735 18.9665C11.5234 18.8456 11.4976 18.7159 11.4976 18.585C11.4976 18.4541 11.5234 18.3244 11.5735 18.2035C11.6236 18.0825 11.697 17.9726 11.7896 17.88L16.6696 13H5.49959C4.94959 13 4.49959 12.55 4.49959 12C4.49959 11.45 4.94959 11 5.49959 11Z" fill="black"/>
</svg>
