<svg width="40" height="40" viewBox="0 0 40 40" fill="none" xmlns="http://www.w3.org/2000/svg">
<rect width="40" height="40" rx="8" fill="#FFCB14"/>
<g clip-path="url(#clip0_3156_1319)">
<path fill-rule="evenodd" clip-rule="evenodd" d="M17.4299 11.1414C16.0613 11.7614 14.9416 12.286 14.9418 12.3073C14.9424 12.3624 18.2265 13.8087 18.343 13.8052C18.396 13.8036 18.7807 13.6497 19.1977 13.4631L19.9561 13.1239L20.7844 13.4941L21.6126 13.8644L22.969 13.3344C25.0128 12.5357 25.225 12.4482 25.1918 12.4188C25.1476 12.3798 24.4146 12.0374 22.4257 11.1268C21.4645 10.6868 20.5316 10.2553 20.3525 10.168C20.1734 10.0807 20.0025 10.0104 19.9726 10.0118C19.9428 10.0132 18.7985 10.5215 17.4299 11.1414ZM11.4273 13.8445L10.0026 14.4844V17.293C10.0026 18.8377 10.0213 20.1015 10.0442 20.1015C10.0671 20.1015 10.768 19.8373 11.6018 19.5143L13.1179 18.9272V15.9667L13.8587 16.3177C14.4296 16.5879 15.0008 16.8576 15.5723 17.1267L16.5451 17.5847L16.978 17.4145C17.2495 17.3076 17.5204 17.1996 17.7908 17.0906C17.9997 17.006 18.5126 16.8051 18.9305 16.6441C19.3484 16.4831 19.7352 16.3211 19.7901 16.2842C19.863 16.2352 18.9744 15.8082 16.5037 14.7049C14.6413 13.8732 13.0578 13.1954 12.9847 13.1986C12.9117 13.2019 12.2108 13.4925 11.4273 13.8445ZM25.4485 14.0242C24.4782 14.4051 23.6837 14.732 23.6828 14.7506C23.6819 14.7692 24.2108 15.0427 24.858 15.3582C25.5053 15.6737 26.0349 15.9488 26.0349 15.9695C26.0349 15.9902 25.4621 16.2315 24.7622 16.5059C24.0621 16.7802 22.2927 17.4751 20.8301 18.0501L15.9292 19.9765C14.6964 20.4611 13.5852 20.8979 13.4598 20.9473C10.9417 21.9386 10.2496 22.2136 10.1545 22.2608C10.059 22.3084 10.0373 22.5845 10.0203 23.9706L10 25.6238L11.274 26.1883L12.548 26.7527L14.3146 26.0594C15.2862 25.6781 16.0812 25.3462 16.0812 25.3217C16.0812 25.2974 15.9016 25.1956 15.6823 25.0956C15.4628 24.9955 15.0098 24.7741 14.6755 24.6033C14.3412 24.4325 14.0078 24.2759 13.9347 24.2551C13.8615 24.2344 13.8027 24.1981 13.8039 24.1745C13.8051 24.1509 14.583 23.8296 15.5325 23.4604C17.3767 22.7434 18.788 22.1907 21.8178 20.9992C23.1727 20.4665 24.5277 19.9342 25.8829 19.4022C27.0739 18.9347 28.4587 18.3887 28.9602 18.1888L29.872 17.8255L29.8923 16.1535L29.9126 14.4816L28.6205 13.9049C27.9097 13.5877 27.3023 13.329 27.2704 13.3299C27.2386 13.3308 26.4187 13.6432 25.4485 14.0242ZM29.5258 20.0561C29.3354 20.1369 28.9593 20.2884 28.69 20.3925C28.4207 20.4967 27.9097 20.6972 27.5545 20.8382L26.9087 21.0943L26.8939 22.5622C26.8858 23.3695 26.8516 24.0264 26.818 24.0222C26.7415 24.0123 25.531 23.4724 24.3143 22.9054C23.436 22.4963 23.3809 22.48 23.1745 22.5689C23.0552 22.6203 22.3421 22.8984 21.5899 23.187C20.8377 23.4756 20.1977 23.7305 20.1676 23.7536C20.1376 23.7766 21.6515 24.4902 23.532 25.3394L26.951 26.8833L28.4115 26.2263C29.2147 25.865 29.8977 25.5354 29.9292 25.4939C30 25.4007 29.9939 19.8962 29.9231 19.9036C29.895 19.9066 29.7162 19.9752 29.5258 20.0561ZM21.4379 26.517C21.1846 26.6117 20.9313 26.7065 20.6781 26.8015C19.9135 27.0892 20.0633 27.0987 19.1537 26.7049C18.5478 26.4427 18.2866 26.3617 18.1733 26.401C18.0882 26.4305 17.3565 26.7168 16.547 27.0372C15.7375 27.3577 15.0471 27.6198 15.0128 27.6198C14.6732 27.6198 15.2378 27.9132 17.4165 28.8689L19.9716 29.9896L21.0467 29.5281C21.638 29.2742 22.8306 28.7659 23.697 28.3985C24.5634 28.0309 25.2615 27.7207 25.2485 27.709C25.2353 27.6973 24.5094 27.3732 23.6352 26.9886L22.0458 26.2896L21.4379 26.517Z" fill="black"/>
</g>
<defs>
<clipPath id="clip0_3156_1319">
<rect width="20" height="20" fill="white" transform="translate(10 10)"/>
</clipPath>
</defs>
</svg>
