<svg width="131" height="119" viewBox="0 0 131 119" fill="none" xmlns="http://www.w3.org/2000/svg">
<g clip-path="url(#clip0_3165_4755)">
<path d="M96.0664 111.527L102.116 55.3337C102.136 54.8187 101.979 54.3124 101.671 53.8992C101.363 53.486 100.922 53.191 100.423 53.0634C72.6714 47.111 50.3391 13.1559 45.0024 4.40898C44.8478 4.15332 44.6404 3.93365 44.394 3.76473C44.1477 3.59581 43.868 3.48152 43.5738 3.42955C43.2796 3.37758 42.9778 3.38911 42.6884 3.46339C42.3991 3.53765 42.1289 3.67292 41.8962 3.86015C27.244 15.9788 15.6587 36.4433 13.4817 40.4215C13.2492 40.8541 13.1644 41.3509 13.2403 41.8361C20.6149 83.5312 75.943 110.202 93.639 113.388C93.9218 113.435 94.2113 113.423 94.4895 113.353C94.7676 113.284 95.0286 113.158 95.2561 112.983C95.4837 112.809 95.673 112.59 95.8124 112.339C95.9517 112.089 96.0382 111.812 96.0664 111.527Z" fill="#6265CE"/>
<path d="M93.5518 109.728L99.3211 56.2507C99.3428 56.0665 99.2969 55.8806 99.1918 55.7277C99.0868 55.5747 98.9298 55.4651 98.7501 55.4192C71.9452 48.967 50.6509 18.4664 43.5483 7.13894C43.4896 7.04272 43.4103 6.96067 43.3161 6.89862C43.222 6.83657 43.1153 6.79607 43.0037 6.78001C42.8921 6.76394 42.7784 6.77271 42.6706 6.80569C42.5628 6.83866 42.4636 6.89504 42.38 6.97078C29.1397 18.4807 18.6075 36.7352 16.0741 41.2878C15.9819 41.4474 15.9503 41.6348 15.9851 41.8158C23.0742 80.1256 72.745 106.043 92.6179 110.421C92.7253 110.442 92.8359 110.44 92.9425 110.415C93.0492 110.391 93.1496 110.345 93.2374 110.28C93.3253 110.215 93.3986 110.132 93.4527 110.037C93.5068 109.942 93.5406 109.836 93.5518 109.728Z" fill="#7B85E8"/>
<path d="M33.8247 30.5867C33.8211 30.4546 33.8563 30.3244 33.926 30.2121C33.9956 30.0998 34.0967 30.0104 34.2166 29.955C34.2943 29.9104 34.38 29.8816 34.4688 29.8704C34.5577 29.8592 34.6479 29.8657 34.7341 29.8897C34.8204 29.9136 34.9011 29.9545 34.9715 30.0098C35.0418 30.0652 35.1005 30.134 35.144 30.2123C41.3214 41.1848 49.6491 50.7982 59.6287 58.477C69.8495 65.9452 81.035 71.9944 92.8801 76.4593C92.9616 76.4909 93.036 76.5385 93.0988 76.5994C93.1615 76.6602 93.2114 76.7331 93.2456 76.8136C93.2797 76.8941 93.2973 76.9806 93.2973 77.068C93.2974 77.1555 93.2799 77.242 93.2459 77.3226C93.2137 77.4053 93.1655 77.4809 93.1041 77.5451C93.0427 77.6092 92.9693 77.6606 92.888 77.6963C92.8068 77.7321 92.7192 77.7515 92.6305 77.7534C92.5417 77.7553 92.4534 77.7397 92.3707 77.7075C80.417 73.1898 69.1289 67.077 58.813 59.5351C48.6817 51.7528 40.2313 41.9995 33.9712 30.8632C33.9712 30.8632 33.8464 30.6797 33.8247 30.5867Z" fill="#4D52A8"/>
<path d="M29.4225 54.6354C26.7374 53.579 25.6367 49.9265 26.9749 46.4882C28.3131 43.0499 31.6071 41.1169 34.2922 42.1734C36.9774 43.2298 38.09 46.8632 36.7399 50.3206C35.3899 53.778 32.1077 55.6918 29.4225 54.6354Z" fill="#FFB552"/>
<path d="M42.7588 69.2484C40.0737 68.1919 38.9921 64.5513 40.3303 61.113C41.6685 57.6747 44.9434 55.7299 47.6595 56.779C50.3757 57.8282 51.4262 61.4761 50.0881 64.9144C48.7499 68.3527 45.475 70.2975 42.7588 69.2484Z" fill="#FFB552"/>
<path d="M58.2158 82.0734C55.5187 81.0361 54.418 77.3835 55.7562 73.9453C57.0944 70.507 60.4003 68.5549 63.0854 69.6113C65.7706 70.6677 66.8713 74.3202 65.5331 77.7585C64.195 81.1968 60.9009 83.1298 58.2158 82.0734Z" fill="#FFB552"/>
<path d="M76.6276 93.4191C73.9233 92.3508 72.8299 88.7293 74.1799 85.2719C75.53 81.8144 78.8121 79.9006 81.4973 80.957C84.1825 82.0135 85.295 85.6468 83.945 89.1043C82.5949 92.5617 79.3128 94.4755 76.6276 93.4191Z" fill="#FFB552"/>
<path d="M83.1773 66.5413C81.9074 66.5771 80.658 66.2158 79.6031 65.5079C78.5482 64.7999 77.7405 63.7805 77.2924 62.5918C76.8444 61.403 76.7783 60.1041 77.1034 58.876C77.4286 57.6479 78.1288 56.5518 79.1064 55.7405C80.0839 54.9291 81.2903 54.443 82.5573 54.3497C83.8243 54.2565 85.0888 54.5608 86.1746 55.2203C87.2604 55.8798 88.1135 56.8616 88.6149 58.0288C89.1163 59.1961 89.2411 60.4907 88.9719 61.7323C88.8207 63.1299 88.1311 64.4136 87.0494 65.3114C85.9676 66.2091 84.5788 66.6503 83.1773 66.5413Z" fill="#FFB552"/>
<path d="M68.7349 57.7675C67.4638 57.8306 66.2047 57.495 65.1338 56.8074C64.0628 56.1199 63.2335 55.1148 62.7617 53.9328C62.29 52.7508 62.1994 51.4509 62.5027 50.2149C62.806 48.9789 63.4879 47.8686 64.4532 47.0392C65.4185 46.2098 66.6188 45.7027 67.8864 45.589C69.154 45.4753 70.4254 45.7605 71.5229 46.4048C72.6204 47.0491 73.4892 48.0203 74.0077 49.1826C74.5261 50.3448 74.6684 51.6401 74.4147 52.8872C74.2809 54.2765 73.615 55.5602 72.5564 56.4698C71.4978 57.3794 70.1285 57.8444 68.7349 57.7675Z" fill="#FFB552"/>
<path d="M56.4139 47.628C55.1489 47.6616 53.905 47.2999 52.8554 46.5932C51.8057 45.8865 51.0026 44.8701 50.5578 43.6855C50.1131 42.5008 50.0488 41.207 50.374 39.9841C50.6993 38.7613 51.3978 37.6703 52.3722 36.8631C53.3467 36.0559 54.5487 35.5727 55.8107 35.4808C57.0728 35.389 58.332 35.693 59.4131 36.3505C60.4943 37.008 61.3434 37.9863 61.8423 39.1492C62.3412 40.3121 62.4651 41.6016 62.1966 42.8382C62.0518 44.2347 61.3649 45.5187 60.2837 46.4143C59.2024 47.31 57.8129 47.7457 56.4139 47.628Z" fill="#FFB552"/>
<path d="M44.722 31.8616C43.4507 31.9036 42.1981 31.5475 41.139 30.843C40.08 30.1386 39.2674 29.1209 38.8148 27.9322C38.3622 26.7435 38.2921 25.4431 38.6144 24.2127C38.9367 22.9823 39.6353 21.8832 40.6125 21.0691C41.5897 20.2549 42.7969 19.7663 44.0653 19.6715C45.3337 19.5766 46.6 19.8804 47.6875 20.5402C48.7749 21.2 49.6291 22.183 50.1307 23.3519C50.6324 24.5207 50.7564 25.817 50.4856 27.0598C50.3381 28.4526 49.6537 29.7331 48.5776 30.6296C47.5016 31.5261 46.1185 31.968 44.722 31.8616Z" fill="#FFB552"/>
<path d="M43.4922 28.8453L47.7011 21.8062L48.8543 22.4687L44.6645 29.5197L43.4922 28.8453Z" fill="#B73A37"/>
<path d="M55.1738 45.2683L59.3755 38.1981L60.5359 38.8917L56.3461 45.9427L55.1738 45.2683Z" fill="#B73A37"/>
<path d="M67.2965 55.1764L71.4982 48.1063L72.6586 48.7998L68.4497 55.8389L67.2965 55.1764Z" fill="#B73A37"/>
<path d="M82.0646 63.8894L86.2544 56.8384L87.4148 57.532L83.225 64.583L82.0646 63.8894Z" fill="#B73A37"/>
<path d="M76.3109 90.6781L80.9329 82.8878L82.2082 83.6527L77.598 91.4238L76.3109 90.6781Z" fill="#B73A37"/>
<path d="M57.6956 79.3639L62.3058 71.5927L63.593 72.3384L58.9709 80.1287L57.6956 79.3639Z" fill="#B73A37"/>
<path d="M42.6699 66.7L47.2919 58.9097L48.5672 59.6745L43.9379 67.4338L42.6699 66.7Z" fill="#B73A37"/>
<path d="M28.8578 51.5802L33.4679 43.8091L34.7551 44.5548L30.133 52.345L28.8578 51.5802Z" fill="#B73A37"/>
<g style="mix-blend-mode:soft-light" opacity="0.5">
<path d="M91.6843 61.031C93.4021 53.1354 57.8543 33.9402 54.2755 45.3474C50.6968 56.7546 87.8258 78.999 91.6843 61.031Z" fill="white"/>
</g>
</g>
<defs>
<clipPath id="clip0_3165_4755">
<rect width="108.069" height="72.6769" fill="white" transform="matrix(-0.849699 -0.527267 -0.527267 0.849699 130.146 56.9813)"/>
</clipPath>
</defs>
</svg>
