<svg width="132" height="120" viewBox="0 0 132 120" fill="none" xmlns="http://www.w3.org/2000/svg">
<g clip-path="url(#clip0_3165_4732)">
<path d="M35.0469 112.492L28.9974 56.2993C28.9773 55.7843 29.1345 55.2779 29.4426 54.8648C29.7508 54.4516 30.1912 54.1566 30.6906 54.0289C58.4419 48.0765 80.7742 14.1214 86.1109 5.37455C86.2654 5.1189 86.4728 4.89923 86.7192 4.7303C86.9656 4.56138 87.2453 4.4471 87.5395 4.39513C87.8336 4.34315 88.1355 4.35469 88.4249 4.42896C88.7142 4.50323 88.9843 4.6385 89.2171 4.82573C103.869 16.9444 115.455 37.4088 117.632 41.3871C117.864 41.8197 117.949 42.3164 117.873 42.8016C110.498 84.4967 55.1703 111.167 37.4743 114.353C37.1914 114.4 36.902 114.388 36.6238 114.319C36.3456 114.249 36.0847 114.123 35.8572 113.949C35.6296 113.775 35.4403 113.555 35.3009 113.305C35.1615 113.054 35.0751 112.778 35.0469 112.492Z" fill="#6265CE"/>
<path d="M37.5615 110.693L31.7921 57.2163C31.7705 57.032 31.8164 56.8462 31.9214 56.6932C32.0265 56.5403 32.1834 56.4307 32.3632 56.3847C59.1681 49.9326 80.4623 19.4319 87.565 8.10451C87.6237 8.00829 87.703 7.92624 87.7971 7.8642C87.8913 7.80215 87.9979 7.76165 88.1095 7.74558C88.2211 7.72952 88.3349 7.73828 88.4427 7.77126C88.5505 7.80424 88.6497 7.86061 88.7332 7.93636C101.974 19.4463 112.506 37.7008 115.039 42.2534C115.131 42.4129 115.163 42.6004 115.128 42.7814C108.039 81.0912 58.3683 107.009 38.4953 111.386C38.3879 111.407 38.2774 111.405 38.1708 111.381C38.0641 111.357 37.9637 111.311 37.8758 111.245C37.788 111.18 37.7147 111.097 37.6606 111.002C37.6065 110.907 37.5727 110.802 37.5615 110.693Z" fill="#7B85E8"/>
<path d="M97.2886 31.5522C97.2922 31.4202 97.257 31.2899 97.1873 31.1777C97.1176 31.0654 97.0166 30.976 96.8967 30.9206C96.819 30.8759 96.7333 30.8472 96.6444 30.8359C96.5556 30.8247 96.4654 30.8313 96.3791 30.8553C96.2929 30.8792 96.2122 30.92 96.1418 30.9754C96.0715 31.0308 96.0128 31.0996 95.9693 31.1779C89.7919 42.1504 81.4642 51.7637 71.4846 59.4426C61.2638 66.9108 50.0782 72.9599 38.2332 77.4249C38.1517 77.4565 38.0773 77.5041 38.0145 77.5649C37.9518 77.6258 37.9018 77.6986 37.8677 77.7791C37.8336 77.8596 37.816 77.9462 37.816 78.0336C37.8159 78.121 37.8334 78.2076 37.8674 78.2881C37.8996 78.3709 37.9478 78.4465 38.0092 78.5106C38.0706 78.5748 38.144 78.6262 38.2252 78.6619C38.3065 78.6977 38.394 78.717 38.4828 78.7189C38.5716 78.7208 38.6599 78.7053 38.7426 78.673C50.6963 74.1554 61.9844 68.0426 72.3003 60.5007C82.4316 52.7184 90.882 42.9651 97.1421 31.8288C97.1421 31.8288 97.2668 31.6453 97.2886 31.5522Z" fill="#4D52A8"/>
<path d="M101.691 55.601C104.376 54.5446 105.477 50.8921 104.138 47.4538C102.8 44.0155 99.5062 42.0825 96.821 43.1389C94.1359 44.1954 93.0233 47.8287 94.3734 51.2862C95.7234 54.7436 99.0056 56.6574 101.691 55.601Z" fill="#FFB552"/>
<path d="M88.3545 70.2139C91.0396 69.1575 92.1212 65.5169 90.783 62.0786C89.4448 58.6403 86.1699 56.6954 83.4538 57.7446C80.7376 58.7937 79.687 62.4417 81.0252 65.8799C82.3634 69.3182 85.6383 71.2631 88.3545 70.2139Z" fill="#FFB552"/>
<path d="M72.8975 83.0389C75.5945 82.0017 76.6952 78.3491 75.3571 74.9108C74.0189 71.4725 70.713 69.5205 68.0278 70.5769C65.3427 71.6333 64.242 75.2858 65.5802 78.7241C66.9183 82.1624 70.2124 84.0954 72.8975 83.0389Z" fill="#FFB552"/>
<path d="M54.4857 94.3847C57.1899 93.3164 58.2834 89.6949 56.9333 86.2374C55.5833 82.78 52.3011 80.8662 49.616 81.9226C46.9308 82.979 45.8183 86.6124 47.1683 90.0699C48.5183 93.5273 51.8005 95.4411 54.4857 94.3847Z" fill="#FFB552"/>
<path d="M47.936 67.5069C49.2059 67.5427 50.4553 67.1814 51.5102 66.4735C52.5651 65.7655 53.3728 64.7461 53.8209 63.5573C54.2689 62.3686 54.335 61.0696 54.0098 59.8415C53.6847 58.6134 52.9845 57.5174 52.0069 56.706C51.0293 55.8947 49.823 55.4086 48.556 55.3153C47.289 55.2221 46.0245 55.5264 44.9387 56.1859C43.8529 56.8454 42.9998 57.8271 42.4984 58.9944C41.997 60.1617 41.8722 61.4563 42.1414 62.6979C42.2926 64.0954 42.9822 65.3792 44.0639 66.277C45.1456 67.1747 46.5345 67.6159 47.936 67.5069Z" fill="#FFB552"/>
<path d="M62.3784 58.7331C63.6495 58.7962 64.9085 58.4605 65.9795 57.773C67.0505 57.0855 67.8798 56.0804 68.3516 54.8984C68.8233 53.7164 68.9139 52.4165 68.6106 51.1805C68.3073 49.9445 67.6254 48.8342 66.6601 48.0047C65.6948 47.1753 64.4945 46.6683 63.2269 46.5546C61.9593 46.4408 60.6879 46.7261 59.5904 47.3704C58.4928 48.0147 57.6241 48.9859 57.1056 50.1481C56.5872 51.3104 56.4449 52.6056 56.6986 53.8528C56.8324 55.242 57.4983 56.5258 58.5569 57.4354C59.6155 58.3449 60.9848 58.8099 62.3784 58.7331Z" fill="#FFB552"/>
<path d="M74.6994 48.5936C75.9643 48.6272 77.2083 48.2655 78.2579 47.5588C79.3076 46.8521 80.1107 45.8357 80.5555 44.651C81.0002 43.4664 81.0645 42.1726 80.7392 40.9497C80.414 39.7268 79.7155 38.6358 78.741 37.8287C77.7665 37.0215 76.5646 36.5383 75.3026 36.4464C74.0405 36.3545 72.7813 36.6585 71.7001 37.3161C70.619 37.9736 69.7699 38.9519 69.271 40.1148C68.772 41.2777 68.6482 42.5672 68.9167 43.8037C69.0615 45.2003 69.7483 46.4843 70.8296 47.3799C71.9109 48.2756 73.3003 48.7113 74.6994 48.5936Z" fill="#FFB552"/>
<path d="M86.3913 32.8272C87.6625 32.8692 88.9152 32.5131 89.9742 31.8086C91.0333 31.1042 91.8459 30.0865 92.2985 28.8978C92.7511 27.7091 92.8212 26.4087 92.4989 25.1783C92.1766 23.9478 91.478 22.8488 90.5008 22.0346C89.5235 21.2205 88.3164 20.7319 87.048 20.637C85.7796 20.5422 84.5132 20.8459 83.4258 21.5058C82.3384 22.1656 81.4842 23.1486 80.9825 24.3174C80.4809 25.4863 80.3568 26.7826 80.6277 28.0254C80.7752 29.4182 81.4596 30.6987 82.5356 31.5952C83.6117 32.4917 84.9948 32.9336 86.3913 32.8272Z" fill="#FFB552"/>
<path d="M87.6211 29.8109L83.4122 22.7718L82.259 23.4343L86.4488 30.4853L87.6211 29.8109Z" fill="#B73A37"/>
<path d="M75.9394 46.2338L71.7378 39.1637L70.5774 39.8573L74.7671 46.9083L75.9394 46.2338Z" fill="#B73A37"/>
<path d="M63.8168 56.142L59.6151 49.0718L58.4547 49.7654L62.6636 56.8045L63.8168 56.142Z" fill="#B73A37"/>
<path d="M49.0487 64.855L44.8589 57.804L43.6984 58.4975L47.8882 65.5485L49.0487 64.855Z" fill="#B73A37"/>
<path d="M54.8024 91.6437L50.1804 83.8534L48.9051 84.6182L53.5152 92.3894L54.8024 91.6437Z" fill="#B73A37"/>
<path d="M73.4176 80.3295L68.8075 72.5583L67.5203 73.304L72.1424 81.0943L73.4176 80.3295Z" fill="#B73A37"/>
<path d="M88.4434 67.6656L83.8214 59.8753L82.5461 60.6401L87.1754 68.3994L88.4434 67.6656Z" fill="#B73A37"/>
<path d="M102.256 52.5458L97.6454 44.7746L96.3582 45.5203L100.98 53.3106L102.256 52.5458Z" fill="#B73A37"/>
<g style="mix-blend-mode:soft-light" opacity="0.5">
<path d="M39.429 61.9966C37.7111 54.101 73.259 34.9058 76.8377 46.313C80.4165 57.7202 43.2875 79.9646 39.429 61.9966Z" fill="white"/>
</g>
</g>
<defs>
<clipPath id="clip0_3165_4732">
<rect width="108.069" height="72.6769" fill="white" transform="translate(0.966797 57.9469) rotate(-31.821)"/>
</clipPath>
</defs>
</svg>
