<svg width="40" height="40" viewBox="0 0 40 40" fill="none" xmlns="http://www.w3.org/2000/svg">
<rect width="40" height="40" rx="8" fill="#FFCB14"/>
<path d="M19.9993 11.6667C15.3993 11.6667 11.666 15.4 11.666 20C11.666 24.6 15.3993 28.3333 19.9993 28.3333C24.5993 28.3333 28.3327 24.6 28.3327 20C28.3327 15.4 24.5993 11.6667 19.9993 11.6667ZM23.866 17.3333C23.741 18.65 23.1993 21.85 22.9243 23.325C22.8077 23.95 22.5743 24.1583 22.3577 24.1833C21.8743 24.225 21.5077 23.8667 21.041 23.5583C20.3077 23.075 19.891 22.775 19.1827 22.3083C18.3577 21.7667 18.891 21.4667 19.366 20.9833C19.491 20.8583 21.6243 18.9167 21.666 18.7417C21.6718 18.7152 21.671 18.6876 21.6638 18.6615C21.6565 18.6354 21.643 18.6114 21.6243 18.5917C21.5743 18.55 21.5077 18.5667 21.4493 18.575C21.3743 18.5917 20.2077 19.3667 17.9327 20.9C17.5993 21.125 17.2993 21.2417 17.0327 21.2333C16.7327 21.225 16.166 21.0667 15.741 20.925C15.216 20.7583 14.8077 20.6667 14.841 20.375C14.8577 20.225 15.066 20.075 15.4577 19.9167C17.891 18.8583 19.5077 18.1583 20.316 17.825C22.6327 16.8583 23.1077 16.6917 23.4243 16.6917C23.491 16.6917 23.6493 16.7083 23.7493 16.7917C23.8327 16.8583 23.8577 16.95 23.866 17.0167C23.8577 17.0667 23.8743 17.2167 23.866 17.3333Z" fill="black"/>
</svg>
