<svg width="40" height="40" viewBox="0 0 40 40" fill="none" xmlns="http://www.w3.org/2000/svg">
<rect width="40" height="40" rx="8" fill="#FFCB14"/>
<path d="M32.6078 12.3685C31.7035 12.7704 30.7294 13.0411 29.7082 13.1642C30.752 12.5387 31.5497 11.5503 31.929 10.3712C30.9529 10.9495 29.8722 11.3698 28.7218 11.5954C27.8031 10.6131 26.4887 10 25.0389 10C21.7783 10 19.3832 13.0411 20.1193 16.1991C15.9258 15.9879 12.2038 13.9783 9.71434 10.9248C8.39167 13.1929 9.02943 16.1622 11.2769 17.6653C10.4505 17.6387 9.67333 17.4111 8.99252 17.0337C8.93715 19.3715 10.6146 21.5595 13.0426 22.0476C12.333 22.2403 11.5538 22.2854 10.7622 22.1337C11.4041 24.1392 13.2722 25.5973 15.4787 25.6383C13.3522 27.3034 10.6802 28.0478 8 27.732C10.2352 29.1654 12.8867 30 15.7371 30C25.1127 30 30.4075 22.0824 30.0876 14.981C31.076 14.2715 31.9311 13.3815 32.6078 12.3685Z" fill="black"/>
</svg>
